CooperHewittInterpol2-BoldItalic.ufo
<glyph name="exclam" format="1">
  <advance width="265"/>
  <unicode hex="0021"/>
  <outline>
    <contour>
      <point x="190" y="167" type="line" smooth="yes"/>
      <point x="23" y="167" type="line" smooth="yes"/>
      <point x="1" y="0" type="line" smooth="yes"/>
      <point x="168" y="0" type="line" smooth="yes"/>
    </contour>
    <contour>
      <point x="88" y="780" type="line" smooth="yes"/>
      <point x="58" y="228" type="line" smooth="yes"/>
      <point x="170" y="228" type="line" smooth="yes"/>
      <point x="284" y="780" type="line" smooth="yes"/>
    </contour>
  </outline>
</glyph>
<glyph name="quotedbl" format="1">
  <advance width="446"/>
  <unicode hex="0022"/>
  <outline>
    <contour>
      <point x="298" y="780" type="line" smooth="yes"/>
      <point x="264" y="457" type="line" smooth="yes"/>
      <point x="385" y="457" type="line" smooth="yes"/>
      <point x="452" y="780" type="line" smooth="yes"/>
    </contour>
    <contour>
      <point x="100" y="780" type="line" smooth="yes"/>
      <point x="83" y="457" type="line" smooth="yes"/>
      <point x="204" y="457" type="line" smooth="yes"/>
      <point x="255" y="780" type="line" smooth="yes"/>
    </contour>
  </outline>
</glyph>
<glyph name="dollar" format="1">
  <advance width="597"/>
  <unicode hex="0024"/>
  <outline>
    <contour>
      <point x="263" y="333" type="line" smooth="yes"/>
      <point x="328" y="317" type="line" smooth="yes"/>
      <point x="368" y="294" type="line" smooth="yes"/>
      <point x="381" y="256" type="line" smooth="yes"/>
      <point x="370" y="215" type="line" smooth="yes"/>
      <point x="337" y="189" type="line" smooth="yes"/>
      <point x="285" y="180" type="line" smooth="yes"/>
      <point x="280" y="180" type="line" smooth="yes"/>
      <point x="225" y="192" type="line" smooth="yes"/>
      <point x="195" y="227" type="line" smooth="yes"/>
      <point x="191" y="281" type="line" smooth="yes"/>
      <point x="32" y="281" type="line" smooth="yes"/>
      <point x="31" y="274" type="line" smooth="yes"/>
      <point x="32" y="189" type="line" smooth="yes"/>
      <point x="65" y="123" type="line" smooth="yes"/>
      <point x="127" y="77" type="line" smooth="yes"/>
      <point x="77" y="-60" type="line" smooth="yes"/>
      <point x="198" y="-60" type="line" smooth="yes"/>
      <point x="239" y="52" type="line" smooth="yes"/>
      <point x="248" y="51" type="line" smooth="yes"/>
      <point x="258" y="51" type="line" smooth="yes"/>
      <point x="268" y="51" type="line" smooth="yes"/>
      <point x="407" y="74" type="line" smooth="yes"/>
      <point x="499" y="140" type="line" smooth="yes"/>
      <point x="541" y="247" type="line" smooth="yes"/>
      <point x="543" y="264" type="line" smooth="yes"/>
      <point x="526" y="359" type="line" smooth="yes"/>
      <point x="457" y="420" type="line" smooth="yes"/>
      <point x="346" y="453" type="line" smooth="yes"/>
      <point x="276" y="469" type="line" smooth="yes"/>
      <point x="240" y="490" type="line" smooth="yes"/>
      <point x="229" y="524" type="line" smooth="yes"/>
      <point x="240" y="564" type="line" smooth="yes"/>
      <point x="271" y="591" type="line" smooth="yes"/>
      <point x="321" y="601" type="line" smooth="yes"/>
      <point x="326" y="601" type="line" smooth="yes"/>
      <point x="382" y="588" type="line" smooth="yes"/>
      <point x="408" y="550" type="line" smooth="yes"/>
      <point x="409" y="491" type="line" smooth="yes"/>
      <point x="566" y="491" type="line" smooth="yes"/>
      <point x="568" y="502" type="line" smooth="yes"/>
      <point x="567" y="588" type="line" smooth="yes"/>
      <point x="538" y="655" type="line" smooth="yes"/>
      <point x="480" y="702" type="line" smooth="yes"/>
      <point x="531" y="840" type="line" smooth="yes"/>
      <point x="410" y="840" type="line" smooth="yes"/>
      <point x="369" y="730" type="line" smooth="yes"/>
      <point x="358" y="731" type="line" smooth="yes"/>
      <point x="347" y="731" type="line" smooth="yes"/>
      <point x="335" y="731" type="line" smooth="yes"/>
      <point x="205" y="708" type="line" smooth="yes"/>
      <point x="114" y="643" type="line" smooth="yes"/>
      <point x="72" y="539" type="line" smooth="yes"/>
      <point x="70" y="522" type="line" smooth="yes"/>
      <point x="83" y="429" type="line" smooth="yes"/>
      <point x="147" y="369" type="line" smooth="yes"/>
    </contour>
  </outline>
</glyph>
<glyph name="ampersand" format="1">
  <advance width="691"/>
  <unicode hex="0026"/>
  <outline>
    <contour>
      <point x="249" y="608" type="line" smooth="yes"/>
      <point x="260" y="636" type="line" smooth="yes"/>
      <point x="282" y="656" type="line" smooth="yes"/>
      <point x="313" y="663" type="line" smooth="yes"/>
      <point x="319" y="663" type="line" smooth="yes"/>
      <point x="348" y="655" type="line" smooth="yes"/>
      <point x="365" y="635" type="line" smooth="yes"/>
      <point x="368" y="606" type="line" smooth="yes"/>
      <point x="367" y="598" type="line" smooth="yes"/>
      <point x="351" y="560" type="line" smooth="yes"/>
      <point x="318" y="531" type="line" smooth="yes"/>
      <point x="273" y="503" type="line" smooth="yes"/>
      <point x="259" y="531" type="line" smooth="yes"/>
      <point x="249" y="564" type="line" smooth="yes"/>
      <point x="248" y="600" type="line" smooth="yes"/>
    </contour>
    <contour>
      <point x="242" y="123" type="line" smooth="yes"/>
      <point x="191" y="135" type="line" smooth="yes"/>
      <point x="164" y="169" type="line" smooth="yes"/>
      <point x="160" y="224" type="line" smooth="yes"/>
      <point x="161" y="232" type="line" smooth="yes"/>
      <point x="170" y="266" type="line" smooth="yes"/>
      <point x="187" y="294" type="line" smooth="yes"/>
      <point x="211" y="319" type="line" smooth="yes"/>
      <point x="333" y="148" type="line" smooth="yes"/>
      <point x="313" y="137" type="line" smooth="yes"/>
      <point x="282" y="127" type="line" smooth="yes"/>
      <point x="248" y="123" type="line" smooth="yes"/>
    </contour>
    <contour>
      <point x="204" y="-13" type="line" smooth="yes"/>
      <point x="280" y="-7" type="line" smooth="yes"/>
      <point x="349" y="10" type="line" smooth="yes"/>
      <point x="412" y="37" type="line" smooth="yes"/>
      <point x="440" y="0" type="line" smooth="yes"/>
      <point x="630" y="0" type="line" smooth="yes"/>
      <point x="537" y="129" type="line" smooth="yes"/>
      <point x="597" y="206" type="line" smooth="yes"/>
      <point x="640" y="295" type="line" smooth="yes"/>
      <point x="664" y="395" type="line" smooth="yes"/>
      <point x="498" y="395" type="line" smooth="yes"/>
      <point x="497" y="388" type="line" smooth="yes"/>
      <point x="485" y="338" type="line" smooth="yes"/>
      <point x="467" y="295" type="line" smooth="yes"/>
      <point x="445" y="257" type="line" smooth="yes"/>
      <point x="344" y="398" type="line" smooth="yes"/>
      <point x="424" y="444" type="line" smooth="yes"/>
      <point x="488" y="505" type="line" smooth="yes"/>
      <point x="524" y="596" type="line" smooth="yes"/>
      <point x="526" y="609" type="line" smooth="yes"/>
      <point x="516" y="699" type="line" smooth="yes"/>
      <point x="451" y="767" type="line" smooth="yes"/>
      <point x="326" y="793" type="line" smooth="yes"/>
      <point x="202" y="768" type="line" smooth="yes"/>
      <point x="125" y="705" type="line" smooth="yes"/>
      <point x="90" y="616" type="line" smooth="yes"/>
      <point x="88" y="602" type="line" smooth="yes"/>
      <point x="87" y="534" type="line" smooth="yes"/>
      <point x="104" y="476" type="line" smooth="yes"/>
      <point x="135" y="424" type="line" smooth="yes"/>
      <point x="71" y="378" type="line" smooth="yes"/>
      <point x="24" y="313" type="line" smooth="yes"/>
      <point x="-1" y="224" type="line" smooth="yes"/>
      <point x="-3" y="207" type="line" smooth="yes"/>
      <point x="11" y="90" type="line" smooth="yes"/>
      <point x="81" y="14" type="line" smooth="yes"/>
    </contour>
  </outline>
</glyph>
<glyph name="parenleft" format="1">
  <advance width="365"/>
  <unicode hex="0028"/>
  <outline>
    <contour>
      <point x="36" y="346" type="line" smooth="yes"/>
      <point x="36" y="153" type="line" smooth="yes"/>
      <point x="69" y="3" type="line" smooth="yes"/>
      <point x="121" y="-120" type="line" smooth="yes"/>
      <point x="281" y="-120" type="line" smooth="yes"/>
      <point x="227" y="14" type="line" smooth="yes"/>
      <point x="193" y="169" type="line" smooth="yes"/>
      <point x="191" y="346" type="line" smooth="yes"/>
      <point x="194" y="375" type="line" smooth="yes"/>
      <point x="237" y="554" type="line" smooth="yes"/>
      <point x="313" y="711" type="line" smooth="yes"/>
      <point x="407" y="840" type="line" smooth="yes"/>
      <point x="245" y="840" type="line" smooth="yes"/>
      <point x="154" y="719" type="line" smooth="yes"/>
      <point x="81" y="566" type="line" smooth="yes"/>
      <point x="39" y="375" type="line" smooth="yes"/>
    </contour>
  </outline>
</glyph>
<glyph name="parenright" format="1">
  <advance width="359"/>
  <unicode hex="0029"/>
  <outline>
    <contour>
      <point x="326" y="374" type="line" smooth="yes"/>
      <point x="326" y="567" type="line" smooth="yes"/>
      <point x="293" y="717" type="line" smooth="yes"/>
      <point x="241" y="840" type="line" smooth="yes"/>
      <point x="81" y="840" type="line" smooth="yes"/>
      <point x="135" y="706" type="line" smooth="yes"/>
      <point x="169" y="551" type="line" smooth="yes"/>
      <point x="171" y="374" type="line" smooth="yes"/>
      <point x="168" y="345" type="line" smooth="yes"/>
      <point x="125" y="166" type="line" smooth="yes"/>
      <point x="49" y="9" type="line" smooth="yes"/>
      <point x="-45" y="-120" type="line" smooth="yes"/>
      <point x="117" y="-120" type="line" smooth="yes"/>
      <point x="208" y="1" type="line" smooth="yes"/>
      <point x="281" y="154" type="line" smooth="yes"/>
      <point x="323" y="345" type="line" smooth="yes"/>
    </contour>
  </outline>
</glyph>
<glyph name="plus" format="1">
  <advance width="600"/>
  <unicode hex="002B"/>
  <outline>
    <contour>
      <point x="265" y="648" type="line" smooth="yes"/>
      <point x="240" y="460" type="line" smooth="yes"/>
      <point x="52" y="460" type="line" smooth="yes"/>
      <point x="34" y="320" type="line" smooth="yes"/>
      <point x="222" y="320" type="line" smooth="yes"/>
      <point x="197" y="132" type="line" smooth="yes"/>
      <point x="337" y="132" type="line" smooth="yes"/>
      <point x="362" y="320" type="line" smooth="yes"/>
      <point x="550" y="320" type="line" smooth="yes"/>
      <point x="568" y="460" type="line" smooth="yes"/>
      <point x="380" y="460" type="line" smooth="yes"/>
      <point x="405" y="648" type="line" smooth="yes"/>
    </contour>
  </outline>
</glyph>
<glyph name="zero" format="1">
  <advance width="597"/>
  <unicode hex="0030"/>
  <outline>
    <contour>
      <point x="374" y="223" type="line" smooth="yes"/>
      <point x="357" y="167" type="line" smooth="yes"/>
      <point x="324" y="137" type="line" smooth="yes"/>
      <point x="270" y="127" type="line" smooth="yes"/>
      <point x="266" y="127" type="line" smooth="yes"/>
      <point x="215" y="139" type="line" smooth="yes"/>
      <point x="187" y="172" type="line" smooth="yes"/>
      <point x="184" y="222" type="line" smooth="yes"/>
      <point x="228" y="557" type="line" smooth="yes"/>
      <point x="245" y="613" type="line" smooth="yes"/>
      <point x="278" y="643" type="line" smooth="yes"/>
      <point x="332" y="653" type="line" smooth="yes"/>
      <point x="336" y="653" type="line" smooth="yes"/>
      <point x="387" y="641" type="line" smooth="yes"/>
      <point x="415" y="608" type="line" smooth="yes"/>
      <point x="418" y="558" type="line" smooth="yes"/>
    </contour>
    <contour>
      <point x="578" y="558" type="line" smooth="yes"/>
      <point x="563" y="682" type="line" smooth="yes"/>
      <point x="483" y="764" type="line" smooth="yes"/>
      <point x="340" y="793" type="line" smooth="yes"/>
      <point x="196" y="767" type="line" smooth="yes"/>
      <point x="109" y="689" type="line" smooth="yes"/>
      <point x="68" y="558" type="line" smooth="yes"/>
      <point x="24" y="222" type="line" smooth="yes"/>
      <point x="39" y="98" type="line" smooth="yes"/>
      <point x="119" y="16" type="line" smooth="yes"/>
      <point x="262" y="-13" type="line" smooth="yes"/>
      <point x="406" y="13" type="line" smooth="yes"/>
      <point x="493" y="91" type="line" smooth="yes"/>
      <point x="534" y="222" type="line" smooth="yes"/>
    </contour>
  </outline>
</glyph>
<glyph name="two" format="1">
  <advance width="597"/>
  <unicode hex="0032"/>
  <outline>
    <contour>
      <point x="310" y="140" type="line" smooth="yes"/>
      <point x="239" y="139" type="line" smooth="yes"/>
      <point x="466" y="358" type="line" smooth="yes"/>
      <point x="524" y="419" type="line" smooth="yes"/>
      <point x="560" y="476" type="line" smooth="yes"/>
      <point x="578" y="547" type="line" smooth="yes"/>
      <point x="581" y="569" type="line" smooth="yes"/>
      <point x="567" y="676" type="line" smooth="yes"/>
      <point x="490" y="760" type="line" smooth="yes"/>
      <point x="340" y="793" type="line" smooth="yes"/>
      <point x="200" y="765" type="line" smooth="yes"/>
      <point x="110" y="682" type="line" smooth="yes"/>
      <point x="66" y="542" type="line" smooth="yes"/>
      <point x="63" y="520" type="line" smooth="yes"/>
      <point x="223" y="520" type="line" smooth="yes"/>
      <point x="244" y="598" type="line" smooth="yes"/>
      <point x="280" y="641" type="line" smooth="yes"/>
      <point x="333" y="653" type="line" smooth="yes"/>
      <point x="343" y="653" type="line" smooth="yes"/>
      <point x="388" y="642" type="line" smooth="yes"/>
      <point x="415" y="607" type="line" smooth="yes"/>
      <point x="419" y="548" type="line" smooth="yes"/>
      <point x="418" y="540" type="line" smooth="yes"/>
      <point x="408" y="503" type="line" smooth="yes"/>
      <point x="387" y="470" type="line" smooth="yes"/>
      <point x="351" y="432" type="line" smooth="yes"/>
      <point x="8" y="101" type="line" smooth="yes"/>
      <point x="-5" y="0" type="line" smooth="yes"/>
      <point x="507" y="0" type="line" smooth="yes"/>
      <point x="525" y="140" type="line" smooth="yes"/>
    </contour>
  </outline>
</glyph>
<glyph name="three" format="1">
  <advance width="598"/>
  <unicode hex="0033"/>
  <outline>
    <contour>
      <point x="182" y="250" type="line" smooth="yes"/>
      <point x="22" y="250" type="line" smooth="yes"/>
      <point x="19" y="228" type="line" smooth="yes"/>
      <point x="33" y="101" type="line" smooth="yes"/>
      <point x="116" y="17" type="line" smooth="yes"/>
      <point x="269" y="-13" type="line" smooth="yes"/>
      <point x="417" y="20" type="line" smooth="yes"/>
      <point x="503" y="100" type="line" smooth="yes"/>
      <point x="538" y="199" type="line" smooth="yes"/>
      <point x="541" y="221" type="line" smooth="yes"/>
      <point x="539" y="301" type="line" smooth="yes"/>
      <point x="510" y="362" type="line" smooth="yes"/>
      <point x="458" y="397" type="line" smooth="yes"/>
      <point x="516" y="427" type="line" smooth="yes"/>
      <point x="557" y="481" type="line" smooth="yes"/>
      <point x="579" y="555" type="line" smooth="yes"/>
      <point x="582" y="577" type="line" smooth="yes"/>
      <point x="568" y="679" type="line" smooth="yes"/>
      <point x="490" y="760" type="line" smooth="yes"/>
      <point x="340" y="793" type="line" smooth="yes"/>
      <point x="201" y="764" type="line" smooth="yes"/>
      <point x="111" y="680" type="line" smooth="yes"/>
      <point x="66" y="542" type="line" smooth="yes"/>
      <point x="63" y="520" type="line" smooth="yes"/>
      <point x="223" y="520" type="line" smooth="yes"/>
      <point x="245" y="598" type="line" smooth="yes"/>
      <point x="283" y="641" type="line" smooth="yes"/>
      <point x="335" y="653" type="line" smooth="yes"/>
      <point x="345" y="653" type="line" smooth="yes"/>
      <point x="388" y="642" type="line" smooth="yes"/>
      <point x="415" y="612" type="line" smooth="yes"/>
      <point x="420" y="566" type="line" smooth="yes"/>
      <point x="419" y="558" type="line" smooth="yes"/>
      <point x="402" y="508" type="line" smooth="yes"/>
      <point x="366" y="478" type="line" smooth="yes"/>
      <point x="315" y="468" type="line" smooth="yes"/>
      <point x="211" y="468" type="line" smooth="yes"/>
      <point x="193" y="328" type="line" smooth="yes"/>
      <point x="299" y="328" type="line" smooth="yes"/>
      <point x="349" y="317" type="line" smooth="yes"/>
      <point x="377" y="285" type="line" smooth="yes"/>
      <point x="381" y="231" type="line" smooth="yes"/>
      <point x="380" y="223" type="line" smooth="yes"/>
      <point x="360" y="167" type="line" smooth="yes"/>
      <point x="322" y="136" type="line" smooth="yes"/>
      <point x="274" y="127" type="line" smooth="yes"/>
      <point x="264" y="127" type="line" smooth="yes"/>
      <point x="216" y="137" type="line" smooth="yes"/>
      <point x="185" y="174" type="line" smooth="yes"/>
    </contour>
  </outline>
</glyph>
<glyph name="five" format="1">
  <advance width="600"/>
  <unicode hex="0035"/>
  <outline>
    <contour>
      <point x="22" y="250" type="line" smooth="yes"/>
      <point x="19" y="228" type="line" smooth="yes"/>
      <point x="33" y="101" type="line" smooth="yes"/>
      <point x="116" y="17" type="line" smooth="yes"/>
      <point x="269" y="-13" type="line" smooth="yes"/>
      <point x="404" y="17" type="line" smooth="yes"/>
      <point x="497" y="102" type="line" smooth="yes"/>
      <point x="542" y="235" type="line" smooth="yes"/>
      <point x="545" y="257" type="line" smooth="yes"/>
      <point x="533" y="386" type="line" smooth="yes"/>
      <point x="461" y="473" type="line" smooth="yes"/>
      <point x="335" y="506" type="line" smooth="yes"/>
      <point x="284" y="502" type="line" smooth="yes"/>
      <point x="238" y="488" type="line" smooth="yes"/>
      <point x="201" y="466" type="line" smooth="yes"/>
      <point x="232" y="640" type="line" smooth="yes"/>
      <point x="585" y="640" type="line" smooth="yes"/>
      <point x="604" y="780" type="line" smooth="yes"/>
      <point x="116" y="780" type="line" smooth="yes"/>
      <point x="41" y="353" type="line" smooth="yes"/>
      <point x="173" y="306" type="line" smooth="yes"/>
      <point x="205" y="340" type="line" smooth="yes"/>
      <point x="244" y="361" type="line" smooth="yes"/>
      <point x="286" y="367" type="line" smooth="yes"/>
      <point x="296" y="367" type="line" smooth="yes"/>
      <point x="344" y="355" type="line" smooth="yes"/>
      <point x="377" y="318" type="line" smooth="yes"/>
      <point x="384" y="251" type="line" smooth="yes"/>
      <point x="383" y="243" type="line" smooth="yes"/>
      <point x="361" y="176" type="line" smooth="yes"/>
      <point x="322" y="138" type="line" smooth="yes"/>
      <point x="274" y="127" type="line" smooth="yes"/>
      <point x="264" y="127" type="line" smooth="yes"/>
      <point x="216" y="137" type="line" smooth="yes"/>
      <point x="185" y="174" type="line" smooth="yes"/>
      <point x="182" y="250" type="line" smooth="yes"/>
    </contour>
  </outline>
</glyph>
<glyph name="six" format="1">
  <advance width="600"/>
  <unicode hex="0036"/>
  <outline>
    <contour>
      <point x="189" y="293" type="line" smooth="yes"/>
      <point x="221" y="326" type="line" smooth="yes"/>
      <point x="257" y="345" type="line" smooth="yes"/>
      <point x="294" y="352" type="line" smooth="yes"/>
      <point x="304" y="352" type="line" smooth="yes"/>
      <point x="349" y="341" type="line" smooth="yes"/>
      <point x="380" y="308" type="line" smooth="yes"/>
      <point x="386" y="251" type="line" smooth="yes"/>
      <point x="385" y="243" type="line" smooth="yes"/>
      <point x="364" y="176" type="line" smooth="yes"/>
      <point x="326" y="138" type="line" smooth="yes"/>
      <point x="273" y="127" type="line" smooth="yes"/>
      <point x="263" y="127" type="line" smooth="yes"/>
      <point x="221" y="139" type="line" smooth="yes"/>
      <point x="192" y="174" type="line" smooth="yes"/>
      <point x="181" y="236" type="line" smooth="yes"/>
      <point x="182" y="254" type="line" smooth="yes"/>
      <point x="186" y="275" type="line" smooth="yes"/>
    </contour>
    <contour>
      <point x="578" y="793" type="line" smooth="yes"/>
      <point x="432" y="782" type="line" smooth="yes"/>
      <point x="302" y="740" type="line" smooth="yes"/>
      <point x="186" y="655" type="line" smooth="yes"/>
      <point x="103" y="540" type="line" smooth="yes"/>
      <point x="56" y="418" type="line" smooth="yes"/>
      <point x="33" y="304" type="line" smooth="yes"/>
      <point x="30" y="282" type="line" smooth="yes"/>
      <point x="40" y="130" type="line" smooth="yes"/>
      <point x="118" y="25" type="line" smooth="yes"/>
      <point x="268" y="-13" type="line" smooth="yes"/>
      <point x="408" y="17" type="line" smooth="yes"/>
      <point x="500" y="102" type="line" smooth="yes"/>
      <point x="544" y="235" type="line" smooth="yes"/>
      <point x="547" y="257" type="line" smooth="yes"/>
      <point x="537" y="382" type="line" smooth="yes"/>
      <point x="472" y="464" type="line" smooth="yes"/>
      <point x="362" y="493" type="line" smooth="yes"/>
      <point x="311" y="487" type="line" smooth="yes"/>
      <point x="264" y="472" type="line" smooth="yes"/>
      <point x="227" y="446" type="line" smooth="yes"/>
      <point x="244" y="490" type="line" smooth="yes"/>
      <point x="266" y="528" type="line" smooth="yes"/>
      <point x="294" y="560" type="line" smooth="yes"/>
      <point x="366" y="612" type="line" smooth="yes"/>
      <point x="455" y="641" type="line" smooth="yes"/>
      <point x="560" y="651" type="line" smooth="yes"/>
    </contour>
  </outline>
</glyph>
<glyph name="eight" format="1">
  <advance width="598"/>
  <unicode hex="0038"/>
  <outline>
    <contour>
      <point x="345" y="653" type="line" smooth="yes"/>
      <point x="387" y="642" type="line" smooth="yes"/>
      <point x="414" y="612" type="line" smooth="yes"/>
      <point x="420" y="566" type="line" smooth="yes"/>
      <point x="419" y="558" type="line" smooth="yes"/>
      <point x="402" y="508" type="line" smooth="yes"/>
      <point x="366" y="478" type="line" smooth="yes"/>
      <point x="315" y="468" type="line" smooth="yes"/>
      <point x="304" y="468" type="line" smooth="yes"/>
      <point x="262" y="478" type="line" smooth="yes"/>
      <point x="234" y="508" type="line" smooth="yes"/>
      <point x="227" y="554" type="line" smooth="yes"/>
      <point x="228" y="562" type="line" smooth="yes"/>
      <point x="246" y="612" type="line" smooth="yes"/>
      <point x="283" y="643" type="line" smooth="yes"/>
      <point x="335" y="653" type="line" smooth="yes"/>
    </contour>
    <contour>
      <point x="299" y="328" type="line" smooth="yes"/>
      <point x="348" y="317" type="line" smooth="yes"/>
      <point x="376" y="285" type="line" smooth="yes"/>
      <point x="381" y="231" type="line" smooth="yes"/>
      <point x="380" y="223" type="line" smooth="yes"/>
      <point x="360" y="167" type="line" smooth="yes"/>
      <point x="322" y="136" type="line" smooth="yes"/>
      <point x="274" y="127" type="line" smooth="yes"/>
      <point x="264" y="127" type="line" smooth="yes"/>
      <point x="216" y="137" type="line" smooth="yes"/>
      <point x="185" y="168" type="line" smooth="yes"/>
      <point x="179" y="219" type="line" smooth="yes"/>
      <point x="180" y="227" type="line" smooth="yes"/>
      <point x="199" y="283" type="line" smooth="yes"/>
      <point x="236" y="317" type="line" smooth="yes"/>
      <point x="285" y="328" type="line" smooth="yes"/>
    </contour>
    <contour>
      <point x="264" y="-13" type="line" smooth="yes"/>
      <point x="414" y="20" type="line" smooth="yes"/>
      <point x="502" y="100" type="line" smooth="yes"/>
      <point x="538" y="199" type="line" smooth="yes"/>
      <point x="541" y="221" type="line" smooth="yes"/>
      <point x="539" y="301" type="line" smooth="yes"/>
      <point x="510" y="362" type="line" smooth="yes"/>
      <point x="459" y="397" type="line" smooth="yes"/>
      <point x="516" y="427" type="line" smooth="yes"/>
      <point x="557" y="481" type="line" smooth="yes"/>
      <point x="579" y="555" type="line" smooth="yes"/>
      <point x="582" y="577" type="line" smooth="yes"/>
      <point x="567" y="679" type="line" smooth="yes"/>
      <point x="489" y="760" type="line" smooth="yes"/>
      <point x="338" y="793" type="line" smooth="yes"/>
      <point x="187" y="760" type="line" smooth="yes"/>
      <point x="104" y="680" type="line" smooth="yes"/>
      <point x="71" y="584" type="line" smooth="yes"/>
      <point x="68" y="562" type="line" smooth="yes"/>
      <point x="73" y="489" type="line" smooth="yes"/>
      <point x="103" y="430" type="line" smooth="yes"/>
      <point x="151" y="397" type="line" smooth="yes"/>
      <point x="89" y="364" type="line" smooth="yes"/>
      <point x="44" y="310" type="line" smooth="yes"/>
      <point x="20" y="231" type="line" smooth="yes"/>
      <point x="17" y="209" type="line" smooth="yes"/>
      <point x="34" y="99" type="line" smooth="yes"/>
      <point x="116" y="19" type="line" smooth="yes"/>
    </contour>
  </outline>
</glyph>
<glyph name="nine" format="1">
  <advance width="595"/>
  <unicode hex="0039"/>
  <outline>
    <contour>
      <point x="415" y="487" type="line" smooth="yes"/>
      <point x="383" y="454" type="line" smooth="yes"/>
      <point x="347" y="435" type="line" smooth="yes"/>
      <point x="310" y="428" type="line" smooth="yes"/>
      <point x="300" y="428" type="line" smooth="yes"/>
      <point x="255" y="439" type="line" smooth="yes"/>
      <point x="224" y="472" type="line" smooth="yes"/>
      <point x="218" y="529" type="line" smooth="yes"/>
      <point x="219" y="537" type="line" smooth="yes"/>
      <point x="240" y="604" type="line" smooth="yes"/>
      <point x="278" y="642" type="line" smooth="yes"/>
      <point x="331" y="653" type="line" smooth="yes"/>
      <point x="341" y="653" type="line" smooth="yes"/>
      <point x="383" y="641" type="line" smooth="yes"/>
      <point x="412" y="606" type="line" smooth="yes"/>
      <point x="423" y="544" type="line" smooth="yes"/>
      <point x="422" y="526" type="line" smooth="yes"/>
      <point x="418" y="505" type="line" smooth="yes"/>
    </contour>
    <contour>
      <point x="26" y="-13" type="line" smooth="yes"/>
      <point x="172" y="-2" type="line" smooth="yes"/>
      <point x="302" y="40" type="line" smooth="yes"/>
      <point x="418" y="125" type="line" smooth="yes"/>
      <point x="501" y="240" type="line" smooth="yes"/>
      <point x="548" y="362" type="line" smooth="yes"/>
      <point x="571" y="476" type="line" smooth="yes"/>
      <point x="574" y="498" type="line" smooth="yes"/>
      <point x="564" y="650" type="line" smooth="yes"/>
      <point x="486" y="755" type="line" smooth="yes"/>
      <point x="336" y="793" type="line" smooth="yes"/>
      <point x="196" y="763" type="line" smooth="yes"/>
      <point x="104" y="678" type="line" smooth="yes"/>
      <point x="60" y="545" type="line" smooth="yes"/>
      <point x="57" y="523" type="line" smooth="yes"/>
      <point x="67" y="398" type="line" smooth="yes"/>
      <point x="132" y="316" type="line" smooth="yes"/>
      <point x="242" y="287" type="line" smooth="yes"/>
      <point x="293" y="293" type="line" smooth="yes"/>
      <point x="340" y="308" type="line" smooth="yes"/>
      <point x="377" y="334" type="line" smooth="yes"/>
      <point x="360" y="290" type="line" smooth="yes"/>
      <point x="338" y="252" type="line" smooth="yes"/>
      <point x="310" y="220" type="line" smooth="yes"/>
      <point x="238" y="168" type="line" smooth="yes"/>
      <point x="149" y="139" type="line" smooth="yes"/>
      <point x="44" y="129" type="line" smooth="yes"/>
    </contour>
  </outline>
</glyph>
<glyph name="colon" format="1">
  <advance width="266"/>
  <unicode hex="003A"/>
  <outline>
    <contour>
      <point x="231" y="474" type="line" smooth="yes"/>
      <point x="64" y="474" type="line" smooth="yes"/>
      <point x="42" y="307" type="line" smooth="yes"/>
      <point x="209" y="307" type="line" smooth="yes"/>
    </contour>
    <contour>
      <point x="190" y="167" type="line" smooth="yes"/>
      <point x="23" y="167" type="line" smooth="yes"/>
      <point x="1" y="0" type="line" smooth="yes"/>
      <point x="168" y="0" type="line" smooth="yes"/>
    </contour>
  </outline>
</glyph>
<glyph name="semicolon" format="1">
  <advance width="266"/>
  <unicode hex="003B"/>
  <outline>
    <contour>
      <point x="190" y="167" type="line" smooth="yes"/>
      <point x="23" y="167" type="line" smooth="yes"/>
      <point x="1" y="0" type="line" smooth="yes"/>
      <point x="86" y="0" type="line" smooth="yes"/>
      <point x="67" y="-37" type="line" smooth="yes"/>
      <point x="33" y="-60" type="line" smooth="yes"/>
      <point x="-12" y="-67" type="line" smooth="yes"/>
      <point x="-22" y="-143" type="line" smooth="yes"/>
      <point x="75" y="-124" type="line" smooth="yes"/>
      <point x="140" y="-64" type="line" smooth="yes"/>
      <point x="173" y="37" type="line" smooth="yes"/>
    </contour>
    <contour>
      <point x="231" y="474" type="line" smooth="yes"/>
      <point x="64" y="474" type="line" smooth="yes"/>
      <point x="42" y="307" type="line" smooth="yes"/>
      <point x="209" y="307" type="line" smooth="yes"/>
    </contour>
  </outline>
</glyph>
<glyph name="question" format="1">
  <advance width="497"/>
  <unicode hex="003F"/>
  <outline>
    <contour>
      <point x="301" y="167" type="line" smooth="yes"/>
      <point x="134" y="167" type="line" smooth="yes"/>
      <point x="112" y="0" type="line" smooth="yes"/>
      <point x="279" y="0" type="line" smooth="yes"/>
    </contour>
    <contour>
      <point x="290" y="654" type="line" smooth="yes"/>
      <point x="324" y="647" type="line" smooth="yes"/>
      <point x="342" y="628" type="line" smooth="yes"/>
      <point x="348" y="598" type="line" smooth="yes"/>
      <point x="302" y="494" type="line" smooth="yes"/>
      <point x="215" y="380" type="line" smooth="yes"/>
      <point x="169" y="228" type="line" smooth="yes"/>
      <point x="281" y="228" type="line" smooth="yes"/>
      <point x="352" y="361" type="line" smooth="yes"/>
      <point x="456" y="469" type="line" smooth="yes"/>
      <point x="510" y="625" type="line" smooth="yes"/>
      <point x="492" y="709" type="line" smooth="yes"/>
      <point x="426" y="770" type="line" smooth="yes"/>
      <point x="295" y="793" type="line" smooth="yes"/>
      <point x="165" y="764" type="line" smooth="yes"/>
      <point x="82" y="679" type="line" smooth="yes"/>
      <point x="42" y="539" type="line" smooth="yes"/>
      <point x="39" y="516" type="line" smooth="yes"/>
      <point x="198" y="516" type="line" smooth="yes"/>
      <point x="215" y="595" type="line" smooth="yes"/>
      <point x="245" y="640" type="line" smooth="yes"/>
    </contour>
  </outline>
</glyph>
<glyph name="at" format="1">
  <advance width="986"/>
  <unicode hex="0040"/>
  <outline>
    <contour>
      <point x="563" y="374" type="line" smooth="yes"/>
      <point x="542" y="216" type="line" smooth="yes"/>
      <point x="522" y="195" type="line" smooth="yes"/>
      <point x="491" y="177" type="line" smooth="yes"/>
      <point x="452" y="169" type="line" smooth="yes"/>
      <point x="406" y="182" type="line" smooth="yes"/>
      <point x="383" y="220" type="line" smooth="yes"/>
      <point x="382" y="278" type="line" smooth="yes"/>
      <point x="387" y="316" type="line" smooth="yes"/>
      <point x="403" y="373" type="line" smooth="yes"/>
      <point x="435" y="409" type="line" smooth="yes"/>
      <point x="482" y="421" type="line" smooth="yes"/>
      <point x="521" y="413" type="line" smooth="yes"/>
      <point x="548" y="395" type="line" smooth="yes"/>
    </contour>
    <contour>
      <point x="464" y="-110" type="line" smooth="yes"/>
      <point x="267" y="-66" type="line" smooth="yes"/>
      <point x="143" y="64" type="line" smooth="yes"/>
      <point x="118" y="278" type="line" smooth="yes"/>
      <point x="123" y="316" type="line" smooth="yes"/>
      <point x="196" y="525" type="line" smooth="yes"/>
      <point x="338" y="649" type="line" smooth="yes"/>
      <point x="534" y="690" type="line" smooth="yes"/>
      <point x="544" y="690" type="line" smooth="yes"/>
      <point x="708" y="664" type="line" smooth="yes"/>
      <point x="830" y="574" type="line" smooth="yes"/>
      <point x="862" y="400" type="line" smooth="yes"/>
      <point x="857" y="362" type="line" smooth="yes"/>
      <point x="825" y="242" type="line" smooth="yes"/>
      <point x="766" y="180" type="line" smooth="yes"/>
      <point x="672" y="162" type="line" smooth="yes"/>
      <point x="702" y="393" type="line" smooth="yes"/>
      <point x="728" y="530" type="line" smooth="yes"/>
      <point x="606" y="530" type="line" smooth="yes"/>
      <point x="590" y="471" type="line" smooth="yes"/>
      <point x="561" y="508" type="line" smooth="yes"/>
      <point x="516" y="534" type="line" smooth="yes"/>
      <point x="455" y="543" type="line" smooth="yes"/>
      <point x="350" y="514" type="line" smooth="yes"/>
      <point x="279" y="434" type="line" smooth="yes"/>
      <point x="243" y="316" type="line" smooth="yes"/>
      <point x="238" y="278" type="line" smooth="yes"/>
      <point x="243" y="159" type="line" smooth="yes"/>
      <point x="296" y="77" type="line" smooth="yes"/>
      <point x="400" y="47" type="line" smooth="yes"/>
      <point x="457" y="56" type="line" smooth="yes"/>
      <point x="504" y="82" type="line" smooth="yes"/>
      <point x="541" y="119" type="line" smooth="yes"/>
      <point x="544" y="60" type="line" smooth="yes"/>
      <point x="639" y="60" type="line" smooth="yes"/>
      <point x="785" y="85" type="line" smooth="yes"/>
      <point x="898" y="177" type="line" smooth="yes"/>
      <point x="962" y="362" type="line" smooth="yes"/>
      <point x="967" y="400" type="line" smooth="yes"/>
      <point x="929" y="623" type="line" smooth="yes"/>
      <point x="772" y="752" type="line" smooth="yes"/>
      <point x="539" y="793" type="line" smooth="yes"/>
      <point x="296" y="740" type="line" smooth="yes"/>
      <point x="113" y="580" type="line" smooth="yes"/>
      <point x="18" y="316" type="line" smooth="yes"/>
      <point x="13" y="278" type="line" smooth="yes"/>
      <point x="45" y="13" type="line" smooth="yes"/>
      <point x="207" y="-154" type="line" smooth="yes"/>
      <point x="469" y="-213" type="line" smooth="yes"/>
      <point x="579" y="-203" type="line" smooth="yes"/>
      <point x="709" y="-164" type="line" smooth="yes"/>
      <point x="850" y="-82" type="line" smooth="yes"/>
      <point x="798" y="0" type="line" smooth="yes"/>
      <point x="699" y="-59" type="line" smooth="yes"/>
      <point x="591" y="-97" type="line" smooth="yes"/>
      <point x="474" y="-110" type="line" smooth="yes"/>
    </contour>
  </outline>
</glyph>
<glyph name="G" format="1">
  <advance width="669"/>
  <unicode hex="0047"/>
  <outline>
    <contour>
      <point x="314" y="-13" type="line" smooth="yes"/>
      <point x="430" y="1" type="line" smooth="yes"/>
      <point x="521" y="35" type="line" smooth="yes"/>
      <point x="583" y="77" type="line" smooth="yes"/>
      <point x="628" y="422" type="line" smooth="yes"/>
      <point x="363" y="422" type="line" smooth="yes"/>
      <point x="345" y="282" type="line" smooth="yes"/>
      <point x="448" y="282" type="line" smooth="yes"/>
      <point x="431" y="154" type="line" smooth="yes"/>
      <point x="405" y="140" type="line" smooth="yes"/>
      <point x="369" y="130" type="line" smooth="yes"/>
      <point x="325" y="127" type="line" smooth="yes"/>
      <point x="315" y="127" type="line" smooth="yes"/>
      <point x="238" y="156" type="line" smooth="yes"/>
      <point x="202" y="240" type="line" smooth="yes"/>
      <point x="203" y="374" type="line" smooth="yes"/>
      <point x="207" y="407" type="line" smooth="yes"/>
      <point x="237" y="540" type="line" smooth="yes"/>
      <point x="290" y="624" type="line" smooth="yes"/>
      <point x="367" y="653" type="line" smooth="yes"/>
      <point x="377" y="653" type="line" smooth="yes"/>
      <point x="443" y="634" type="line" smooth="yes"/>
      <point x="473" y="578" type="line" smooth="yes"/>
      <point x="473" y="484" type="line" smooth="yes"/>
      <point x="636" y="484" type="line" smooth="yes"/>
      <point x="640" y="516" type="line" smooth="yes"/>
      <point x="627" y="670" type="line" smooth="yes"/>
      <point x="540" y="762" type="line" smooth="yes"/>
      <point x="376" y="793" type="line" smooth="yes"/>
      <point x="211" y="753" type="line" smooth="yes"/>
      <point x="101" y="627" type="line" smooth="yes"/>
      <point x="42" y="406" type="line" smooth="yes"/>
      <point x="38" y="374" type="line" smooth="yes"/>
      <point x="52" y="153" type="line" smooth="yes"/>
      <point x="149" y="27" type="line" smooth="yes"/>
    </contour>
  </outline>
</glyph>
<glyph name="J" format="1">
  <advance width="537"/>
  <unicode hex="004A"/>
  <outline>
    <contour>
      <point x="377" y="780" type="line" smooth="yes"/>
      <point x="309" y="252" type="line" smooth="yes"/>
      <point x="293" y="178" type="line" smooth="yes"/>
      <point x="265" y="139" type="line" smooth="yes"/>
      <point x="219" y="127" type="line" smooth="yes"/>
      <point x="176" y="141" type="line" smooth="yes"/>
      <point x="159" y="187" type="line" smooth="yes"/>
      <point x="162" y="266" type="line" smooth="yes"/>
      <point x="8" y="266" type="line" smooth="yes"/>
      <point x="4" y="234" type="line" smooth="yes"/>
      <point x="12" y="100" type="line" smooth="yes"/>
      <point x="80" y="16" type="line" smooth="yes"/>
      <point x="217" y="-13" type="line" smooth="yes"/>
      <point x="349" y="15" type="line" smooth="yes"/>
      <point x="429" y="99" type="line" smooth="yes"/>
      <point x="469" y="239" type="line" smooth="yes"/>
      <point x="539" y="780" type="line" smooth="yes"/>
    </contour>
  </outline>
</glyph>
<glyph name="K" format="1">
  <advance width="625"/>
  <unicode hex="004B"/>
  <outline>
    <contour>
      <point x="271" y="780" type="line" smooth="yes"/>
      <point x="109" y="780" type="line" smooth="yes"/>
      <point x="7" y="0" type="line" smooth="yes"/>
      <point x="169" y="0" type="line" smooth="yes"/>
      <point x="197" y="225" type="line" smooth="yes"/>
      <point x="278" y="322" type="line" smooth="yes"/>
      <point x="378" y="0" type="line" smooth="yes"/>
      <point x="557" y="0" type="line" smooth="yes"/>
      <point x="398" y="467" type="line" smooth="yes"/>
      <point x="659" y="780" type="line" smooth="yes"/>
      <point x="462" y="780" type="line" smooth="yes"/>
      <point x="230" y="479" type="line" smooth="yes"/>
    </contour>
  </outline>
</glyph>
<glyph name="N" format="1">
  <advance width="683"/>
  <unicode hex="004E"/>
  <outline>
    <contour>
      <point x="109" y="780" type="line" smooth="yes"/>
      <point x="7" y="0" type="line" smooth="yes"/>
      <point x="162" y="0" type="line" smooth="yes"/>
      <point x="204" y="322" type="line" smooth="yes"/>
      <point x="221" y="484" type="line" smooth="yes"/>
      <point x="409" y="0" type="line" smooth="yes"/>
      <point x="578" y="0" type="line" smooth="yes"/>
      <point x="680" y="780" type="line" smooth="yes"/>
      <point x="525" y="780" type="line" smooth="yes"/>
      <point x="483" y="458" type="line" smooth="yes"/>
      <point x="466" y="296" type="line" smooth="yes"/>
      <point x="278" y="780" type="line" smooth="yes"/>
    </contour>
  </outline>
</glyph>
<glyph name="P" format="1">
  <advance width="605"/>
  <unicode hex="0050"/>
  <outline>
    <contour>
      <point x="223" y="420" type="line" smooth="yes"/>
      <point x="253" y="640" type="line" smooth="yes"/>
      <point x="353" y="640" type="line" smooth="yes"/>
      <point x="398" y="632" type="line" smooth="yes"/>
      <point x="433" y="601" type="line" smooth="yes"/>
      <point x="441" y="534" type="line" smooth="yes"/>
      <point x="439" y="519" type="line" smooth="yes"/>
      <point x="414" y="456" type="line" smooth="yes"/>
      <point x="372" y="427" type="line" smooth="yes"/>
      <point x="325" y="420" type="line" smooth="yes"/>
    </contour>
    <contour>
      <point x="206" y="280" type="line" smooth="yes"/>
      <point x="310" y="280" type="line" smooth="yes"/>
      <point x="436" y="295" type="line" smooth="yes"/>
      <point x="542" y="363" type="line" smooth="yes"/>
      <point x="602" y="515" type="line" smooth="yes"/>
      <point x="605" y="538" type="line" smooth="yes"/>
      <point x="587" y="686" type="line" smooth="yes"/>
      <point x="500" y="760" type="line" smooth="yes"/>
      <point x="372" y="780" type="line" smooth="yes"/>
      <point x="109" y="780" type="line" smooth="yes"/>
      <point x="7" y="0" type="line" smooth="yes"/>
      <point x="169" y="0" type="line" smooth="yes"/>
    </contour>
  </outline>
</glyph>
<glyph name="Q" format="1">
  <advance width="666"/>
  <unicode hex="0051"/>
  <outline>
    <contour>
      <point x="372" y="262" type="line" smooth="yes"/>
      <point x="250" y="262" type="line" smooth="yes"/>
      <point x="284" y="128" type="line" smooth="yes"/>
      <point x="220" y="163" type="line" smooth="yes"/>
      <point x="196" y="246" type="line" smooth="yes"/>
      <point x="203" y="374" type="line" smooth="yes"/>
      <point x="207" y="406" type="line" smooth="yes"/>
      <point x="235" y="540" type="line" smooth="yes"/>
      <point x="286" y="624" type="line" smooth="yes"/>
      <point x="367" y="653" type="line" smooth="yes"/>
      <point x="377" y="653" type="line" smooth="yes"/>
      <point x="451" y="624" type="line" smooth="yes"/>
      <point x="479" y="540" type="line" smooth="yes"/>
      <point x="473" y="406" type="line" smooth="yes"/>
      <point x="469" y="374" type="line" smooth="yes"/>
      <point x="453" y="285" type="line" smooth="yes"/>
      <point x="430" y="214" type="line" smooth="yes"/>
      <point x="398" y="164" type="line" smooth="yes"/>
    </contour>
    <contour>
      <point x="376" y="793" type="line" smooth="yes"/>
      <point x="207" y="753" type="line" smooth="yes"/>
      <point x="99" y="627" type="line" smooth="yes"/>
      <point x="42" y="406" type="line" smooth="yes"/>
      <point x="38" y="374" type="line" smooth="yes"/>
      <point x="46" y="153" type="line" smooth="yes"/>
      <point x="134" y="27" type="line" smooth="yes"/>
      <point x="300" y="-13" type="line" smooth="yes"/>
      <point x="320" y="-13" type="line" smooth="yes"/>
      <point x="342" y="-100" type="line" smooth="yes"/>
      <point x="468" y="-100" type="line" smooth="yes"/>
      <point x="438" y="12" type="line" smooth="yes"/>
      <point x="533" y="81" type="line" smooth="yes"/>
      <point x="597" y="201" type="line" smooth="yes"/>
      <point x="634" y="374" type="line" smooth="yes"/>
      <point x="638" y="406" type="line" smooth="yes"/>
      <point x="630" y="627" type="line" smooth="yes"/>
      <point x="542" y="753" type="line" smooth="yes"/>
    </contour>
  </outline>
</glyph>
<glyph name="U" format="1">
  <advance width="663"/>
  <unicode hex="0055"/>
  <outline>
    <contour>
      <point x="293" y="-13" type="line" smooth="yes"/>
      <point x="461" y="17" type="line" smooth="yes"/>
      <point x="554" y="104" type="line" smooth="yes"/>
      <point x="595" y="247" type="line" smooth="yes"/>
      <point x="665" y="780" type="line" smooth="yes"/>
      <point x="503" y="780" type="line" smooth="yes"/>
      <point x="434" y="252" type="line" smooth="yes"/>
      <point x="414" y="182" type="line" smooth="yes"/>
      <point x="371" y="141" type="line" smooth="yes"/>
      <point x="297" y="127" type="line" smooth="yes"/>
      <point x="228" y="141" type="line" smooth="yes"/>
      <point x="198" y="183" type="line" smooth="yes"/>
      <point x="197" y="252" type="line" smooth="yes"/>
      <point x="266" y="780" type="line" smooth="yes"/>
      <point x="104" y="780" type="line" smooth="yes"/>
      <point x="34" y="247" type="line" smooth="yes"/>
      <point x="44" y="104" type="line" smooth="yes"/>
      <point x="127" y="17" type="line" smooth="yes"/>
    </contour>
  </outline>
</glyph>
<glyph name="bracketleft" format="1">
  <advance width="365"/>
  <unicode hex="005B"/>
  <outline>
    <contour>
      <point x="119" y="840" type="line" smooth="yes"/>
      <point x="-7" y="-120" type="line" smooth="yes"/>
      <point x="267" y="-120" type="line" smooth="yes"/>
      <point x="285" y="18" type="line" smooth="yes"/>
      <point x="168" y="18" type="line" smooth="yes"/>
      <point x="258" y="702" type="line" smooth="yes"/>
      <point x="375" y="702" type="line" smooth="yes"/>
      <point x="393" y="840" type="line" smooth="yes"/>
    </contour>
  </outline>
</glyph>
<glyph name="b" format="1">
  <advance width="569"/>
  <unicode hex="0062"/>
  <outline>
    <contour>
      <point x="265" y="123" type="line" smooth="yes"/>
      <point x="225" y="132" type="line" smooth="yes"/>
      <point x="199" y="153" type="line" smooth="yes"/>
      <point x="184" y="175" type="line" smooth="yes"/>
      <point x="208" y="358" type="line" smooth="yes"/>
      <point x="227" y="379" type="line" smooth="yes"/>
      <point x="257" y="399" type="line" smooth="yes"/>
      <point x="300" y="407" type="line" smooth="yes"/>
      <point x="348" y="393" type="line" smooth="yes"/>
      <point x="373" y="352" type="line" smooth="yes"/>
      <point x="374" y="284" type="line" smooth="yes"/>
      <point x="369" y="246" type="line" smooth="yes"/>
      <point x="351" y="179" type="line" smooth="yes"/>
      <point x="317" y="137" type="line" smooth="yes"/>
    </contour>
    <contour>
      <point x="266" y="800" type="line" smooth="yes"/>
      <point x="108" y="800" type="line" smooth="yes"/>
      <point x="23" y="150" type="line" smooth="yes"/>
      <point x="-5" y="0" type="line" smooth="yes"/>
      <point x="137" y="0" type="line" smooth="yes"/>
      <point x="155" y="65" type="line" smooth="yes"/>
      <point x="187" y="24" type="line" smooth="yes"/>
      <point x="236" y="-3" type="line" smooth="yes"/>
      <point x="302" y="-13" type="line" smooth="yes"/>
      <point x="417" y="20" type="line" smooth="yes"/>
      <point x="490" y="111" type="line" smooth="yes"/>
      <point x="527" y="246" type="line" smooth="yes"/>
      <point x="532" y="284" type="line" smooth="yes"/>
      <point x="527" y="421" type="line" smooth="yes"/>
      <point x="471" y="511" type="line" smooth="yes"/>
      <point x="362" y="543" type="line" smooth="yes"/>
      <point x="305" y="536" type="line" smooth="yes"/>
      <point x="260" y="517" type="line" smooth="yes"/>
      <point x="225" y="488" type="line" smooth="yes"/>
    </contour>
  </outline>
</glyph>
<glyph name="c" format="1">
  <advance width="524"/>
  <unicode hex="0063"/>
  <outline>
    <contour>
      <point x="176" y="284" type="line" smooth="yes"/>
      <point x="195" y="354" type="line" smooth="yes"/>
      <point x="230" y="394" type="line" smooth="yes"/>
      <point x="277" y="407" type="line" smooth="yes"/>
      <point x="319" y="396" type="line" smooth="yes"/>
      <point x="340" y="366" type="line" smooth="yes"/>
      <point x="342" y="324" type="line" smooth="yes"/>
      <point x="491" y="324" type="line" smooth="yes"/>
      <point x="493" y="339" type="line" smooth="yes"/>
      <point x="481" y="449" type="line" smooth="yes"/>
      <point x="410" y="519" type="line" smooth="yes"/>
      <point x="282" y="543" type="line" smooth="yes"/>
      <point x="145" y="511" type="line" smooth="yes"/>
      <point x="59" y="420" type="line" smooth="yes"/>
      <point x="18" y="284" type="line" smooth="yes"/>
      <point x="13" y="246" type="line" smooth="yes"/>
      <point x="24" y="112" type="line" smooth="yes"/>
      <point x="97" y="21" type="line" smooth="yes"/>
      <point x="235" y="-13" type="line" smooth="yes"/>
      <point x="358" y="10" type="line" smooth="yes"/>
      <point x="436" y="76" type="line" smooth="yes"/>
      <point x="472" y="181" type="line" smooth="yes"/>
      <point x="474" y="196" type="line" smooth="yes"/>
      <point x="325" y="196" type="line" smooth="yes"/>
      <point x="312" y="160" type="line" smooth="yes"/>
      <point x="284" y="133" type="line" smooth="yes"/>
      <point x="240" y="123" type="line" smooth="yes"/>
      <point x="193" y="137" type="line" smooth="yes"/>
      <point x="170" y="179" type="line" smooth="yes"/>
      <point x="171" y="246" type="line" smooth="yes"/>
    </contour>
  </outline>
</glyph>
<glyph name="d" format="1">
  <advance width="582"/>
  <unicode hex="0064"/>
  <outline>
    <contour>
      <point x="287" y="407" type="line" smooth="yes"/>
      <point x="327" y="398" type="line" smooth="yes"/>
      <point x="353" y="377" type="line" smooth="yes"/>
      <point x="368" y="355" type="line" smooth="yes"/>
      <point x="344" y="172" type="line" smooth="yes"/>
      <point x="325" y="151" type="line" smooth="yes"/>
      <point x="295" y="131" type="line" smooth="yes"/>
      <point x="252" y="123" type="line" smooth="yes"/>
      <point x="204" y="137" type="line" smooth="yes"/>
      <point x="179" y="178" type="line" smooth="yes"/>
      <point x="178" y="246" type="line" smooth="yes"/>
      <point x="183" y="284" type="line" smooth="yes"/>
      <point x="201" y="351" type="line" smooth="yes"/>
      <point x="235" y="393" type="line" smooth="yes"/>
    </contour>
    <contour>
      <point x="190" y="-13" type="line" smooth="yes"/>
      <point x="260" y="-2" type="line" smooth="yes"/>
      <point x="311" y="27" type="line" smooth="yes"/>
      <point x="348" y="70" type="line" smooth="yes"/>
      <point x="348" y="0" type="line" smooth="yes"/>
      <point x="489" y="0" type="line" smooth="yes"/>
      <point x="499" y="149" type="line" smooth="yes"/>
      <point x="585" y="800" type="line" smooth="yes"/>
      <point x="427" y="800" type="line" smooth="yes"/>
      <point x="385" y="484" type="line" smooth="yes"/>
      <point x="360" y="510" type="line" smooth="yes"/>
      <point x="315" y="533" type="line" smooth="yes"/>
      <point x="250" y="543" type="line" smooth="yes"/>
      <point x="135" y="510" type="line" smooth="yes"/>
      <point x="62" y="419" type="line" smooth="yes"/>
      <point x="25" y="284" type="line" smooth="yes"/>
      <point x="20" y="246" type="line" smooth="yes"/>
      <point x="25" y="109" type="line" smooth="yes"/>
      <point x="81" y="19" type="line" smooth="yes"/>
    </contour>
  </outline>
</glyph>
<glyph name="f" format="1">
  <advance width="411"/>
  <unicode hex="0066"/>
  <outline>
    <contour>
      <point x="288" y="606" type="line" smooth="yes"/>
      <point x="304" y="651" type="line" smooth="yes"/>
      <point x="333" y="672" type="line" smooth="yes"/>
      <point x="372" y="677" type="line" smooth="yes"/>
      <point x="395" y="676" type="line" smooth="yes"/>
      <point x="412" y="673" type="line" smooth="yes"/>
      <point x="422" y="670" type="line" smooth="yes"/>
      <point x="439" y="800" type="line" smooth="yes"/>
      <point x="424" y="805" type="line" smooth="yes"/>
      <point x="395" y="811" type="line" smooth="yes"/>
      <point x="352" y="813" type="line" smooth="yes"/>
      <point x="246" y="794" type="line" smooth="yes"/>
      <point x="171" y="734" type="line" smooth="yes"/>
      <point x="132" y="623" type="line" smooth="yes"/>
      <point x="120" y="530" type="line" smooth="yes"/>
      <point x="38" y="530" type="line" smooth="yes"/>
      <point x="20" y="392" type="line" smooth="yes"/>
      <point x="102" y="392" type="line" smooth="yes"/>
      <point x="51" y="0" type="line" smooth="yes"/>
      <point x="209" y="0" type="line" smooth="yes"/>
      <point x="260" y="392" type="line" smooth="yes"/>
      <point x="376" y="392" type="line" smooth="yes"/>
      <point x="394" y="530" type="line" smooth="yes"/>
      <point x="278" y="530" type="line" smooth="yes"/>
    </contour>
  </outline>
</glyph>
<glyph name="h" format="1">
  <advance width="577"/>
  <unicode hex="0068"/>
  <outline>
    <contour>
      <point x="5" y="0" type="line" smooth="yes"/>
      <point x="163" y="0" type="line" smooth="yes"/>
      <point x="210" y="358" type="line" smooth="yes"/>
      <point x="233" y="380" type="line" smooth="yes"/>
      <point x="268" y="399" type="line" smooth="yes"/>
      <point x="310" y="407" type="line" smooth="yes"/>
      <point x="348" y="399" type="line" smooth="yes"/>
      <point x="367" y="374" type="line" smooth="yes"/>
      <point x="369" y="335" type="line" smooth="yes"/>
      <point x="325" y="0" type="line" smooth="yes"/>
      <point x="483" y="0" type="line" smooth="yes"/>
      <point x="530" y="358" type="line" smooth="yes"/>
      <point x="524" y="453" type="line" smooth="yes"/>
      <point x="475" y="519" type="line" smooth="yes"/>
      <point x="375" y="543" type="line" smooth="yes"/>
      <point x="319" y="535" type="line" smooth="yes"/>
      <point x="269" y="514" type="line" smooth="yes"/>
      <point x="226" y="482" type="line" smooth="yes"/>
      <point x="268" y="800" type="line" smooth="yes"/>
      <point x="110" y="800" type="line" smooth="yes"/>
    </contour>
  </outline>
</glyph>
<glyph name="j" format="1">
  <advance width="268"/>
  <unicode hex="006A"/>
  <outline>
    <contour>
      <point x="4" y="-6" type="line" smooth="yes"/>
      <point x="-12" y="-51" type="line" smooth="yes"/>
      <point x="-41" y="-72" type="line" smooth="yes"/>
      <point x="-80" y="-77" type="line" smooth="yes"/>
      <point x="-103" y="-76" type="line" smooth="yes"/>
      <point x="-120" y="-73" type="line" smooth="yes"/>
      <point x="-130" y="-70" type="line" smooth="yes"/>
      <point x="-147" y="-200" type="line" smooth="yes"/>
      <point x="-132" y="-205" type="line" smooth="yes"/>
      <point x="-103" y="-211" type="line" smooth="yes"/>
      <point x="-60" y="-213" type="line" smooth="yes"/>
      <point x="46" y="-194" type="line" smooth="yes"/>
      <point x="121" y="-134" type="line" smooth="yes"/>
      <point x="160" y="-23" type="line" smooth="yes"/>
      <point x="232" y="530" type="line" smooth="yes"/>
      <point x="74" y="530" type="line" smooth="yes"/>
    </contour>
    <contour>
      <point x="268" y="772" type="line" smooth="yes"/>
      <point x="101" y="772" type="line" smooth="yes"/>
      <point x="79" y="605" type="line" smooth="yes"/>
      <point x="246" y="605" type="line" smooth="yes"/>
    </contour>
  </outline>
</glyph>
<glyph name="n" format="1">
  <advance width="577"/>
  <unicode hex="006E"/>
  <outline>
    <contour>
      <point x="483" y="0" type="line" smooth="yes"/>
      <point x="530" y="358" type="line" smooth="yes"/>
      <point x="524" y="453" type="line" smooth="yes"/>
      <point x="475" y="519" type="line" smooth="yes"/>
      <point x="375" y="543" type="line" smooth="yes"/>
      <point x="309" y="532" type="line" smooth="yes"/>
      <point x="252" y="503" type="line" smooth="yes"/>
      <point x="206" y="460" type="line" smooth="yes"/>
      <point x="206" y="530" type="line" smooth="yes"/>
      <point x="65" y="530" type="line" smooth="yes"/>
      <point x="55" y="381" type="line" smooth="yes"/>
      <point x="5" y="0" type="line" smooth="yes"/>
      <point x="163" y="0" type="line" smooth="yes"/>
      <point x="210" y="358" type="line" smooth="yes"/>
      <point x="233" y="380" type="line" smooth="yes"/>
      <point x="268" y="399" type="line" smooth="yes"/>
      <point x="310" y="407" type="line" smooth="yes"/>
      <point x="348" y="399" type="line" smooth="yes"/>
      <point x="367" y="374" type="line" smooth="yes"/>
      <point x="369" y="335" type="line" smooth="yes"/>
      <point x="325" y="0" type="line" smooth="yes"/>
    </contour>
  </outline>
</glyph>
<glyph name="p" format="1">
  <advance width="569"/>
  <unicode hex="0070"/>
  <outline>
    <contour>
      <point x="265" y="123" type="line" smooth="yes"/>
      <point x="225" y="132" type="line" smooth="yes"/>
      <point x="199" y="153" type="line" smooth="yes"/>
      <point x="184" y="175" type="line" smooth="yes"/>
      <point x="208" y="358" type="line" smooth="yes"/>
      <point x="227" y="379" type="line" smooth="yes"/>
      <point x="257" y="399" type="line" smooth="yes"/>
      <point x="300" y="407" type="line" smooth="yes"/>
      <point x="348" y="393" type="line" smooth="yes"/>
      <point x="373" y="352" type="line" smooth="yes"/>
      <point x="374" y="284" type="line" smooth="yes"/>
      <point x="369" y="246" type="line" smooth="yes"/>
      <point x="351" y="179" type="line" smooth="yes"/>
      <point x="317" y="137" type="line" smooth="yes"/>
    </contour>
    <contour>
      <point x="134" y="-200" type="line" smooth="yes"/>
      <point x="167" y="46" type="line" smooth="yes"/>
      <point x="192" y="20" type="line" smooth="yes"/>
      <point x="237" y="-3" type="line" smooth="yes"/>
      <point x="302" y="-13" type="line" smooth="yes"/>
      <point x="417" y="20" type="line" smooth="yes"/>
      <point x="490" y="111" type="line" smooth="yes"/>
      <point x="527" y="246" type="line" smooth="yes"/>
      <point x="532" y="284" type="line" smooth="yes"/>
      <point x="527" y="421" type="line" smooth="yes"/>
      <point x="471" y="511" type="line" smooth="yes"/>
      <point x="362" y="543" type="line" smooth="yes"/>
      <point x="292" y="532" type="line" smooth="yes"/>
      <point x="241" y="503" type="line" smooth="yes"/>
      <point x="204" y="460" type="line" smooth="yes"/>
      <point x="204" y="530" type="line" smooth="yes"/>
      <point x="63" y="530" type="line" smooth="yes"/>
      <point x="53" y="381" type="line" smooth="yes"/>
      <point x="-24" y="-200" type="line" smooth="yes"/>
    </contour>
  </outline>
</glyph>
<glyph name="q" format="1">
  <advance width="581"/>
  <unicode hex="0071"/>
  <outline>
    <contour>
      <point x="282" y="407" type="line" smooth="yes"/>
      <point x="322" y="398" type="line" smooth="yes"/>
      <point x="348" y="377" type="line" smooth="yes"/>
      <point x="363" y="355" type="line" smooth="yes"/>
      <point x="339" y="172" type="line" smooth="yes"/>
      <point x="320" y="151" type="line" smooth="yes"/>
      <point x="290" y="131" type="line" smooth="yes"/>
      <point x="247" y="123" type="line" smooth="yes"/>
      <point x="199" y="137" type="line" smooth="yes"/>
      <point x="174" y="178" type="line" smooth="yes"/>
      <point x="173" y="246" type="line" smooth="yes"/>
      <point x="178" y="284" type="line" smooth="yes"/>
      <point x="196" y="351" type="line" smooth="yes"/>
      <point x="230" y="393" type="line" smooth="yes"/>
    </contour>
    <contour>
      <point x="448" y="-200" type="line" smooth="yes"/>
      <point x="524" y="380" type="line" smooth="yes"/>
      <point x="552" y="530" type="line" smooth="yes"/>
      <point x="410" y="530" type="line" smooth="yes"/>
      <point x="392" y="465" type="line" smooth="yes"/>
      <point x="360" y="506" type="line" smooth="yes"/>
      <point x="311" y="533" type="line" smooth="yes"/>
      <point x="245" y="543" type="line" smooth="yes"/>
      <point x="130" y="510" type="line" smooth="yes"/>
      <point x="57" y="419" type="line" smooth="yes"/>
      <point x="20" y="284" type="line" smooth="yes"/>
      <point x="15" y="246" type="line" smooth="yes"/>
      <point x="20" y="109" type="line" smooth="yes"/>
      <point x="76" y="19" type="line" smooth="yes"/>
      <point x="185" y="-13" type="line" smooth="yes"/>
      <point x="242" y="-6" type="line" smooth="yes"/>
      <point x="287" y="13" type="line" smooth="yes"/>
      <point x="322" y="42" type="line" smooth="yes"/>
      <point x="290" y="-200" type="line" smooth="yes"/>
    </contour>
  </outline>
</glyph>
<glyph name="u" format="1">
  <advance width="580"/>
  <unicode hex="0075"/>
  <outline>
    <contour>
      <point x="68" y="530" type="line" smooth="yes"/>
      <point x="21" y="172" type="line" smooth="yes"/>
      <point x="27" y="77" type="line" smooth="yes"/>
      <point x="76" y="11" type="line" smooth="yes"/>
      <point x="176" y="-13" type="line" smooth="yes"/>
      <point x="242" y="-2" type="line" smooth="yes"/>
      <point x="299" y="27" type="line" smooth="yes"/>
      <point x="345" y="70" type="line" smooth="yes"/>
      <point x="345" y="0" type="line" smooth="yes"/>
      <point x="486" y="0" type="line" smooth="yes"/>
      <point x="496" y="149" type="line" smooth="yes"/>
      <point x="546" y="530" type="line" smooth="yes"/>
      <point x="388" y="530" type="line" smooth="yes"/>
      <point x="341" y="172" type="line" smooth="yes"/>
      <point x="318" y="150" type="line" smooth="yes"/>
      <point x="283" y="131" type="line" smooth="yes"/>
      <point x="241" y="123" type="line" smooth="yes"/>
      <point x="203" y="131" type="line" smooth="yes"/>
      <point x="184" y="156" type="line" smooth="yes"/>
      <point x="182" y="195" type="line" smooth="yes"/>
      <point x="226" y="530" type="line" smooth="yes"/>
    </contour>
  </outline>
</glyph>
<glyph name="braceleft" format="1">
  <advance width="365"/>
  <unicode hex="007B"/>
  <outline>
    <contour>
      <point x="393" y="840" type="line" smooth="yes"/>
      <point x="366" y="840" type="line" smooth="yes"/>
      <point x="255" y="823" type="line" smooth="yes"/>
      <point x="176" y="767" type="line" smooth="yes"/>
      <point x="137" y="662" type="line" smooth="yes"/>
      <point x="117" y="511" type="line" smooth="yes"/>
      <point x="102" y="463" type="line" smooth="yes"/>
      <point x="74" y="437" type="line" smooth="yes"/>
      <point x="31" y="429" type="line" smooth="yes"/>
      <point x="13" y="291" type="line" smooth="yes"/>
      <point x="53" y="284" type="line" smooth="yes"/>
      <point x="75" y="260" type="line" smooth="yes"/>
      <point x="78" y="217" type="line" smooth="yes"/>
      <point x="57" y="58" type="line" smooth="yes"/>
      <point x="71" y="-49" type="line" smooth="yes"/>
      <point x="137" y="-104" type="line" smooth="yes"/>
      <point x="240" y="-120" type="line" smooth="yes"/>
      <point x="267" y="-120" type="line" smooth="yes"/>
      <point x="285" y="18" type="line" smooth="yes"/>
      <point x="243" y="25" type="line" smooth="yes"/>
      <point x="222" y="52" type="line" smooth="yes"/>
      <point x="220" y="103" type="line" smooth="yes"/>
      <point x="239" y="244" type="line" smooth="yes"/>
      <point x="239" y="297" type="line" smooth="yes"/>
      <point x="222" y="334" type="line" smooth="yes"/>
      <point x="190" y="360" type="line" smooth="yes"/>
      <point x="229" y="386" type="line" smooth="yes"/>
      <point x="255" y="423" type="line" smooth="yes"/>
      <point x="269" y="476" type="line" smooth="yes"/>
      <point x="289" y="626" type="line" smooth="yes"/>
      <point x="304" y="672" type="line" smooth="yes"/>
      <point x="333" y="695" type="line" smooth="yes"/>
      <point x="375" y="702" type="line" smooth="yes"/>
    </contour>
  </outline>
</glyph>
<glyph name="bar" format="1">
  <advance width="261"/>
  <unicode hex="007C"/>
  <outline>
    <contour>
      <point x="-11" y="-120" type="line" smooth="yes"/>
      <point x="143" y="-120" type="line" smooth="yes"/>
      <point x="269" y="840" type="line" smooth="yes"/>
      <point x="115" y="840" type="line" smooth="yes"/>
    </contour>
  </outline>
</glyph>
<glyph name="braceright" format="1">
  <advance width="365"/>
  <unicode hex="007D"/>
  <outline>
    <contour>
      <point x="-32" y="-120" type="line" smooth="yes"/>
      <point x="-5" y="-120" type="line" smooth="yes"/>
      <point x="106" y="-103" type="line" smooth="yes"/>
      <point x="185" y="-47" type="line" smooth="yes"/>
      <point x="224" y="58" type="line" smooth="yes"/>
      <point x="244" y="209" type="line" smooth="yes"/>
      <point x="259" y="257" type="line" smooth="yes"/>
      <point x="287" y="283" type="line" smooth="yes"/>
      <point x="330" y="291" type="line" smooth="yes"/>
      <point x="348" y="429" type="line" smooth="yes"/>
      <point x="308" y="436" type="line" smooth="yes"/>
      <point x="286" y="460" type="line" smooth="yes"/>
      <point x="283" y="503" type="line" smooth="yes"/>
      <point x="304" y="662" type="line" smooth="yes"/>
      <point x="290" y="769" type="line" smooth="yes"/>
      <point x="224" y="824" type="line" smooth="yes"/>
      <point x="121" y="840" type="line" smooth="yes"/>
      <point x="94" y="840" type="line" smooth="yes"/>
      <point x="76" y="702" type="line" smooth="yes"/>
      <point x="118" y="695" type="line" smooth="yes"/>
      <point x="139" y="668" type="line" smooth="yes"/>
      <point x="141" y="617" type="line" smooth="yes"/>
      <point x="122" y="476" type="line" smooth="yes"/>
      <point x="122" y="423" type="line" smooth="yes"/>
      <point x="139" y="386" type="line" smooth="yes"/>
      <point x="171" y="360" type="line" smooth="yes"/>
      <point x="132" y="334" type="line" smooth="yes"/>
      <point x="106" y="297" type="line" smooth="yes"/>
      <point x="92" y="244" type="line" smooth="yes"/>
      <point x="72" y="94" type="line" smooth="yes"/>
      <point x="57" y="48" type="line" smooth="yes"/>
      <point x="28" y="25" type="line" smooth="yes"/>
      <point x="-14" y="18" type="line" smooth="yes"/>
    </contour>
  </outline>
</glyph>
<glyph name="asciitilde" format="1">
  <advance width="600"/>
  <unicode hex="007E"/>
  <outline>
    <contour>
      <point x="192" y="482" type="line" smooth="yes"/>
      <point x="122" y="468" type="line" smooth="yes"/>
      <point x="68" y="434" type="line" smooth="yes"/>
      <point x="30" y="387" type="line" smooth="yes"/>
      <point x="94" y="313" type="line" smooth="yes"/>
      <point x="116" y="334" type="line" smooth="yes"/>
      <point x="148" y="353" type="line" smooth="yes"/>
      <point x="192" y="361" type="line" smooth="yes"/>
      <point x="257" y="344" type="line" smooth="yes"/>
      <point x="324" y="313" type="line" smooth="yes"/>
      <point x="412" y="296" type="line" smooth="yes"/>
      <point x="482" y="310" type="line" smooth="yes"/>
      <point x="536" y="344" type="line" smooth="yes"/>
      <point x="574" y="391" type="line" smooth="yes"/>
      <point x="510" y="465" type="line" smooth="yes"/>
      <point x="488" y="444" type="line" smooth="yes"/>
      <point x="455" y="425" type="line" smooth="yes"/>
      <point x="410" y="417" type="line" smooth="yes"/>
      <point x="347" y="434" type="line" smooth="yes"/>
      <point x="280" y="465" type="line" smooth="yes"/>
    </contour>
  </outline>
</glyph>
<glyph name="cent" format="1">
  <advance width="597"/>
  <unicode hex="00A2"/>
  <outline>
    <contour>
      <point x="192" y="-60" type="line" smooth="yes"/>
      <point x="234" y="53" type="line" smooth="yes"/>
      <point x="249" y="52" type="line" smooth="yes"/>
      <point x="265" y="51" type="line" smooth="yes"/>
      <point x="282" y="51" type="line" smooth="yes"/>
      <point x="416" y="78" type="line" smooth="yes"/>
      <point x="504" y="157" type="line" smooth="yes"/>
      <point x="548" y="281" type="line" smooth="yes"/>
      <point x="550" y="294" type="line" smooth="yes"/>
      <point x="395" y="294" type="line" smooth="yes"/>
      <point x="377" y="235" type="line" smooth="yes"/>
      <point x="341" y="200" type="line" smooth="yes"/>
      <point x="290" y="189" type="line" smooth="yes"/>
      <point x="226" y="211" type="line" smooth="yes"/>
      <point x="197" y="275" type="line" smooth="yes"/>
      <point x="199" y="379" type="line" smooth="yes"/>
      <point x="203" y="409" type="line" smooth="yes"/>
      <point x="229" y="514" type="line" smooth="yes"/>
      <point x="274" y="574" type="line" smooth="yes"/>
      <point x="334" y="593" type="line" smooth="yes"/>
      <point x="386" y="581" type="line" smooth="yes"/>
      <point x="416" y="541" type="line" smooth="yes"/>
      <point x="417" y="466" type="line" smooth="yes"/>
      <point x="573" y="466" type="line" smooth="yes"/>
      <point x="577" y="496" type="line" smooth="yes"/>
      <point x="573" y="591" type="line" smooth="yes"/>
      <point x="538" y="661" type="line" smooth="yes"/>
      <point x="476" y="706" type="line" smooth="yes"/>
      <point x="525" y="840" type="line" smooth="yes"/>
      <point x="404" y="840" type="line" smooth="yes"/>
      <point x="364" y="730" type="line" smooth="yes"/>
      <point x="357" y="731" type="line" smooth="yes"/>
      <point x="351" y="731" type="line" smooth="yes"/>
      <point x="344" y="731" type="line" smooth="yes"/>
      <point x="194" y="697" type="line" smooth="yes"/>
      <point x="95" y="591" type="line" smooth="yes"/>
      <point x="43" y="409" type="line" smooth="yes"/>
      <point x="38" y="371" type="line" smooth="yes"/>
      <point x="35" y="248" type="line" smooth="yes"/>
      <point x="64" y="154" type="line" smooth="yes"/>
      <point x="125" y="89" type="line" smooth="yes"/>
      <point x="71" y="-60" type="line" smooth="yes"/>
    </contour>
  </outline>
</glyph>
<glyph name="sterling" format="1">
  <advance width="594"/>
  <unicode hex="00A3"/>
  <outline>
    <contour>
      <point x="355" y="654" type="line" smooth="yes"/>
      <point x="398" y="636" type="line" smooth="yes"/>
      <point x="417" y="583" type="line" smooth="yes"/>
      <point x="414" y="500" type="line" smooth="yes"/>
      <point x="573" y="500" type="line" smooth="yes"/>
      <point x="577" y="529" type="line" smooth="yes"/>
      <point x="571" y="677" type="line" smooth="yes"/>
      <point x="499" y="764" type="line" smooth="yes"/>
      <point x="360" y="793" type="line" smooth="yes"/>
      <point x="206" y="748" type="line" smooth="yes"/>
      <point x="133" y="641" type="line" smooth="yes"/>
      <point x="114" y="513" type="line" smooth="yes"/>
      <point x="115" y="486" type="line" smooth="yes"/>
      <point x="117" y="459" type="line" smooth="yes"/>
      <point x="120" y="434" type="line" smooth="yes"/>
      <point x="53" y="434" type="line" smooth="yes"/>
      <point x="34" y="297" type="line" smooth="yes"/>
      <point x="147" y="297" type="line" smooth="yes"/>
      <point x="156" y="247" type="line" smooth="yes"/>
      <point x="163" y="195" type="line" smooth="yes"/>
      <point x="166" y="139" type="line" smooth="yes"/>
      <point x="14" y="139" type="line" smooth="yes"/>
      <point x="-5" y="0" type="line" smooth="yes"/>
      <point x="507" y="0" type="line" smooth="yes"/>
      <point x="526" y="139" type="line" smooth="yes"/>
      <point x="304" y="139" type="line" smooth="yes"/>
      <point x="305" y="195" type="line" smooth="yes"/>
      <point x="303" y="248" type="line" smooth="yes"/>
      <point x="300" y="297" type="line" smooth="yes"/>
      <point x="440" y="297" type="line" smooth="yes"/>
      <point x="459" y="434" type="line" smooth="yes"/>
      <point x="282" y="434" type="line" smooth="yes"/>
      <point x="278" y="464" type="line" smooth="yes"/>
      <point x="276" y="493" type="line" smooth="yes"/>
      <point x="275" y="521" type="line" smooth="yes"/>
      <point x="281" y="590" type="line" smooth="yes"/>
      <point x="305" y="637" type="line" smooth="yes"/>
    </contour>
  </outline>
</glyph>
<glyph name="yen" format="1">
  <advance width="600"/>
  <unicode hex="00A5"/>
  <outline>
    <contour>
      <point x="37" y="342" type="line" smooth="yes"/>
      <point x="185" y="342" type="line" smooth="yes"/>
      <point x="203" y="280" type="line" smooth="yes"/>
      <point x="28" y="280" type="line" smooth="yes"/>
      <point x="10" y="142" type="line" smooth="yes"/>
      <point x="188" y="142" type="line" smooth="yes"/>
      <point x="170" y="0" type="line" smooth="yes"/>
      <point x="332" y="0" type="line" smooth="yes"/>
      <point x="350" y="142" type="line" smooth="yes"/>
      <point x="528" y="142" type="line" smooth="yes"/>
      <point x="546" y="280" type="line" smooth="yes"/>
      <point x="371" y="280" type="line" smooth="yes"/>
      <point x="405" y="342" type="line" smooth="yes"/>
      <point x="555" y="342" type="line" smooth="yes"/>
      <point x="573" y="480" type="line" smooth="yes"/>
      <point x="481" y="480" type="line" smooth="yes"/>
      <point x="646" y="780" type="line" smooth="yes"/>
      <point x="468" y="780" type="line" smooth="yes"/>
      <point x="309" y="446" type="line" smooth="yes"/>
      <point x="238" y="780" type="line" smooth="yes"/>
      <point x="60" y="780" type="line" smooth="yes"/>
      <point x="146" y="480" type="line" smooth="yes"/>
      <point x="55" y="480" type="line" smooth="yes"/>
    </contour>
  </outline>
</glyph>
<glyph name="section" format="1">
  <advance width="547"/>
  <unicode hex="00A7"/>
  <outline>
    <contour>
      <point x="267" y="325" type="line" smooth="yes"/>
      <point x="224" y="332" type="line" smooth="yes"/>
      <point x="198" y="351" type="line" smooth="yes"/>
      <point x="189" y="381" type="line" smooth="yes"/>
      <point x="198" y="418" type="line" smooth="yes"/>
      <point x="227" y="445" type="line" smooth="yes"/>
      <point x="276" y="455" type="line" smooth="yes"/>
      <point x="285" y="455" type="line" smooth="yes"/>
      <point x="328" y="448" type="line" smooth="yes"/>
      <point x="354" y="429" type="line" smooth="yes"/>
      <point x="363" y="399" type="line" smooth="yes"/>
      <point x="354" y="362" type="line" smooth="yes"/>
      <point x="325" y="335" type="line" smooth="yes"/>
      <point x="276" y="325" type="line" smooth="yes"/>
    </contour>
    <contour>
      <point x="122" y="514" type="line" smooth="yes"/>
      <point x="78" y="486" type="line" smooth="yes"/>
      <point x="48" y="447" type="line" smooth="yes"/>
      <point x="33" y="394" type="line" smooth="yes"/>
      <point x="31" y="379" type="line" smooth="yes"/>
      <point x="44" y="294" type="line" smooth="yes"/>
      <point x="109" y="242" type="line" smooth="yes"/>
      <point x="225" y="215" type="line" smooth="yes"/>
      <point x="268" y="205" type="line" smooth="yes"/>
      <point x="293" y="188" type="line" smooth="yes"/>
      <point x="300" y="165" type="line" smooth="yes"/>
      <point x="293" y="134" type="line" smooth="yes"/>
      <point x="270" y="113" type="line" smooth="yes"/>
      <point x="230" y="106" type="line" smooth="yes"/>
      <point x="191" y="114" type="line" smooth="yes"/>
      <point x="169" y="138" type="line" smooth="yes"/>
      <point x="165" y="174" type="line" smooth="yes"/>
      <point x="12" y="174" type="line" smooth="yes"/>
      <point x="10" y="159" type="line" smooth="yes"/>
      <point x="22" y="68" type="line" smooth="yes"/>
      <point x="92" y="8" type="line" smooth="yes"/>
      <point x="225" y="-13" type="line" smooth="yes"/>
      <point x="332" y="4" type="line" smooth="yes"/>
      <point x="415" y="55" type="line" smooth="yes"/>
      <point x="456" y="145" type="line" smooth="yes"/>
      <point x="458" y="160" type="line" smooth="yes"/>
      <point x="459" y="203" type="line" smooth="yes"/>
      <point x="449" y="238" type="line" smooth="yes"/>
      <point x="430" y="266" type="line" smooth="yes"/>
      <point x="474" y="294" type="line" smooth="yes"/>
      <point x="504" y="333" type="line" smooth="yes"/>
      <point x="519" y="386" type="line" smooth="yes"/>
      <point x="521" y="401" type="line" smooth="yes"/>
      <point x="508" y="486" type="line" smooth="yes"/>
      <point x="443" y="538" type="line" smooth="yes"/>
      <point x="327" y="565" type="line" smooth="yes"/>
      <point x="284" y="575" type="line" smooth="yes"/>
      <point x="259" y="592" type="line" smooth="yes"/>
      <point x="252" y="615" type="line" smooth="yes"/>
      <point x="259" y="646" type="line" smooth="yes"/>
      <point x="282" y="667" type="line" smooth="yes"/>
      <point x="322" y="674" type="line" smooth="yes"/>
      <point x="361" y="666" type="line" smooth="yes"/>
      <point x="383" y="642" type="line" smooth="yes"/>
      <point x="387" y="606" type="line" smooth="yes"/>
      <point x="540" y="606" type="line" smooth="yes"/>
      <point x="542" y="621" type="line" smooth="yes"/>
      <point x="530" y="712" type="line" smooth="yes"/>
      <point x="460" y="772" type="line" smooth="yes"/>
      <point x="327" y="793" type="line" smooth="yes"/>
      <point x="220" y="776" type="line" smooth="yes"/>
      <point x="137" y="725" type="line" smooth="yes"/>
      <point x="96" y="635" type="line" smooth="yes"/>
      <point x="94" y="620" type="line" smooth="yes"/>
      <point x="93" y="577" type="line" smooth="yes"/>
      <point x="103" y="542" type="line" smooth="yes"/>
    </contour>
  </outline>
</glyph>
<glyph name="dieresis" format="1">
  <advance width="500"/>
  <unicode hex="00A8"/>
  <outline>
    <contour>
      <point x="493" y="772" type="line" smooth="yes"/>
      <point x="326" y="772" type="line" smooth="yes"/>
      <point x="304" y="605" type="line" smooth="yes"/>
      <point x="471" y="605" type="line" smooth="yes"/>
    </contour>
    <contour>
      <point x="278" y="772" type="line" smooth="yes"/>
      <point x="111" y="772" type="line" smooth="yes"/>
      <point x="89" y="605" type="line" smooth="yes"/>
      <point x="256" y="605" type="line" smooth="yes"/>
    </contour>
  </outline>
</glyph>
<glyph name="ordfeminine" format="1">
  <advance width="427"/>
  <unicode hex="00AA"/>
  <outline>
    <contour>
      <point x="218" y="487" type="line" smooth="yes"/>
      <point x="195" y="492" type="line" smooth="yes"/>
      <point x="184" y="503" type="line" smooth="yes"/>
      <point x="183" y="519" type="line" smooth="yes"/>
      <point x="184" y="525" type="line" smooth="yes"/>
      <point x="190" y="541" type="line" smooth="yes"/>
      <point x="205" y="554" type="line" smooth="yes"/>
      <point x="227" y="561" type="line" smooth="yes"/>
      <point x="284" y="570" type="line" smooth="yes"/>
      <point x="276" y="509" type="line" smooth="yes"/>
      <point x="260" y="499" type="line" smooth="yes"/>
      <point x="240" y="490" type="line" smooth="yes"/>
    </contour>
    <contour>
      <point x="375" y="181" type="line" smooth="yes"/>
      <point x="391" y="300" type="line" smooth="yes"/>
      <point x="29" y="300" type="line" smooth="yes"/>
      <point x="13" y="181" type="line" smooth="yes"/>
    </contour>
    <contour>
      <point x="280" y="387" type="line" smooth="yes"/>
      <point x="405" y="387" type="line" smooth="yes"/>
      <point x="412" y="499" type="line" smooth="yes"/>
      <point x="431" y="641" type="line" smooth="yes"/>
      <point x="425" y="720" type="line" smooth="yes"/>
      <point x="372" y="773" type="line" smooth="yes"/>
      <point x="262" y="793" type="line" smooth="yes"/>
      <point x="161" y="775" type="line" smooth="yes"/>
      <point x="103" y="727" type="line" smooth="yes"/>
      <point x="80" y="661" type="line" smooth="yes"/>
      <point x="79" y="652" type="line" smooth="yes"/>
      <point x="209" y="652" type="line" smooth="yes"/>
      <point x="215" y="672" type="line" smooth="yes"/>
      <point x="229" y="685" type="line" smooth="yes"/>
      <point x="255" y="690" type="line" smooth="yes"/>
      <point x="279" y="685" type="line" smooth="yes"/>
      <point x="291" y="671" type="line" smooth="yes"/>
      <point x="294" y="648" type="line" smooth="yes"/>
      <point x="208" y="635" type="line" smooth="yes"/>
      <point x="128" y="615" type="line" smooth="yes"/>
      <point x="73" y="578" type="line" smooth="yes"/>
      <point x="45" y="510" type="line" smooth="yes"/>
      <point x="43" y="499" type="line" smooth="yes"/>
      <point x="46" y="439" type="line" smooth="yes"/>
      <point x="82" y="395" type="line" smooth="yes"/>
      <point x="158" y="377" type="line" smooth="yes"/>
      <point x="210" y="384" type="line" smooth="yes"/>
      <point x="250" y="403" type="line" smooth="yes"/>
      <point x="280" y="429" type="line" smooth="yes"/>
    </contour>
  </outline>
</glyph>
<glyph name="guillemotleft" format="1">
  <advance width="565"/>
  <unicode hex="00AB"/>
  <outline>
    <contour>
      <point x="541" y="563" type="line" smooth="yes"/>
      <point x="305" y="416" type="line" smooth="yes"/>
      <point x="285" y="264" type="line" smooth="yes"/>
      <point x="482" y="117" type="line" smooth="yes"/>
      <point x="500" y="251" type="line" smooth="yes"/>
      <point x="402" y="335" type="line" smooth="yes"/>
      <point x="522" y="419" type="line" smooth="yes"/>
    </contour>
    <contour>
      <point x="291" y="563" type="line" smooth="yes"/>
      <point x="55" y="416" type="line" smooth="yes"/>
      <point x="35" y="264" type="line" smooth="yes"/>
      <point x="232" y="117" type="line" smooth="yes"/>
      <point x="250" y="251" type="line" smooth="yes"/>
      <point x="152" y="335" type="line" smooth="yes"/>
      <point x="272" y="419" type="line" smooth="yes"/>
    </contour>
  </outline>
</glyph>
<glyph name="uni00AD" format="1">
  <advance width="353"/>
  <unicode hex="00AD"/>
  <outline>
    <contour>
      <point x="27" y="281" type="line" smooth="yes"/>
      <point x="300" y="281" type="line" smooth="yes"/>
      <point x="318" y="419" type="line" smooth="yes"/>
      <point x="45" y="419" type="line" smooth="yes"/>
    </contour>
  </outline>
</glyph>
<glyph name="registered" format="1">
  <advance width="330"/>
  <unicode hex="00AE"/>
  <outline>
    <contour>
      <point x="186" y="693" type="line" smooth="yes"/>
      <point x="186" y="690" type="line" smooth="yes"/>
      <point x="184" y="680" type="line" smooth="yes"/>
      <point x="177" y="675" type="line" smooth="yes"/>
      <point x="168" y="673" type="line" smooth="yes"/>
      <point x="144" y="673" type="line" smooth="yes"/>
      <point x="144" y="710" type="line" smooth="yes"/>
      <point x="168" y="710" type="line" smooth="yes"/>
      <point x="177" y="708" type="line" smooth="yes"/>
      <point x="184" y="703" type="line" smooth="yes"/>
    </contour>
    <contour>
      <point x="241" y="689" type="line" smooth="yes"/>
      <point x="241" y="694" type="line" smooth="yes"/>
      <point x="232" y="729" type="line" smooth="yes"/>
      <point x="209" y="746" type="line" smooth="yes"/>
      <point x="180" y="751" type="line" smooth="yes"/>
      <point x="89" y="751" type="line" smooth="yes"/>
      <point x="89" y="579" type="line" smooth="yes"/>
      <point x="144" y="579" type="line" smooth="yes"/>
      <point x="144" y="632" type="line" smooth="yes"/>
      <point x="163" y="632" type="line" smooth="yes"/>
      <point x="184" y="579" type="line" smooth="yes"/>
      <point x="241" y="579" type="line" smooth="yes"/>
      <point x="213" y="638" type="line" smooth="yes"/>
      <point x="227" y="648" type="line" smooth="yes"/>
      <point x="237" y="665" type="line" smooth="yes"/>
    </contour>
    <contour>
      <point x="41" y="665" type="line" smooth="yes"/>
      <point x="58" y="728" type="line" smooth="yes"/>
      <point x="102" y="772" type="line" smooth="yes"/>
      <point x="165" y="789" type="line" smooth="yes"/>
      <point x="228" y="772" type="line" smooth="yes"/>
      <point x="272" y="728" type="line" smooth="yes"/>
      <point x="289" y="665" type="line" smooth="yes"/>
      <point x="272" y="602" type="line" smooth="yes"/>
      <point x="228" y="558" type="line" smooth="yes"/>
      <point x="165" y="541" type="line" smooth="yes"/>
      <point x="102" y="558" type="line" smooth="yes"/>
      <point x="58" y="602" type="line" smooth="yes"/>
    </contour>
    <contour>
      <point x="17" y="665" type="line" smooth="yes"/>
      <point x="37" y="590" type="line" smooth="yes"/>
      <point x="90" y="537" type="line" smooth="yes"/>
      <point x="165" y="517" type="line" smooth="yes"/>
      <point x="240" y="537" type="line" smooth="yes"/>
      <point x="293" y="590" type="line" smooth="yes"/>
      <point x="313" y="665" type="line" smooth="yes"/>
      <point x="293" y="740" type="line" smooth="yes"/>
      <point x="240" y="793" type="line" smooth="yes"/>
      <point x="165" y="813" type="line" smooth="yes"/>
      <point x="90" y="793" type="line" smooth="yes"/>
      <point x="37" y="740" type="line" smooth="yes"/>
    </contour>
  </outline>
</glyph>
<glyph name="macron" format="1">
  <advance width="500"/>
  <unicode hex="00AF"/>
  <outline>
    <contour>
      <point x="132" y="619" type="line" smooth="yes"/>
      <point x="432" y="619" type="line" smooth="yes"/>
      <point x="450" y="757" type="line" smooth="yes"/>
      <point x="150" y="757" type="line" smooth="yes"/>
    </contour>
  </outline>
</glyph>
<glyph name="degree" format="1">
  <advance width="399"/>
  <unicode hex="00B0"/>
  <outline>
    <contour>
      <point x="299" y="624" type="line" smooth="yes"/>
      <point x="289" y="592" type="line" smooth="yes"/>
      <point x="266" y="570" type="line" smooth="yes"/>
      <point x="233" y="562" type="line" smooth="yes"/>
      <point x="223" y="562" type="line" smooth="yes"/>
      <point x="190" y="571" type="line" smooth="yes"/>
      <point x="172" y="594" type="line" smooth="yes"/>
      <point x="167" y="624" type="line" smooth="yes"/>
      <point x="168" y="635" type="line" smooth="yes"/>
      <point x="178" y="667" type="line" smooth="yes"/>
      <point x="201" y="689" type="line" smooth="yes"/>
      <point x="234" y="697" type="line" smooth="yes"/>
      <point x="244" y="697" type="line" smooth="yes"/>
      <point x="277" y="688" type="line" smooth="yes"/>
      <point x="295" y="665" type="line" smooth="yes"/>
      <point x="300" y="635" type="line" smooth="yes"/>
    </contour>
    <contour>
      <point x="245" y="793" type="line" smooth="yes"/>
      <point x="163" y="774" type="line" smooth="yes"/>
      <point x="101" y="720" type="line" smooth="yes"/>
      <point x="71" y="634" type="line" smooth="yes"/>
      <point x="70" y="623" type="line" smooth="yes"/>
      <point x="84" y="537" type="line" smooth="yes"/>
      <point x="138" y="484" type="line" smooth="yes"/>
      <point x="222" y="466" type="line" smooth="yes"/>
      <point x="304" y="485" type="line" smooth="yes"/>
      <point x="366" y="539" type="line" smooth="yes"/>
      <point x="396" y="625" type="line" smooth="yes"/>
      <point x="397" y="636" type="line" smooth="yes"/>
      <point x="383" y="722" type="line" smooth="yes"/>
      <point x="329" y="775" type="line" smooth="yes"/>
    </contour>
  </outline>
</glyph>
<glyph name="twosuperior" format="1">
  <advance width="300"/>
  <unicode hex="00B2"/>
  <outline>
    <contour>
      <point x="305" y="493" type="line" smooth="yes"/>
      <point x="197" y="493" type="line" smooth="yes"/>
      <point x="270" y="562" type="line" smooth="yes"/>
      <point x="299" y="592" type="line" smooth="yes"/>
      <point x="318" y="623" type="line" smooth="yes"/>
      <point x="329" y="661" type="line" smooth="yes"/>
      <point x="331" y="676" type="line" smooth="yes"/>
      <point x="324" y="725" type="line" smooth="yes"/>
      <point x="284" y="772" type="line" smooth="yes"/>
      <point x="201" y="793" type="line" smooth="yes"/>
      <point x="118" y="774" type="line" smooth="yes"/>
      <point x="72" y="725" type="line" smooth="yes"/>
      <point x="54" y="659" type="line" smooth="yes"/>
      <point x="53" y="650" type="line" smooth="yes"/>
      <point x="173" y="650" type="line" smooth="yes"/>
      <point x="177" y="673" type="line" smooth="yes"/>
      <point x="184" y="685" type="line" smooth="yes"/>
      <point x="194" y="689" type="line" smooth="yes"/>
      <point x="196" y="689" type="line" smooth="yes"/>
      <point x="204" y="686" type="line" smooth="yes"/>
      <point x="209" y="678" type="line" smooth="yes"/>
      <point x="209" y="665" type="line" smooth="yes"/>
      <point x="207" y="650" type="line" smooth="yes"/>
      <point x="204" y="639" type="line" smooth="yes"/>
      <point x="197" y="629" type="line" smooth="yes"/>
      <point x="188" y="619" type="line" smooth="yes"/>
      <point x="30" y="468" type="line" smooth="yes"/>
      <point x="20" y="390" type="line" smooth="yes"/>
      <point x="292" y="390" type="line" smooth="yes"/>
    </contour>
  </outline>
</glyph>
<glyph name="threesuperior" format="1">
  <advance width="300"/>
  <unicode hex="00B3"/>
  <outline>
    <contour>
      <point x="149" y="515" type="line" smooth="yes"/>
      <point x="29" y="515" type="line" smooth="yes"/>
      <point x="28" y="506" type="line" smooth="yes"/>
      <point x="39" y="437" type="line" smooth="yes"/>
      <point x="85" y="393" type="line" smooth="yes"/>
      <point x="158" y="377" type="line" smooth="yes"/>
      <point x="228" y="390" type="line" smooth="yes"/>
      <point x="278" y="428" type="line" smooth="yes"/>
      <point x="303" y="490" type="line" smooth="yes"/>
      <point x="305" y="505" type="line" smooth="yes"/>
      <point x="303" y="543" type="line" smooth="yes"/>
      <point x="288" y="572" type="line" smooth="yes"/>
      <point x="262" y="589" type="line" smooth="yes"/>
      <point x="290" y="603" type="line" smooth="yes"/>
      <point x="311" y="625" type="line" smooth="yes"/>
      <point x="323" y="661" type="line" smooth="yes"/>
      <point x="325" y="676" type="line" smooth="yes"/>
      <point x="318" y="725" type="line" smooth="yes"/>
      <point x="278" y="772" type="line" smooth="yes"/>
      <point x="195" y="793" type="line" smooth="yes"/>
      <point x="112" y="774" type="line" smooth="yes"/>
      <point x="66" y="725" type="line" smooth="yes"/>
      <point x="48" y="659" type="line" smooth="yes"/>
      <point x="47" y="650" type="line" smooth="yes"/>
      <point x="167" y="650" type="line" smooth="yes"/>
      <point x="171" y="673" type="line" smooth="yes"/>
      <point x="178" y="685" type="line" smooth="yes"/>
      <point x="188" y="689" type="line" smooth="yes"/>
      <point x="190" y="689" type="line" smooth="yes"/>
      <point x="198" y="686" type="line" smooth="yes"/>
      <point x="203" y="678" type="line" smooth="yes"/>
      <point x="203" y="665" type="line" smooth="yes"/>
      <point x="202" y="658" type="line" smooth="yes"/>
      <point x="198" y="645" type="line" smooth="yes"/>
      <point x="191" y="639" type="line" smooth="yes"/>
      <point x="181" y="637" type="line" smooth="yes"/>
      <point x="134" y="637" type="line" smooth="yes"/>
      <point x="122" y="541" type="line" smooth="yes"/>
      <point x="170" y="541" type="line" smooth="yes"/>
      <point x="181" y="538" type="line" smooth="yes"/>
      <point x="186" y="530" type="line" smooth="yes"/>
      <point x="187" y="516" type="line" smooth="yes"/>
      <point x="186" y="509" type="line" smooth="yes"/>
      <point x="182" y="493" type="line" smooth="yes"/>
      <point x="175" y="484" type="line" smooth="yes"/>
      <point x="165" y="481" type="line" smooth="yes"/>
      <point x="163" y="481" type="line" smooth="yes"/>
      <point x="154" y="484" type="line" smooth="yes"/>
      <point x="148" y="494" type="line" smooth="yes"/>
    </contour>
  </outline>
</glyph>
<glyph name="acute" format="1">
  <advance width="500"/>
  <unicode hex="00B4"/>
  <outline>
    <contour>
      <point x="316" y="780" type="line" smooth="yes"/>
      <point x="201" y="596" type="line" smooth="yes"/>
      <point x="357" y="596" type="line" smooth="yes"/>
      <point x="488" y="780" type="line" smooth="yes"/>
    </contour>
  </outline>
</glyph>
<glyph name="paragraph" format="1">
  <advance width="549"/>
  <unicode hex="00B6"/>
  <outline>
    <contour>
      <point x="283" y="0" type="line" smooth="yes"/>
      <point x="445" y="0" type="line" smooth="yes"/>
      <point x="547" y="780" type="line" smooth="yes"/>
      <point x="338" y="780" type="line" smooth="yes"/>
      <point x="212" y="764" type="line" smooth="yes"/>
      <point x="105" y="697" type="line" smooth="yes"/>
      <point x="46" y="545" type="line" smooth="yes"/>
      <point x="43" y="522" type="line" smooth="yes"/>
      <point x="61" y="374" type="line" smooth="yes"/>
      <point x="148" y="300" type="line" smooth="yes"/>
      <point x="276" y="280" type="line" smooth="yes"/>
      <point x="319" y="280" type="line" smooth="yes"/>
    </contour>
  </outline>
</glyph>
<glyph name="cedilla" format="1">
  <advance width="602"/>
  <unicode hex="00B8"/>
  <outline>
    <contour>
      <point x="69" y="-190" type="line" smooth="yes"/>
      <point x="93" y="-202" type="line" smooth="yes"/>
      <point x="130" y="-211" type="line" smooth="yes"/>
      <point x="180" y="-215" type="line" smooth="yes"/>
      <point x="246" y="-203" type="line" smooth="yes"/>
      <point x="290" y="-170" type="line" smooth="yes"/>
      <point x="306" y="-118" type="line" smooth="yes"/>
      <point x="294" y="-75" type="line" smooth="yes"/>
      <point x="262" y="-50" type="line" smooth="yes"/>
      <point x="216" y="-40" type="line" smooth="yes"/>
      <point x="237" y="0" type="line" smooth="yes"/>
      <point x="165" y="0" type="line" smooth="yes"/>
      <point x="126" y="-72" type="line" smooth="yes"/>
      <point x="137" y="-100" type="line" smooth="yes"/>
      <point x="143" y="-99" type="line" smooth="yes"/>
      <point x="158" y="-96" type="line" smooth="yes"/>
      <point x="176" y="-95" type="line" smooth="yes"/>
      <point x="201" y="-97" type="line" smooth="yes"/>
      <point x="216" y="-104" type="line" smooth="yes"/>
      <point x="221" y="-116" type="line" smooth="yes"/>
      <point x="216" y="-129" type="line" smooth="yes"/>
      <point x="201" y="-138" type="line" smooth="yes"/>
      <point x="175" y="-141" type="line" smooth="yes"/>
      <point x="146" y="-139" type="line" smooth="yes"/>
      <point x="120" y="-133" type="line" smooth="yes"/>
      <point x="101" y="-124" type="line" smooth="yes"/>
    </contour>
  </outline>
</glyph>
<glyph name="onesuperior" format="1">
  <advance width="300"/>
  <unicode hex="00B9"/>
  <outline>
    <contour>
      <point x="292" y="390" type="line" smooth="yes"/>
      <point x="305" y="493" type="line" smooth="yes"/>
      <point x="234" y="493" type="line" smooth="yes"/>
      <point x="272" y="782" type="line" smooth="yes"/>
      <point x="183" y="782" type="line" smooth="yes"/>
      <point x="47" y="697" type="line" smooth="yes"/>
      <point x="95" y="612" type="line" smooth="yes"/>
      <point x="133" y="635" type="line" smooth="yes"/>
      <point x="114" y="493" type="line" smooth="yes"/>
      <point x="42" y="493" type="line" smooth="yes"/>
      <point x="29" y="390" type="line" smooth="yes"/>
    </contour>
  </outline>
</glyph>
<glyph name="ordmasculine" format="1">
  <advance width="440"/>
  <unicode hex="00BA"/>
  <outline>
    <contour>
      <point x="377" y="181" type="line" smooth="yes"/>
      <point x="393" y="300" type="line" smooth="yes"/>
      <point x="29" y="300" type="line" smooth="yes"/>
      <point x="13" y="181" type="line" smooth="yes"/>
    </contour>
    <contour>
      <point x="299" y="571" type="line" smooth="yes"/>
      <point x="288" y="527" type="line" smooth="yes"/>
      <point x="268" y="503" type="line" smooth="yes"/>
      <point x="241" y="495" type="line" smooth="yes"/>
      <point x="209" y="504" type="line" smooth="yes"/>
      <point x="193" y="529" type="line" smooth="yes"/>
      <point x="193" y="571" type="line" smooth="yes"/>
      <point x="197" y="600" type="line" smooth="yes"/>
      <point x="208" y="644" type="line" smooth="yes"/>
      <point x="228" y="668" type="line" smooth="yes"/>
      <point x="255" y="676" type="line" smooth="yes"/>
      <point x="287" y="667" type="line" smooth="yes"/>
      <point x="303" y="642" type="line" smooth="yes"/>
      <point x="303" y="600" type="line" smooth="yes"/>
    </contour>
    <contour>
      <point x="230" y="376" type="line" smooth="yes"/>
      <point x="332" y="401" type="line" smooth="yes"/>
      <point x="402" y="468" type="line" smooth="yes"/>
      <point x="436" y="571" type="line" smooth="yes"/>
      <point x="440" y="600" type="line" smooth="yes"/>
      <point x="428" y="703" type="line" smooth="yes"/>
      <point x="367" y="770" type="line" smooth="yes"/>
      <point x="266" y="795" type="line" smooth="yes"/>
      <point x="164" y="770" type="line" smooth="yes"/>
      <point x="94" y="703" type="line" smooth="yes"/>
      <point x="60" y="600" type="line" smooth="yes"/>
      <point x="56" y="571" type="line" smooth="yes"/>
      <point x="68" y="468" type="line" smooth="yes"/>
      <point x="129" y="401" type="line" smooth="yes"/>
    </contour>
  </outline>
</glyph>
<glyph name="guillemotright" format="1">
  <advance width="565"/>
  <unicode hex="00BB"/>
  <outline>
    <contour>
      <point x="15" y="117" type="line" smooth="yes"/>
      <point x="251" y="264" type="line" smooth="yes"/>
      <point x="271" y="416" type="line" smooth="yes"/>
      <point x="74" y="563" type="line" smooth="yes"/>
      <point x="56" y="429" type="line" smooth="yes"/>
      <point x="154" y="345" type="line" smooth="yes"/>
      <point x="34" y="261" type="line" smooth="yes"/>
    </contour>
    <contour>
      <point x="265" y="117" type="line" smooth="yes"/>
      <point x="501" y="264" type="line" smooth="yes"/>
      <point x="521" y="416" type="line" smooth="yes"/>
      <point x="324" y="563" type="line" smooth="yes"/>
      <point x="306" y="429" type="line" smooth="yes"/>
      <point x="404" y="345" type="line" smooth="yes"/>
      <point x="284" y="261" type="line" smooth="yes"/>
    </contour>
  </outline>
</glyph>
<glyph name="onehalf" format="1">
  <advance width="800"/>
  <unicode hex="00BD"/>
  <outline>
    <contour>
      <point x="754" y="103" type="line" smooth="yes"/>
      <point x="646" y="103" type="line" smooth="yes"/>
      <point x="719" y="172" type="line" smooth="yes"/>
      <point x="748" y="202" type="line" smooth="yes"/>
      <point x="767" y="233" type="line" smooth="yes"/>
      <point x="778" y="271" type="line" smooth="yes"/>
      <point x="780" y="286" type="line" smooth="yes"/>
      <point x="773" y="335" type="line" smooth="yes"/>
      <point x="733" y="382" type="line" smooth="yes"/>
      <point x="650" y="403" type="line" smooth="yes"/>
      <point x="567" y="384" type="line" smooth="yes"/>
      <point x="521" y="335" type="line" smooth="yes"/>
      <point x="503" y="269" type="line" smooth="yes"/>
      <point x="502" y="260" type="line" smooth="yes"/>
      <point x="622" y="260" type="line" smooth="yes"/>
      <point x="626" y="283" type="line" smooth="yes"/>
      <point x="633" y="295" type="line" smooth="yes"/>
      <point x="643" y="299" type="line" smooth="yes"/>
      <point x="645" y="299" type="line" smooth="yes"/>
      <point x="653" y="296" type="line" smooth="yes"/>
      <point x="658" y="288" type="line" smooth="yes"/>
      <point x="658" y="275" type="line" smooth="yes"/>
      <point x="656" y="260" type="line" smooth="yes"/>
      <point x="653" y="249" type="line" smooth="yes"/>
      <point x="646" y="239" type="line" smooth="yes"/>
      <point x="637" y="229" type="line" smooth="yes"/>
      <point x="479" y="78" type="line" smooth="yes"/>
      <point x="469" y="0" type="line" smooth="yes"/>
      <point x="741" y="0" type="line" smooth="yes"/>
    </contour>
    <contour>
      <point x="130" y="0" type="line" smooth="yes"/>
      <point x="808" y="780" type="line" smooth="yes"/>
      <point x="674" y="780" type="line" smooth="yes"/>
      <point x="-4" y="0" type="line" smooth="yes"/>
    </contour>
    <contour>
      <point x="292" y="390" type="line" smooth="yes"/>
      <point x="305" y="493" type="line" smooth="yes"/>
      <point x="234" y="493" type="line" smooth="yes"/>
      <point x="272" y="782" type="line" smooth="yes"/>
      <point x="183" y="782" type="line" smooth="yes"/>
      <point x="47" y="697" type="line" smooth="yes"/>
      <point x="95" y="612" type="line" smooth="yes"/>
      <point x="133" y="635" type="line" smooth="yes"/>
      <point x="114" y="493" type="line" smooth="yes"/>
      <point x="42" y="493" type="line" smooth="yes"/>
      <point x="29" y="390" type="line" smooth="yes"/>
    </contour>
  </outline>
</glyph>
<glyph name="threequarters" format="1">
  <advance width="800"/>
  <unicode hex="00BE"/>
  <outline>
    <contour>
      <point x="619" y="235" type="line" smooth="yes"/>
      <point x="610" y="171" type="line" smooth="yes"/>
      <point x="573" y="171" type="line" smooth="yes"/>
    </contour>
    <contour>
      <point x="708" y="0" type="line" smooth="yes"/>
      <point x="717" y="68" type="line" smooth="yes"/>
      <point x="749" y="68" type="line" smooth="yes"/>
      <point x="762" y="171" type="line" smooth="yes"/>
      <point x="730" y="171" type="line" smooth="yes"/>
      <point x="759" y="390" type="line" smooth="yes"/>
      <point x="645" y="390" type="line" smooth="yes"/>
      <point x="478" y="165" type="line" smooth="yes"/>
      <point x="466" y="68" type="line" smooth="yes"/>
      <point x="597" y="68" type="line" smooth="yes"/>
      <point x="588" y="0" type="line" smooth="yes"/>
    </contour>
    <contour>
      <point x="130" y="0" type="line" smooth="yes"/>
      <point x="808" y="780" type="line" smooth="yes"/>
      <point x="674" y="780" type="line" smooth="yes"/>
      <point x="-4" y="0" type="line" smooth="yes"/>
    </contour>
    <contour>
      <point x="149" y="515" type="line" smooth="yes"/>
      <point x="29" y="515" type="line" smooth="yes"/>
      <point x="28" y="506" type="line" smooth="yes"/>
      <point x="39" y="437" type="line" smooth="yes"/>
      <point x="85" y="393" type="line" smooth="yes"/>
      <point x="158" y="377" type="line" smooth="yes"/>
      <point x="228" y="390" type="line" smooth="yes"/>
      <point x="278" y="428" type="line" smooth="yes"/>
      <point x="303" y="490" type="line" smooth="yes"/>
      <point x="305" y="505" type="line" smooth="yes"/>
      <point x="303" y="543" type="line" smooth="yes"/>
      <point x="288" y="572" type="line" smooth="yes"/>
      <point x="262" y="589" type="line" smooth="yes"/>
      <point x="290" y="603" type="line" smooth="yes"/>
      <point x="311" y="625" type="line" smooth="yes"/>
      <point x="323" y="661" type="line" smooth="yes"/>
      <point x="325" y="676" type="line" smooth="yes"/>
      <point x="318" y="725" type="line" smooth="yes"/>
      <point x="278" y="772" type="line" smooth="yes"/>
      <point x="195" y="793" type="line" smooth="yes"/>
      <point x="112" y="774" type="line" smooth="yes"/>
      <point x="66" y="725" type="line" smooth="yes"/>
      <point x="48" y="659" type="line" smooth="yes"/>
      <point x="47" y="650" type="line" smooth="yes"/>
      <point x="167" y="650" type="line" smooth="yes"/>
      <point x="171" y="673" type="line" smooth="yes"/>
      <point x="178" y="685" type="line" smooth="yes"/>
      <point x="188" y="689" type="line" smooth="yes"/>
      <point x="190" y="689" type="line" smooth="yes"/>
      <point x="198" y="686" type="line" smooth="yes"/>
      <point x="203" y="678" type="line" smooth="yes"/>
      <point x="203" y="665" type="line" smooth="yes"/>
      <point x="202" y="658" type="line" smooth="yes"/>
      <point x="198" y="645" type="line" smooth="yes"/>
      <point x="191" y="639" type="line" smooth="yes"/>
      <point x="181" y="637" type="line" smooth="yes"/>
      <point x="134" y="637" type="line" smooth="yes"/>
      <point x="122" y="541" type="line" smooth="yes"/>
      <point x="170" y="541" type="line" smooth="yes"/>
      <point x="181" y="538" type="line" smooth="yes"/>
      <point x="186" y="530" type="line" smooth="yes"/>
      <point x="187" y="516" type="line" smooth="yes"/>
      <point x="186" y="509" type="line" smooth="yes"/>
      <point x="182" y="493" type="line" smooth="yes"/>
      <point x="175" y="484" type="line" smooth="yes"/>
      <point x="165" y="481" type="line" smooth="yes"/>
      <point x="163" y="481" type="line" smooth="yes"/>
      <point x="154" y="484" type="line" smooth="yes"/>
      <point x="148" y="494" type="line" smooth="yes"/>
    </contour>
  </outline>
</glyph>
<glyph name="questiondown" format="1">
  <advance width="497"/>
  <unicode hex="00BF"/>
  <outline>
    <contour>
      <point x="166" y="363" type="line" smooth="yes"/>
      <point x="333" y="363" type="line" smooth="yes"/>
      <point x="355" y="530" type="line" smooth="yes"/>
      <point x="188" y="530" type="line" smooth="yes"/>
    </contour>
    <contour>
      <point x="182" y="-74" type="line" smooth="yes"/>
      <point x="149" y="-67" type="line" smooth="yes"/>
      <point x="131" y="-49" type="line" smooth="yes"/>
      <point x="126" y="-21" type="line" smooth="yes"/>
      <point x="171" y="70" type="line" smooth="yes"/>
      <point x="253" y="166" type="line" smooth="yes"/>
      <point x="298" y="302" type="line" smooth="yes"/>
      <point x="186" y="302" type="line" smooth="yes"/>
      <point x="117" y="188" type="line" smooth="yes"/>
      <point x="16" y="102" type="line" smooth="yes"/>
      <point x="-36" y="-48" type="line" smooth="yes"/>
      <point x="-18" y="-129" type="line" smooth="yes"/>
      <point x="47" y="-190" type="line" smooth="yes"/>
      <point x="177" y="-213" type="line" smooth="yes"/>
      <point x="307" y="-185" type="line" smooth="yes"/>
      <point x="390" y="-102" type="line" smooth="yes"/>
      <point x="430" y="37" type="line" smooth="yes"/>
      <point x="433" y="60" type="line" smooth="yes"/>
      <point x="274" y="60" type="line" smooth="yes"/>
      <point x="257" y="-18" type="line" smooth="yes"/>
      <point x="227" y="-61" type="line" smooth="yes"/>
    </contour>
  </outline>
</glyph>
<glyph name="Acircumflex" format="1">
  <advance width="641"/>
  <unicode hex="00C2"/>
  <outline>
    <contour>
      <point x="351" y="601" type="line" smooth="yes"/>
      <point x="376" y="308" type="line" smooth="yes"/>
      <point x="248" y="308" type="line" smooth="yes"/>
    </contour>
    <contour>
      <point x="262" y="782" type="line" smooth="yes"/>
      <point x="-35" y="0" type="line" smooth="yes"/>
      <point x="139" y="0" type="line" smooth="yes"/>
      <point x="199" y="168" type="line" smooth="yes"/>
      <point x="389" y="168" type="line" smooth="yes"/>
      <point x="404" y="0" type="line" smooth="yes"/>
      <point x="578" y="0" type="line" smooth="yes"/>
      <point x="485" y="782" type="line" smooth="yes"/>
    </contour>
    <contour>
      <point x="585" y="840" type="line" smooth="yes"/>
      <point x="476" y="950" type="line" smooth="yes"/>
      <point x="316" y="950" type="line" smooth="yes"/>
      <point x="177" y="840" type="line" smooth="yes"/>
      <point x="322" y="840" type="line" smooth="yes"/>
      <point x="389" y="890" type="line" smooth="yes"/>
      <point x="446" y="840" type="line" smooth="yes"/>
    </contour>
  </outline>
</glyph>
<glyph name="Atilde" format="1">
  <advance width="641"/>
  <unicode hex="00C3"/>
  <outline>
    <contour>
      <point x="351" y="601" type="line" smooth="yes"/>
      <point x="376" y="308" type="line" smooth="yes"/>
      <point x="248" y="308" type="line" smooth="yes"/>
    </contour>
    <contour>
      <point x="262" y="782" type="line" smooth="yes"/>
      <point x="-35" y="0" type="line" smooth="yes"/>
      <point x="139" y="0" type="line" smooth="yes"/>
      <point x="199" y="168" type="line" smooth="yes"/>
      <point x="389" y="168" type="line" smooth="yes"/>
      <point x="404" y="0" type="line" smooth="yes"/>
      <point x="578" y="0" type="line" smooth="yes"/>
      <point x="485" y="782" type="line" smooth="yes"/>
    </contour>
    <contour>
      <point x="495" y="947" type="line" smooth="yes"/>
      <point x="489" y="927" type="line" smooth="yes"/>
      <point x="475" y="917" type="line" smooth="yes"/>
      <point x="458" y="914" type="line" smooth="yes"/>
      <point x="417" y="926" type="line" smooth="yes"/>
      <point x="368" y="950" type="line" smooth="yes"/>
      <point x="310" y="962" type="line" smooth="yes"/>
      <point x="258" y="951" type="line" smooth="yes"/>
      <point x="218" y="913" type="line" smooth="yes"/>
      <point x="196" y="843" type="line" smooth="yes"/>
      <point x="281" y="843" type="line" smooth="yes"/>
      <point x="287" y="863" type="line" smooth="yes"/>
      <point x="301" y="873" type="line" smooth="yes"/>
      <point x="318" y="876" type="line" smooth="yes"/>
      <point x="359" y="864" type="line" smooth="yes"/>
      <point x="408" y="840" type="line" smooth="yes"/>
      <point x="466" y="828" type="line" smooth="yes"/>
      <point x="518" y="839" type="line" smooth="yes"/>
      <point x="558" y="877" type="line" smooth="yes"/>
      <point x="580" y="947" type="line" smooth="yes"/>
    </contour>
  </outline>
</glyph>
<glyph name="Aring" format="1">
  <advance width="641"/>
  <unicode hex="00C5"/>
  <outline>
    <contour>
      <point x="434" y="863" type="line" smooth="yes"/>
      <point x="426" y="834" type="line" smooth="yes"/>
      <point x="406" y="814" type="line" smooth="yes"/>
      <point x="377" y="807" type="line" smooth="yes"/>
      <point x="354" y="813" type="line" smooth="yes"/>
      <point x="337" y="829" type="line" smooth="yes"/>
      <point x="331" y="853" type="line" smooth="yes"/>
      <point x="339" y="882" type="line" smooth="yes"/>
      <point x="359" y="902" type="line" smooth="yes"/>
      <point x="388" y="909" type="line" smooth="yes"/>
      <point x="411" y="903" type="line" smooth="yes"/>
      <point x="428" y="887" type="line" smooth="yes"/>
    </contour>
    <contour>
      <point x="351" y="601" type="line" smooth="yes"/>
      <point x="376" y="308" type="line" smooth="yes"/>
      <point x="248" y="308" type="line" smooth="yes"/>
    </contour>
    <contour>
      <point x="262" y="782" type="line" smooth="yes"/>
      <point x="-35" y="0" type="line" smooth="yes"/>
      <point x="139" y="0" type="line" smooth="yes"/>
      <point x="199" y="168" type="line" smooth="yes"/>
      <point x="389" y="168" type="line" smooth="yes"/>
      <point x="404" y="0" type="line" smooth="yes"/>
      <point x="578" y="0" type="line" smooth="yes"/>
      <point x="485" y="782" type="line" smooth="yes"/>
      <point x="449" y="782" type="line" smooth="yes"/>
      <point x="470" y="806" type="line" smooth="yes"/>
      <point x="484" y="836" type="line" smooth="yes"/>
      <point x="489" y="870" type="line" smooth="yes"/>
      <point x="476" y="918" type="line" smooth="yes"/>
      <point x="442" y="951" type="line" smooth="yes"/>
      <point x="393" y="963" type="line" smooth="yes"/>
      <point x="334" y="948" type="line" smooth="yes"/>
      <point x="292" y="906" type="line" smooth="yes"/>
      <point x="276" y="846" type="line" smooth="yes"/>
      <point x="279" y="822" type="line" smooth="yes"/>
      <point x="287" y="800" type="line" smooth="yes"/>
      <point x="301" y="782" type="line" smooth="yes"/>
    </contour>
  </outline>
</glyph>
<glyph name="Ccedilla" format="1">
  <advance width="646"/>
  <unicode hex="00C7"/>
  <outline>
    <contour>
      <point x="207" y="407" type="line" smooth="yes"/>
      <point x="236" y="540" type="line" smooth="yes"/>
      <point x="286" y="624" type="line" smooth="yes"/>
      <point x="362" y="653" type="line" smooth="yes"/>
      <point x="372" y="653" type="line" smooth="yes"/>
      <point x="437" y="634" type="line" smooth="yes"/>
      <point x="465" y="578" type="line" smooth="yes"/>
      <point x="463" y="484" type="line" smooth="yes"/>
      <point x="626" y="484" type="line" smooth="yes"/>
      <point x="630" y="516" type="line" smooth="yes"/>
      <point x="618" y="670" type="line" smooth="yes"/>
      <point x="533" y="762" type="line" smooth="yes"/>
      <point x="371" y="793" type="line" smooth="yes"/>
      <point x="207" y="753" type="line" smooth="yes"/>
      <point x="100" y="627" type="line" smooth="yes"/>
      <point x="42" y="406" type="line" smooth="yes"/>
      <point x="38" y="374" type="line" smooth="yes"/>
      <point x="43" y="166" type="line" smooth="yes"/>
      <point x="116" y="41" type="line" smooth="yes"/>
      <point x="251" y="-11" type="line" smooth="yes"/>
      <point x="218" y="-72" type="line" smooth="yes"/>
      <point x="229" y="-100" type="line" smooth="yes"/>
      <point x="235" y="-99" type="line" smooth="yes"/>
      <point x="250" y="-96" type="line" smooth="yes"/>
      <point x="268" y="-95" type="line" smooth="yes"/>
      <point x="293" y="-97" type="line" smooth="yes"/>
      <point x="308" y="-104" type="line" smooth="yes"/>
      <point x="313" y="-116" type="line" smooth="yes"/>
      <point x="308" y="-129" type="line" smooth="yes"/>
      <point x="293" y="-138" type="line" smooth="yes"/>
      <point x="267" y="-141" type="line" smooth="yes"/>
      <point x="238" y="-139" type="line" smooth="yes"/>
      <point x="212" y="-133" type="line" smooth="yes"/>
      <point x="193" y="-124" type="line" smooth="yes"/>
      <point x="161" y="-190" type="line" smooth="yes"/>
      <point x="185" y="-202" type="line" smooth="yes"/>
      <point x="222" y="-211" type="line" smooth="yes"/>
      <point x="272" y="-215" type="line" smooth="yes"/>
      <point x="338" y="-203" type="line" smooth="yes"/>
      <point x="382" y="-170" type="line" smooth="yes"/>
      <point x="398" y="-118" type="line" smooth="yes"/>
      <point x="386" y="-75" type="line" smooth="yes"/>
      <point x="354" y="-50" type="line" smooth="yes"/>
      <point x="308" y="-40" type="line" smooth="yes"/>
      <point x="322" y="-12" type="line" smooth="yes"/>
      <point x="456" y="19" type="line" smooth="yes"/>
      <point x="548" y="104" type="line" smooth="yes"/>
      <point x="595" y="251" type="line" smooth="yes"/>
      <point x="597" y="266" type="line" smooth="yes"/>
      <point x="434" y="266" type="line" smooth="yes"/>
      <point x="417" y="191" type="line" smooth="yes"/>
      <point x="379" y="143" type="line" smooth="yes"/>
      <point x="304" y="127" type="line" smooth="yes"/>
      <point x="294" y="127" type="line" smooth="yes"/>
      <point x="226" y="156" type="line" smooth="yes"/>
      <point x="198" y="240" type="line" smooth="yes"/>
      <point x="203" y="374" type="line" smooth="yes"/>
    </contour>
  </outline>
</glyph>
<glyph name="Eacute" format="1">
  <advance width="573"/>
  <unicode hex="00C9"/>
  <outline>
    <contour>
      <point x="109" y="780" type="line" smooth="yes"/>
      <point x="7" y="0" type="line" smooth="yes"/>
      <point x="484" y="0" type="line" smooth="yes"/>
      <point x="502" y="140" type="line" smooth="yes"/>
      <point x="187" y="140" type="line" smooth="yes"/>
      <point x="212" y="328" type="line" smooth="yes"/>
      <point x="477" y="328" type="line" smooth="yes"/>
      <point x="495" y="468" type="line" smooth="yes"/>
      <point x="230" y="468" type="line" smooth="yes"/>
      <point x="253" y="640" type="line" smooth="yes"/>
      <point x="568" y="640" type="line" smooth="yes"/>
      <point x="586" y="780" type="line" smooth="yes"/>
    </contour>
    <contour>
      <point x="349" y="950" type="line" smooth="yes"/>
      <point x="279" y="840" type="line" smooth="yes"/>
      <point x="435" y="840" type="line" smooth="yes"/>
      <point x="514" y="950" type="line" smooth="yes"/>
    </contour>
  </outline>
</glyph>
<glyph name="Igrave" format="1">
  <advance width="283"/>
  <unicode hex="00CC"/>
  <outline>
    <contour>
      <point x="276" y="780" type="line" smooth="yes"/>
      <point x="114" y="780" type="line" smooth="yes"/>
      <point x="12" y="0" type="line" smooth="yes"/>
      <point x="174" y="0" type="line" smooth="yes"/>
    </contour>
    <contour>
      <point x="76" y="950" type="line" smooth="yes"/>
      <point x="125" y="840" type="line" smooth="yes"/>
      <point x="281" y="840" type="line" smooth="yes"/>
      <point x="241" y="950" type="line" smooth="yes"/>
    </contour>
  </outline>
</glyph>
<glyph name="Iacute" format="1">
  <advance width="283"/>
  <unicode hex="00CD"/>
  <outline>
    <contour>
      <point x="276" y="780" type="line" smooth="yes"/>
      <point x="114" y="780" type="line" smooth="yes"/>
      <point x="12" y="0" type="line" smooth="yes"/>
      <point x="174" y="0" type="line" smooth="yes"/>
    </contour>
    <contour>
      <point x="195" y="950" type="line" smooth="yes"/>
      <point x="125" y="840" type="line" smooth="yes"/>
      <point x="281" y="840" type="line" smooth="yes"/>
      <point x="360" y="950" type="line" smooth="yes"/>
    </contour>
  </outline>
</glyph>
<glyph name="Eth" format="1">
  <advance width="716"/>
  <unicode hex="00D0"/>
  <outline>
    <contour>
      <point x="247" y="140" type="line" smooth="yes"/>
      <point x="273" y="338" type="line" smooth="yes"/>
      <point x="438" y="338" type="line" smooth="yes"/>
      <point x="454" y="459" type="line" smooth="yes"/>
      <point x="289" y="459" type="line" smooth="yes"/>
      <point x="313" y="640" type="line" smooth="yes"/>
      <point x="389" y="640" type="line" smooth="yes"/>
      <point x="484" y="614" type="line" smooth="yes"/>
      <point x="525" y="536" type="line" smooth="yes"/>
      <point x="523" y="406" type="line" smooth="yes"/>
      <point x="519" y="374" type="line" smooth="yes"/>
      <point x="485" y="240" type="line" smooth="yes"/>
      <point x="420" y="164" type="line" smooth="yes"/>
      <point x="310" y="140" type="line" smooth="yes"/>
    </contour>
    <contour>
      <point x="688" y="406" type="line" smooth="yes"/>
      <point x="677" y="625" type="line" smooth="yes"/>
      <point x="580" y="744" type="line" smooth="yes"/>
      <point x="397" y="780" type="line" smooth="yes"/>
      <point x="169" y="780" type="line" smooth="yes"/>
      <point x="127" y="459" type="line" smooth="yes"/>
      <point x="23" y="459" type="line" smooth="yes"/>
      <point x="7" y="338" type="line" smooth="yes"/>
      <point x="111" y="338" type="line" smooth="yes"/>
      <point x="67" y="0" type="line" smooth="yes"/>
      <point x="308" y="0" type="line" smooth="yes"/>
      <point x="498" y="35" type="line" smooth="yes"/>
      <point x="621" y="153" type="line" smooth="yes"/>
      <point x="684" y="374" type="line" smooth="yes"/>
    </contour>
  </outline>
</glyph>
<glyph name="Ntilde" format="1">
  <advance width="683"/>
  <unicode hex="00D1"/>
  <outline>
    <contour>
      <point x="109" y="780" type="line" smooth="yes"/>
      <point x="7" y="0" type="line" smooth="yes"/>
      <point x="162" y="0" type="line" smooth="yes"/>
      <point x="204" y="322" type="line" smooth="yes"/>
      <point x="221" y="484" type="line" smooth="yes"/>
      <point x="409" y="0" type="line" smooth="yes"/>
      <point x="578" y="0" type="line" smooth="yes"/>
      <point x="680" y="780" type="line" smooth="yes"/>
      <point x="525" y="780" type="line" smooth="yes"/>
      <point x="483" y="458" type="line" smooth="yes"/>
      <point x="466" y="296" type="line" smooth="yes"/>
      <point x="278" y="780" type="line" smooth="yes"/>
    </contour>
    <contour>
      <point x="519" y="947" type="line" smooth="yes"/>
      <point x="513" y="927" type="line" smooth="yes"/>
      <point x="499" y="917" type="line" smooth="yes"/>
      <point x="482" y="914" type="line" smooth="yes"/>
      <point x="441" y="926" type="line" smooth="yes"/>
      <point x="392" y="950" type="line" smooth="yes"/>
      <point x="334" y="962" type="line" smooth="yes"/>
      <point x="282" y="951" type="line" smooth="yes"/>
      <point x="242" y="913" type="line" smooth="yes"/>
      <point x="220" y="843" type="line" smooth="yes"/>
      <point x="305" y="843" type="line" smooth="yes"/>
      <point x="311" y="863" type="line" smooth="yes"/>
      <point x="325" y="873" type="line" smooth="yes"/>
      <point x="342" y="876" type="line" smooth="yes"/>
      <point x="383" y="864" type="line" smooth="yes"/>
      <point x="432" y="840" type="line" smooth="yes"/>
      <point x="490" y="828" type="line" smooth="yes"/>
      <point x="542" y="839" type="line" smooth="yes"/>
      <point x="582" y="877" type="line" smooth="yes"/>
      <point x="604" y="947" type="line" smooth="yes"/>
    </contour>
  </outline>
</glyph>
<glyph name="Ograve" format="1">
  <advance width="666"/>
  <unicode hex="00D2"/>
  <outline>
    <contour>
      <point x="299" y="127" type="line" smooth="yes"/>
      <point x="225" y="156" type="line" smooth="yes"/>
      <point x="197" y="240" type="line" smooth="yes"/>
      <point x="203" y="374" type="line" smooth="yes"/>
      <point x="207" y="406" type="line" smooth="yes"/>
      <point x="235" y="540" type="line" smooth="yes"/>
      <point x="286" y="624" type="line" smooth="yes"/>
      <point x="367" y="653" type="line" smooth="yes"/>
      <point x="377" y="653" type="line" smooth="yes"/>
      <point x="451" y="624" type="line" smooth="yes"/>
      <point x="479" y="540" type="line" smooth="yes"/>
      <point x="473" y="406" type="line" smooth="yes"/>
      <point x="469" y="374" type="line" smooth="yes"/>
      <point x="441" y="240" type="line" smooth="yes"/>
      <point x="390" y="156" type="line" smooth="yes"/>
      <point x="309" y="127" type="line" smooth="yes"/>
    </contour>
    <contour>
      <point x="376" y="793" type="line" smooth="yes"/>
      <point x="207" y="753" type="line" smooth="yes"/>
      <point x="99" y="627" type="line" smooth="yes"/>
      <point x="42" y="406" type="line" smooth="yes"/>
      <point x="38" y="374" type="line" smooth="yes"/>
      <point x="46" y="153" type="line" smooth="yes"/>
      <point x="134" y="27" type="line" smooth="yes"/>
      <point x="300" y="-13" type="line" smooth="yes"/>
      <point x="469" y="27" type="line" smooth="yes"/>
      <point x="577" y="153" type="line" smooth="yes"/>
      <point x="634" y="374" type="line" smooth="yes"/>
      <point x="638" y="406" type="line" smooth="yes"/>
      <point x="630" y="627" type="line" smooth="yes"/>
      <point x="542" y="753" type="line" smooth="yes"/>
    </contour>
    <contour>
      <point x="270" y="950" type="line" smooth="yes"/>
      <point x="319" y="840" type="line" smooth="yes"/>
      <point x="475" y="840" type="line" smooth="yes"/>
      <point x="435" y="950" type="line" smooth="yes"/>
    </contour>
  </outline>
</glyph>
<glyph name="Otilde" format="1">
  <advance width="666"/>
  <unicode hex="00D5"/>
  <outline>
    <contour>
      <point x="299" y="127" type="line" smooth="yes"/>
      <point x="225" y="156" type="line" smooth="yes"/>
      <point x="197" y="240" type="line" smooth="yes"/>
      <point x="203" y="374" type="line" smooth="yes"/>
      <point x="207" y="406" type="line" smooth="yes"/>
      <point x="235" y="540" type="line" smooth="yes"/>
      <point x="286" y="624" type="line" smooth="yes"/>
      <point x="367" y="653" type="line" smooth="yes"/>
      <point x="377" y="653" type="line" smooth="yes"/>
      <point x="451" y="624" type="line" smooth="yes"/>
      <point x="479" y="540" type="line" smooth="yes"/>
      <point x="473" y="406" type="line" smooth="yes"/>
      <point x="469" y="374" type="line" smooth="yes"/>
      <point x="441" y="240" type="line" smooth="yes"/>
      <point x="390" y="156" type="line" smooth="yes"/>
      <point x="309" y="127" type="line" smooth="yes"/>
    </contour>
    <contour>
      <point x="376" y="793" type="line" smooth="yes"/>
      <point x="207" y="753" type="line" smooth="yes"/>
      <point x="99" y="627" type="line" smooth="yes"/>
      <point x="42" y="406" type="line" smooth="yes"/>
      <point x="38" y="374" type="line" smooth="yes"/>
      <point x="46" y="153" type="line" smooth="yes"/>
      <point x="134" y="27" type="line" smooth="yes"/>
      <point x="300" y="-13" type="line" smooth="yes"/>
      <point x="469" y="27" type="line" smooth="yes"/>
      <point x="577" y="153" type="line" smooth="yes"/>
      <point x="634" y="374" type="line" smooth="yes"/>
      <point x="638" y="406" type="line" smooth="yes"/>
      <point x="630" y="627" type="line" smooth="yes"/>
      <point x="542" y="753" type="line" smooth="yes"/>
    </contour>
    <contour>
      <point x="511" y="947" type="line" smooth="yes"/>
      <point x="505" y="927" type="line" smooth="yes"/>
      <point x="491" y="917" type="line" smooth="yes"/>
      <point x="474" y="914" type="line" smooth="yes"/>
      <point x="433" y="926" type="line" smooth="yes"/>
      <point x="384" y="950" type="line" smooth="yes"/>
      <point x="326" y="962" type="line" smooth="yes"/>
      <point x="274" y="951" type="line" smooth="yes"/>
      <point x="234" y="913" type="line" smooth="yes"/>
      <point x="212" y="843" type="line" smooth="yes"/>
      <point x="297" y="843" type="line" smooth="yes"/>
      <point x="303" y="863" type="line" smooth="yes"/>
      <point x="317" y="873" type="line" smooth="yes"/>
      <point x="334" y="876" type="line" smooth="yes"/>
      <point x="375" y="864" type="line" smooth="yes"/>
      <point x="424" y="840" type="line" smooth="yes"/>
      <point x="482" y="828" type="line" smooth="yes"/>
      <point x="534" y="839" type="line" smooth="yes"/>
      <point x="574" y="877" type="line" smooth="yes"/>
      <point x="596" y="947" type="line" smooth="yes"/>
    </contour>
  </outline>
</glyph>
<glyph name="Odieresis" format="1">
  <advance width="666"/>
  <unicode hex="00D6"/>
  <outline>
    <contour>
      <point x="299" y="127" type="line" smooth="yes"/>
      <point x="225" y="156" type="line" smooth="yes"/>
      <point x="197" y="240" type="line" smooth="yes"/>
      <point x="203" y="374" type="line" smooth="yes"/>
      <point x="207" y="406" type="line" smooth="yes"/>
      <point x="235" y="540" type="line" smooth="yes"/>
      <point x="286" y="624" type="line" smooth="yes"/>
      <point x="367" y="653" type="line" smooth="yes"/>
      <point x="377" y="653" type="line" smooth="yes"/>
      <point x="451" y="624" type="line" smooth="yes"/>
      <point x="479" y="540" type="line" smooth="yes"/>
      <point x="473" y="406" type="line" smooth="yes"/>
      <point x="469" y="374" type="line" smooth="yes"/>
      <point x="441" y="240" type="line" smooth="yes"/>
      <point x="390" y="156" type="line" smooth="yes"/>
      <point x="309" y="127" type="line" smooth="yes"/>
    </contour>
    <contour>
      <point x="376" y="793" type="line" smooth="yes"/>
      <point x="207" y="753" type="line" smooth="yes"/>
      <point x="99" y="627" type="line" smooth="yes"/>
      <point x="42" y="406" type="line" smooth="yes"/>
      <point x="38" y="374" type="line" smooth="yes"/>
      <point x="46" y="153" type="line" smooth="yes"/>
      <point x="134" y="27" type="line" smooth="yes"/>
      <point x="300" y="-13" type="line" smooth="yes"/>
      <point x="469" y="27" type="line" smooth="yes"/>
      <point x="577" y="153" type="line" smooth="yes"/>
      <point x="634" y="374" type="line" smooth="yes"/>
      <point x="638" y="406" type="line" smooth="yes"/>
      <point x="630" y="627" type="line" smooth="yes"/>
      <point x="542" y="753" type="line" smooth="yes"/>
    </contour>
    <contour>
      <point x="565" y="945" type="line" smooth="yes"/>
      <point x="432" y="945" type="line" smooth="yes"/>
      <point x="419" y="845" type="line" smooth="yes"/>
      <point x="552" y="845" type="line" smooth="yes"/>
    </contour>
    <contour>
      <point x="390" y="945" type="line" smooth="yes"/>
      <point x="257" y="945" type="line" smooth="yes"/>
      <point x="244" y="845" type="line" smooth="yes"/>
      <point x="377" y="845" type="line" smooth="yes"/>
    </contour>
  </outline>
</glyph>
<glyph name="Oslash" format="1">
  <advance width="670"/>
  <unicode hex="00D8"/>
  <outline>
    <contour>
      <point x="299" y="127" type="line" smooth="yes"/>
      <point x="264" y="132" type="line" smooth="yes"/>
      <point x="237" y="145" type="line" smooth="yes"/>
      <point x="217" y="168" type="line" smooth="yes"/>
      <point x="480" y="510" type="line" smooth="yes"/>
      <point x="480" y="478" type="line" smooth="yes"/>
      <point x="477" y="443" type="line" smooth="yes"/>
      <point x="473" y="406" type="line" smooth="yes"/>
      <point x="469" y="374" type="line" smooth="yes"/>
      <point x="441" y="240" type="line" smooth="yes"/>
      <point x="390" y="156" type="line" smooth="yes"/>
      <point x="309" y="127" type="line" smooth="yes"/>
    </contour>
    <contour>
      <point x="207" y="406" type="line" smooth="yes"/>
      <point x="235" y="540" type="line" smooth="yes"/>
      <point x="286" y="624" type="line" smooth="yes"/>
      <point x="367" y="653" type="line" smooth="yes"/>
      <point x="377" y="653" type="line" smooth="yes"/>
      <point x="412" y="648" type="line" smooth="yes"/>
      <point x="439" y="635" type="line" smooth="yes"/>
      <point x="459" y="612" type="line" smooth="yes"/>
      <point x="196" y="270" type="line" smooth="yes"/>
      <point x="196" y="302" type="line" smooth="yes"/>
      <point x="199" y="337" type="line" smooth="yes"/>
      <point x="203" y="374" type="line" smooth="yes"/>
    </contour>
    <contour>
      <point x="376" y="793" type="line" smooth="yes"/>
      <point x="207" y="753" type="line" smooth="yes"/>
      <point x="99" y="627" type="line" smooth="yes"/>
      <point x="42" y="406" type="line" smooth="yes"/>
      <point x="38" y="374" type="line" smooth="yes"/>
      <point x="31" y="263" type="line" smooth="yes"/>
      <point x="40" y="172" type="line" smooth="yes"/>
      <point x="66" y="101" type="line" smooth="yes"/>
      <point x="-11" y="0" type="line" smooth="yes"/>
      <point x="88" y="0" type="line" smooth="yes"/>
      <point x="118" y="39" type="line" smooth="yes"/>
      <point x="168" y="10" type="line" smooth="yes"/>
      <point x="228" y="-8" type="line" smooth="yes"/>
      <point x="300" y="-13" type="line" smooth="yes"/>
      <point x="469" y="27" type="line" smooth="yes"/>
      <point x="577" y="153" type="line" smooth="yes"/>
      <point x="634" y="374" type="line" smooth="yes"/>
      <point x="638" y="406" type="line" smooth="yes"/>
      <point x="645" y="517" type="line" smooth="yes"/>
      <point x="636" y="608" type="line" smooth="yes"/>
      <point x="610" y="679" type="line" smooth="yes"/>
      <point x="687" y="780" type="line" smooth="yes"/>
      <point x="588" y="780" type="line" smooth="yes"/>
      <point x="558" y="741" type="line" smooth="yes"/>
      <point x="508" y="770" type="line" smooth="yes"/>
      <point x="448" y="788" type="line" smooth="yes"/>
    </contour>
  </outline>
</glyph>
<glyph name="Ucircumflex" format="1">
  <advance width="663"/>
  <unicode hex="00DB"/>
  <outline>
    <contour>
      <point x="293" y="-13" type="line" smooth="yes"/>
      <point x="461" y="17" type="line" smooth="yes"/>
      <point x="554" y="104" type="line" smooth="yes"/>
      <point x="595" y="247" type="line" smooth="yes"/>
      <point x="665" y="780" type="line" smooth="yes"/>
      <point x="503" y="780" type="line" smooth="yes"/>
      <point x="434" y="252" type="line" smooth="yes"/>
      <point x="414" y="182" type="line" smooth="yes"/>
      <point x="371" y="141" type="line" smooth="yes"/>
      <point x="297" y="127" type="line" smooth="yes"/>
      <point x="228" y="141" type="line" smooth="yes"/>
      <point x="198" y="183" type="line" smooth="yes"/>
      <point x="197" y="252" type="line" smooth="yes"/>
      <point x="266" y="780" type="line" smooth="yes"/>
      <point x="104" y="780" type="line" smooth="yes"/>
      <point x="34" y="247" type="line" smooth="yes"/>
      <point x="44" y="104" type="line" smooth="yes"/>
      <point x="127" y="17" type="line" smooth="yes"/>
    </contour>
    <contour>
      <point x="596" y="840" type="line" smooth="yes"/>
      <point x="487" y="950" type="line" smooth="yes"/>
      <point x="327" y="950" type="line" smooth="yes"/>
      <point x="188" y="840" type="line" smooth="yes"/>
      <point x="333" y="840" type="line" smooth="yes"/>
      <point x="400" y="890" type="line" smooth="yes"/>
      <point x="457" y="840" type="line" smooth="yes"/>
    </contour>
  </outline>
</glyph>
<glyph name="Udieresis" format="1">
  <advance width="663"/>
  <unicode hex="00DC"/>
  <outline>
    <contour>
      <point x="293" y="-13" type="line" smooth="yes"/>
      <point x="461" y="17" type="line" smooth="yes"/>
      <point x="554" y="104" type="line" smooth="yes"/>
      <point x="595" y="247" type="line" smooth="yes"/>
      <point x="665" y="780" type="line" smooth="yes"/>
      <point x="503" y="780" type="line" smooth="yes"/>
      <point x="434" y="252" type="line" smooth="yes"/>
      <point x="414" y="182" type="line" smooth="yes"/>
      <point x="371" y="141" type="line" smooth="yes"/>
      <point x="297" y="127" type="line" smooth="yes"/>
      <point x="228" y="141" type="line" smooth="yes"/>
      <point x="198" y="183" type="line" smooth="yes"/>
      <point x="197" y="252" type="line" smooth="yes"/>
      <point x="266" y="780" type="line" smooth="yes"/>
      <point x="104" y="780" type="line" smooth="yes"/>
      <point x="34" y="247" type="line" smooth="yes"/>
      <point x="44" y="104" type="line" smooth="yes"/>
      <point x="127" y="17" type="line" smooth="yes"/>
    </contour>
    <contour>
      <point x="560" y="945" type="line" smooth="yes"/>
      <point x="427" y="945" type="line" smooth="yes"/>
      <point x="414" y="845" type="line" smooth="yes"/>
      <point x="547" y="845" type="line" smooth="yes"/>
    </contour>
    <contour>
      <point x="385" y="945" type="line" smooth="yes"/>
      <point x="252" y="945" type="line" smooth="yes"/>
      <point x="239" y="845" type="line" smooth="yes"/>
      <point x="372" y="845" type="line" smooth="yes"/>
    </contour>
  </outline>
</glyph>
<glyph name="Thorn" format="1">
  <advance width="605"/>
  <unicode hex="00DE"/>
  <outline>
    <contour>
      <point x="169" y="0" type="line" smooth="yes"/>
      <point x="188" y="140" type="line" smooth="yes"/>
      <point x="292" y="140" type="line" smooth="yes"/>
      <point x="418" y="155" type="line" smooth="yes"/>
      <point x="524" y="223" type="line" smooth="yes"/>
      <point x="584" y="375" type="line" smooth="yes"/>
      <point x="587" y="398" type="line" smooth="yes"/>
      <point x="569" y="546" type="line" smooth="yes"/>
      <point x="482" y="620" type="line" smooth="yes"/>
      <point x="354" y="640" type="line" smooth="yes"/>
      <point x="253" y="640" type="line" smooth="yes"/>
      <point x="271" y="780" type="line" smooth="yes"/>
      <point x="109" y="780" type="line" smooth="yes"/>
      <point x="7" y="0" type="line" smooth="yes"/>
    </contour>
    <contour>
      <point x="205" y="280" type="line" smooth="yes"/>
      <point x="235" y="500" type="line" smooth="yes"/>
      <point x="335" y="500" type="line" smooth="yes"/>
      <point x="380" y="492" type="line" smooth="yes"/>
      <point x="415" y="461" type="line" smooth="yes"/>
      <point x="423" y="394" type="line" smooth="yes"/>
      <point x="421" y="379" type="line" smooth="yes"/>
      <point x="396" y="316" type="line" smooth="yes"/>
      <point x="354" y="287" type="line" smooth="yes"/>
      <point x="307" y="280" type="line" smooth="yes"/>
    </contour>
  </outline>
</glyph>
<glyph name="germandbls" format="1">
  <advance width="630"/>
  <unicode hex="00DF"/>
  <outline>
    <contour>
      <point x="280" y="334" type="line" smooth="yes"/>
      <point x="364" y="270" type="line" smooth="yes"/>
      <point x="402" y="234" type="line" smooth="yes"/>
      <point x="421" y="202" type="line" smooth="yes"/>
      <point x="426" y="171" type="line" smooth="yes"/>
      <point x="422" y="140" type="line" smooth="yes"/>
      <point x="409" y="116" type="line" smooth="yes"/>
      <point x="385" y="107" type="line" smooth="yes"/>
      <point x="361" y="114" type="line" smooth="yes"/>
      <point x="350" y="135" type="line" smooth="yes"/>
      <point x="351" y="168" type="line" smooth="yes"/>
      <point x="217" y="168" type="line" smooth="yes"/>
      <point x="215" y="153" type="line" smooth="yes"/>
      <point x="218" y="74" type="line" smooth="yes"/>
      <point x="266" y="12" type="line" smooth="yes"/>
      <point x="384" y="-13" type="line" smooth="yes"/>
      <point x="491" y="13" type="line" smooth="yes"/>
      <point x="555" y="77" type="line" smooth="yes"/>
      <point x="583" y="161" type="line" smooth="yes"/>
      <point x="585" y="176" type="line" smooth="yes"/>
      <point x="580" y="251" type="line" smooth="yes"/>
      <point x="542" y="317" type="line" smooth="yes"/>
      <point x="475" y="379" type="line" smooth="yes"/>
      <point x="450" y="398" type="line" smooth="yes"/>
      <point x="511" y="447" type="line" smooth="yes"/>
      <point x="553" y="506" type="line" smooth="yes"/>
      <point x="575" y="581" type="line" smooth="yes"/>
      <point x="577" y="596" type="line" smooth="yes"/>
      <point x="564" y="704" type="line" smooth="yes"/>
      <point x="490" y="783" type="line" smooth="yes"/>
      <point x="343" y="813" type="line" smooth="yes"/>
      <point x="203" y="783" type="line" smooth="yes"/>
      <point x="116" y="705" type="line" smooth="yes"/>
      <point x="78" y="594" type="line" smooth="yes"/>
      <point x="0" y="0" type="line" smooth="yes"/>
      <point x="158" y="0" type="line" smooth="yes"/>
      <point x="235" y="585" type="line" smooth="yes"/>
      <point x="250" y="631" type="line" smooth="yes"/>
      <point x="281" y="664" type="line" smooth="yes"/>
      <point x="333" y="677" type="line" smooth="yes"/>
      <point x="381" y="667" type="line" smooth="yes"/>
      <point x="409" y="639" type="line" smooth="yes"/>
      <point x="417" y="598" type="line" smooth="yes"/>
      <point x="402" y="532" type="line" smooth="yes"/>
      <point x="358" y="477" type="line" smooth="yes"/>
      <point x="293" y="434" type="line" smooth="yes"/>
    </contour>
  </outline>
</glyph>
<glyph name="agrave" format="1">
  <advance width="546"/>
  <unicode hex="00E0"/>
  <outline>
    <contour>
      <point x="208" y="115" type="line" smooth="yes"/>
      <point x="177" y="122" type="line" smooth="yes"/>
      <point x="162" y="140" type="line" smooth="yes"/>
      <point x="160" y="166" type="line" smooth="yes"/>
      <point x="162" y="179" type="line" smooth="yes"/>
      <point x="171" y="203" type="line" smooth="yes"/>
      <point x="192" y="224" type="line" smooth="yes"/>
      <point x="229" y="237" type="line" smooth="yes"/>
      <point x="327" y="252" type="line" smooth="yes"/>
      <point x="315" y="163" type="line" smooth="yes"/>
      <point x="292" y="141" type="line" smooth="yes"/>
      <point x="258" y="123" type="line" smooth="yes"/>
    </contour>
    <contour>
      <point x="320" y="0" type="line" smooth="yes"/>
      <point x="461" y="0" type="line" smooth="yes"/>
      <point x="471" y="149" type="line" smooth="yes"/>
      <point x="496" y="341" type="line" smooth="yes"/>
      <point x="485" y="448" type="line" smooth="yes"/>
      <point x="415" y="518" type="line" smooth="yes"/>
      <point x="280" y="543" type="line" smooth="yes"/>
      <point x="148" y="521" type="line" smooth="yes"/>
      <point x="78" y="460" type="line" smooth="yes"/>
      <point x="49" y="370" type="line" smooth="yes"/>
      <point x="47" y="355" type="line" smooth="yes"/>
      <point x="196" y="355" type="line" smooth="yes"/>
      <point x="205" y="389" type="line" smooth="yes"/>
      <point x="230" y="413" type="line" smooth="yes"/>
      <point x="274" y="423" type="line" smooth="yes"/>
      <point x="316" y="416" type="line" smooth="yes"/>
      <point x="337" y="393" type="line" smooth="yes"/>
      <point x="340" y="354" type="line" smooth="yes"/>
      <point x="339" y="346" type="line" smooth="yes"/>
      <point x="209" y="326" type="line" smooth="yes"/>
      <point x="106" y="302" type="line" smooth="yes"/>
      <point x="36" y="253" type="line" smooth="yes"/>
      <point x="1" y="163" type="line" smooth="yes"/>
      <point x="-1" y="148" type="line" smooth="yes"/>
      <point x="8" y="69" type="line" smooth="yes"/>
      <point x="59" y="10" type="line" smooth="yes"/>
      <point x="155" y="-13" type="line" smooth="yes"/>
      <point x="220" y="-4" type="line" smooth="yes"/>
      <point x="273" y="21" type="line" smooth="yes"/>
      <point x="320" y="59" type="line" smooth="yes"/>
    </contour>
    <contour>
      <point x="142" y="780" type="line" smooth="yes"/>
      <point x="225" y="596" type="line" smooth="yes"/>
      <point x="381" y="596" type="line" smooth="yes"/>
      <point x="314" y="780" type="line" smooth="yes"/>
    </contour>
  </outline>
</glyph>
<glyph name="atilde" format="1">
  <advance width="549"/>
  <unicode hex="00E3"/>
  <outline>
    <contour>
      <point x="208" y="115" type="line" smooth="yes"/>
      <point x="177" y="122" type="line" smooth="yes"/>
      <point x="162" y="140" type="line" smooth="yes"/>
      <point x="160" y="166" type="line" smooth="yes"/>
      <point x="162" y="179" type="line" smooth="yes"/>
      <point x="171" y="203" type="line" smooth="yes"/>
      <point x="192" y="224" type="line" smooth="yes"/>
      <point x="229" y="237" type="line" smooth="yes"/>
      <point x="327" y="252" type="line" smooth="yes"/>
      <point x="315" y="163" type="line" smooth="yes"/>
      <point x="292" y="141" type="line" smooth="yes"/>
      <point x="258" y="123" type="line" smooth="yes"/>
    </contour>
    <contour>
      <point x="320" y="0" type="line" smooth="yes"/>
      <point x="461" y="0" type="line" smooth="yes"/>
      <point x="471" y="149" type="line" smooth="yes"/>
      <point x="496" y="341" type="line" smooth="yes"/>
      <point x="485" y="448" type="line" smooth="yes"/>
      <point x="415" y="518" type="line" smooth="yes"/>
      <point x="280" y="543" type="line" smooth="yes"/>
      <point x="148" y="521" type="line" smooth="yes"/>
      <point x="78" y="460" type="line" smooth="yes"/>
      <point x="49" y="370" type="line" smooth="yes"/>
      <point x="47" y="355" type="line" smooth="yes"/>
      <point x="196" y="355" type="line" smooth="yes"/>
      <point x="205" y="389" type="line" smooth="yes"/>
      <point x="230" y="413" type="line" smooth="yes"/>
      <point x="274" y="423" type="line" smooth="yes"/>
      <point x="316" y="416" type="line" smooth="yes"/>
      <point x="337" y="393" type="line" smooth="yes"/>
      <point x="340" y="354" type="line" smooth="yes"/>
      <point x="339" y="346" type="line" smooth="yes"/>
      <point x="209" y="326" type="line" smooth="yes"/>
      <point x="106" y="302" type="line" smooth="yes"/>
      <point x="36" y="253" type="line" smooth="yes"/>
      <point x="1" y="163" type="line" smooth="yes"/>
      <point x="-1" y="148" type="line" smooth="yes"/>
      <point x="8" y="69" type="line" smooth="yes"/>
      <point x="59" y="10" type="line" smooth="yes"/>
      <point x="155" y="-13" type="line" smooth="yes"/>
      <point x="220" y="-4" type="line" smooth="yes"/>
      <point x="273" y="21" type="line" smooth="yes"/>
      <point x="320" y="59" type="line" smooth="yes"/>
    </contour>
    <contour>
      <point x="422" y="772" type="line" smooth="yes"/>
      <point x="417" y="751" type="line" smooth="yes"/>
      <point x="404" y="739" type="line" smooth="yes"/>
      <point x="388" y="735" type="line" smooth="yes"/>
      <point x="344" y="748" type="line" smooth="yes"/>
      <point x="293" y="774" type="line" smooth="yes"/>
      <point x="232" y="787" type="line" smooth="yes"/>
      <point x="176" y="770" type="line" smooth="yes"/>
      <point x="130" y="719" type="line" smooth="yes"/>
      <point x="106" y="628" type="line" smooth="yes"/>
      <point x="211" y="628" type="line" smooth="yes"/>
      <point x="216" y="649" type="line" smooth="yes"/>
      <point x="229" y="661" type="line" smooth="yes"/>
      <point x="245" y="665" type="line" smooth="yes"/>
      <point x="289" y="652" type="line" smooth="yes"/>
      <point x="340" y="626" type="line" smooth="yes"/>
      <point x="401" y="613" type="line" smooth="yes"/>
      <point x="457" y="630" type="line" smooth="yes"/>
      <point x="503" y="681" type="line" smooth="yes"/>
      <point x="527" y="772" type="line" smooth="yes"/>
    </contour>
  </outline>
</glyph>
<glyph name="aring" format="1">
  <advance width="546"/>
  <unicode hex="00E5"/>
  <outline>
    <contour>
      <point x="208" y="115" type="line" smooth="yes"/>
      <point x="177" y="122" type="line" smooth="yes"/>
      <point x="162" y="140" type="line" smooth="yes"/>
      <point x="160" y="166" type="line" smooth="yes"/>
      <point x="162" y="179" type="line" smooth="yes"/>
      <point x="171" y="203" type="line" smooth="yes"/>
      <point x="192" y="224" type="line" smooth="yes"/>
      <point x="229" y="237" type="line" smooth="yes"/>
      <point x="327" y="252" type="line" smooth="yes"/>
      <point x="315" y="163" type="line" smooth="yes"/>
      <point x="292" y="141" type="line" smooth="yes"/>
      <point x="258" y="123" type="line" smooth="yes"/>
    </contour>
    <contour>
      <point x="320" y="0" type="line" smooth="yes"/>
      <point x="461" y="0" type="line" smooth="yes"/>
      <point x="471" y="149" type="line" smooth="yes"/>
      <point x="496" y="341" type="line" smooth="yes"/>
      <point x="485" y="448" type="line" smooth="yes"/>
      <point x="415" y="518" type="line" smooth="yes"/>
      <point x="280" y="543" type="line" smooth="yes"/>
      <point x="148" y="521" type="line" smooth="yes"/>
      <point x="78" y="460" type="line" smooth="yes"/>
      <point x="49" y="370" type="line" smooth="yes"/>
      <point x="47" y="355" type="line" smooth="yes"/>
      <point x="196" y="355" type="line" smooth="yes"/>
      <point x="205" y="389" type="line" smooth="yes"/>
      <point x="230" y="413" type="line" smooth="yes"/>
      <point x="274" y="423" type="line" smooth="yes"/>
      <point x="316" y="416" type="line" smooth="yes"/>
      <point x="337" y="393" type="line" smooth="yes"/>
      <point x="340" y="354" type="line" smooth="yes"/>
      <point x="339" y="346" type="line" smooth="yes"/>
      <point x="209" y="326" type="line" smooth="yes"/>
      <point x="106" y="302" type="line" smooth="yes"/>
      <point x="36" y="253" type="line" smooth="yes"/>
      <point x="1" y="163" type="line" smooth="yes"/>
      <point x="-1" y="148" type="line" smooth="yes"/>
      <point x="8" y="69" type="line" smooth="yes"/>
      <point x="59" y="10" type="line" smooth="yes"/>
      <point x="155" y="-13" type="line" smooth="yes"/>
      <point x="220" y="-4" type="line" smooth="yes"/>
      <point x="273" y="21" type="line" smooth="yes"/>
      <point x="320" y="59" type="line" smooth="yes"/>
    </contour>
    <contour>
      <point x="367" y="693" type="line" smooth="yes"/>
      <point x="359" y="664" type="line" smooth="yes"/>
      <point x="339" y="644" type="line" smooth="yes"/>
      <point x="310" y="637" type="line" smooth="yes"/>
      <point x="287" y="643" type="line" smooth="yes"/>
      <point x="270" y="659" type="line" smooth="yes"/>
      <point x="264" y="683" type="line" smooth="yes"/>
      <point x="272" y="712" type="line" smooth="yes"/>
      <point x="292" y="732" type="line" smooth="yes"/>
      <point x="321" y="739" type="line" smooth="yes"/>
      <point x="344" y="733" type="line" smooth="yes"/>
      <point x="361" y="717" type="line" smooth="yes"/>
    </contour>
    <contour>
      <point x="422" y="700" type="line" smooth="yes"/>
      <point x="409" y="748" type="line" smooth="yes"/>
      <point x="375" y="781" type="line" smooth="yes"/>
      <point x="326" y="793" type="line" smooth="yes"/>
      <point x="267" y="778" type="line" smooth="yes"/>
      <point x="225" y="736" type="line" smooth="yes"/>
      <point x="209" y="676" type="line" smooth="yes"/>
      <point x="222" y="628" type="line" smooth="yes"/>
      <point x="256" y="595" type="line" smooth="yes"/>
      <point x="305" y="583" type="line" smooth="yes"/>
      <point x="364" y="598" type="line" smooth="yes"/>
      <point x="406" y="640" type="line" smooth="yes"/>
    </contour>
  </outline>
</glyph>
<glyph name="ae" format="1">
  <advance width="864"/>
  <unicode hex="00E6"/>
  <outline>
    <contour>
      <point x="600" y="423" type="line" smooth="yes"/>
      <point x="645" y="411" type="line" smooth="yes"/>
      <point x="669" y="378" type="line" smooth="yes"/>
      <point x="674" y="322" type="line" smooth="yes"/>
      <point x="491" y="322" type="line" smooth="yes"/>
      <point x="512" y="378" type="line" smooth="yes"/>
      <point x="549" y="412" type="line" smooth="yes"/>
    </contour>
    <contour>
      <point x="208" y="115" type="line" smooth="yes"/>
      <point x="177" y="122" type="line" smooth="yes"/>
      <point x="162" y="140" type="line" smooth="yes"/>
      <point x="160" y="166" type="line" smooth="yes"/>
      <point x="162" y="179" type="line" smooth="yes"/>
      <point x="171" y="203" type="line" smooth="yes"/>
      <point x="192" y="224" type="line" smooth="yes"/>
      <point x="229" y="237" type="line" smooth="yes"/>
      <point x="327" y="252" type="line" smooth="yes"/>
      <point x="326" y="246" type="line" smooth="yes"/>
      <point x="323" y="221" type="line" smooth="yes"/>
      <point x="323" y="196" type="line" smooth="yes"/>
      <point x="324" y="173" type="line" smooth="yes"/>
      <point x="294" y="142" type="line" smooth="yes"/>
      <point x="256" y="122" type="line" smooth="yes"/>
    </contour>
    <contour>
      <point x="817" y="208" type="line" smooth="yes"/>
      <point x="823" y="255" type="line" smooth="yes"/>
      <point x="816" y="404" type="line" smooth="yes"/>
      <point x="745" y="506" type="line" smooth="yes"/>
      <point x="600" y="543" type="line" smooth="yes"/>
      <point x="535" y="537" type="line" smooth="yes"/>
      <point x="483" y="518" type="line" smooth="yes"/>
      <point x="442" y="488" type="line" smooth="yes"/>
      <point x="407" y="518" type="line" smooth="yes"/>
      <point x="353" y="537" type="line" smooth="yes"/>
      <point x="280" y="543" type="line" smooth="yes"/>
      <point x="148" y="521" type="line" smooth="yes"/>
      <point x="78" y="460" type="line" smooth="yes"/>
      <point x="49" y="370" type="line" smooth="yes"/>
      <point x="47" y="355" type="line" smooth="yes"/>
      <point x="196" y="355" type="line" smooth="yes"/>
      <point x="205" y="389" type="line" smooth="yes"/>
      <point x="230" y="413" type="line" smooth="yes"/>
      <point x="274" y="423" type="line" smooth="yes"/>
      <point x="316" y="416" type="line" smooth="yes"/>
      <point x="337" y="393" type="line" smooth="yes"/>
      <point x="340" y="354" type="line" smooth="yes"/>
      <point x="339" y="346" type="line" smooth="yes"/>
      <point x="209" y="326" type="line" smooth="yes"/>
      <point x="106" y="302" type="line" smooth="yes"/>
      <point x="36" y="253" type="line" smooth="yes"/>
      <point x="1" y="163" type="line" smooth="yes"/>
      <point x="-1" y="148" type="line" smooth="yes"/>
      <point x="8" y="69" type="line" smooth="yes"/>
      <point x="59" y="10" type="line" smooth="yes"/>
      <point x="155" y="-13" type="line" smooth="yes"/>
      <point x="222" y="-4" type="line" smooth="yes"/>
      <point x="290" y="24" type="line" smooth="yes"/>
      <point x="357" y="74" type="line" smooth="yes"/>
      <point x="404" y="27" type="line" smooth="yes"/>
      <point x="474" y="-3" type="line" smooth="yes"/>
      <point x="565" y="-13" type="line" smooth="yes"/>
      <point x="693" y="9" type="line" smooth="yes"/>
      <point x="774" y="69" type="line" smooth="yes"/>
      <point x="810" y="155" type="line" smooth="yes"/>
      <point x="812" y="170" type="line" smooth="yes"/>
      <point x="663" y="170" type="line" smooth="yes"/>
      <point x="649" y="136" type="line" smooth="yes"/>
      <point x="618" y="115" type="line" smooth="yes"/>
      <point x="565" y="107" type="line" smooth="yes"/>
      <point x="513" y="117" type="line" smooth="yes"/>
      <point x="482" y="149" type="line" smooth="yes"/>
      <point x="476" y="208" type="line" smooth="yes"/>
    </contour>
  </outline>
</glyph>
<glyph name="ccedilla" format="1">
  <advance width="524"/>
  <unicode hex="00E7"/>
  <outline>
    <contour>
      <point x="176" y="284" type="line" smooth="yes"/>
      <point x="195" y="354" type="line" smooth="yes"/>
      <point x="230" y="394" type="line" smooth="yes"/>
      <point x="277" y="407" type="line" smooth="yes"/>
      <point x="319" y="396" type="line" smooth="yes"/>
      <point x="340" y="366" type="line" smooth="yes"/>
      <point x="342" y="324" type="line" smooth="yes"/>
      <point x="491" y="324" type="line" smooth="yes"/>
      <point x="493" y="339" type="line" smooth="yes"/>
      <point x="481" y="449" type="line" smooth="yes"/>
      <point x="410" y="519" type="line" smooth="yes"/>
      <point x="282" y="543" type="line" smooth="yes"/>
      <point x="145" y="511" type="line" smooth="yes"/>
      <point x="59" y="420" type="line" smooth="yes"/>
      <point x="18" y="284" type="line" smooth="yes"/>
      <point x="13" y="246" type="line" smooth="yes"/>
      <point x="20" y="125" type="line" smooth="yes"/>
      <point x="75" y="37" type="line" smooth="yes"/>
      <point x="180" y="-9" type="line" smooth="yes"/>
      <point x="146" y="-72" type="line" smooth="yes"/>
      <point x="157" y="-100" type="line" smooth="yes"/>
      <point x="163" y="-99" type="line" smooth="yes"/>
      <point x="178" y="-96" type="line" smooth="yes"/>
      <point x="196" y="-95" type="line" smooth="yes"/>
      <point x="221" y="-97" type="line" smooth="yes"/>
      <point x="236" y="-104" type="line" smooth="yes"/>
      <point x="241" y="-116" type="line" smooth="yes"/>
      <point x="236" y="-129" type="line" smooth="yes"/>
      <point x="221" y="-138" type="line" smooth="yes"/>
      <point x="195" y="-141" type="line" smooth="yes"/>
      <point x="166" y="-139" type="line" smooth="yes"/>
      <point x="140" y="-133" type="line" smooth="yes"/>
      <point x="121" y="-124" type="line" smooth="yes"/>
      <point x="89" y="-190" type="line" smooth="yes"/>
      <point x="113" y="-202" type="line" smooth="yes"/>
      <point x="150" y="-211" type="line" smooth="yes"/>
      <point x="200" y="-215" type="line" smooth="yes"/>
      <point x="266" y="-203" type="line" smooth="yes"/>
      <point x="310" y="-170" type="line" smooth="yes"/>
      <point x="326" y="-118" type="line" smooth="yes"/>
      <point x="314" y="-75" type="line" smooth="yes"/>
      <point x="282" y="-50" type="line" smooth="yes"/>
      <point x="236" y="-40" type="line" smooth="yes"/>
      <point x="250" y="-13" type="line" smooth="yes"/>
      <point x="364" y="13" type="line" smooth="yes"/>
      <point x="438" y="79" type="line" smooth="yes"/>
      <point x="472" y="181" type="line" smooth="yes"/>
      <point x="474" y="196" type="line" smooth="yes"/>
      <point x="325" y="196" type="line" smooth="yes"/>
      <point x="312" y="160" type="line" smooth="yes"/>
      <point x="284" y="133" type="line" smooth="yes"/>
      <point x="240" y="123" type="line" smooth="yes"/>
      <point x="193" y="137" type="line" smooth="yes"/>
      <point x="170" y="179" type="line" smooth="yes"/>
      <point x="171" y="246" type="line" smooth="yes"/>
    </contour>
  </outline>
</glyph>
<glyph name="ecircumflex" format="1">
  <advance width="556"/>
  <unicode hex="00EA"/>
  <outline>
    <contour>
      <point x="287" y="423" type="line" smooth="yes"/>
      <point x="332" y="411" type="line" smooth="yes"/>
      <point x="356" y="378" type="line" smooth="yes"/>
      <point x="361" y="322" type="line" smooth="yes"/>
      <point x="178" y="322" type="line" smooth="yes"/>
      <point x="199" y="378" type="line" smooth="yes"/>
      <point x="236" y="412" type="line" smooth="yes"/>
    </contour>
    <contour>
      <point x="504" y="208" type="line" smooth="yes"/>
      <point x="510" y="255" type="line" smooth="yes"/>
      <point x="503" y="404" type="line" smooth="yes"/>
      <point x="432" y="506" type="line" smooth="yes"/>
      <point x="287" y="543" type="line" smooth="yes"/>
      <point x="147" y="509" type="line" smooth="yes"/>
      <point x="59" y="417" type="line" smooth="yes"/>
      <point x="18" y="284" type="line" smooth="yes"/>
      <point x="13" y="246" type="line" smooth="yes"/>
      <point x="24" y="113" type="line" smooth="yes"/>
      <point x="102" y="21" type="line" smooth="yes"/>
      <point x="252" y="-13" type="line" smooth="yes"/>
      <point x="380" y="9" type="line" smooth="yes"/>
      <point x="461" y="69" type="line" smooth="yes"/>
      <point x="497" y="155" type="line" smooth="yes"/>
      <point x="499" y="170" type="line" smooth="yes"/>
      <point x="350" y="170" type="line" smooth="yes"/>
      <point x="336" y="136" type="line" smooth="yes"/>
      <point x="305" y="115" type="line" smooth="yes"/>
      <point x="252" y="107" type="line" smooth="yes"/>
      <point x="200" y="117" type="line" smooth="yes"/>
      <point x="169" y="149" type="line" smooth="yes"/>
      <point x="163" y="208" type="line" smooth="yes"/>
    </contour>
    <contour>
      <point x="520" y="596" type="line" smooth="yes"/>
      <point x="410" y="780" type="line" smooth="yes"/>
      <point x="258" y="780" type="line" smooth="yes"/>
      <point x="100" y="596" type="line" smooth="yes"/>
      <point x="241" y="596" type="line" smooth="yes"/>
      <point x="324" y="679" type="line" smooth="yes"/>
      <point x="385" y="596" type="line" smooth="yes"/>
    </contour>
  </outline>
</glyph>
<glyph name="eth" format="1">
  <advance width="555"/>
  <unicode hex="00F0"/>
  <outline>
    <contour>
      <point x="247" y="123" type="line" smooth="yes"/>
      <point x="196" y="137" type="line" smooth="yes"/>
      <point x="171" y="179" type="line" smooth="yes"/>
      <point x="171" y="246" type="line" smooth="yes"/>
      <point x="176" y="284" type="line" smooth="yes"/>
      <point x="195" y="354" type="line" smooth="yes"/>
      <point x="230" y="394" type="line" smooth="yes"/>
      <point x="280" y="407" type="line" smooth="yes"/>
      <point x="331" y="393" type="line" smooth="yes"/>
      <point x="356" y="351" type="line" smooth="yes"/>
      <point x="356" y="284" type="line" smooth="yes"/>
      <point x="351" y="246" type="line" smooth="yes"/>
      <point x="332" y="176" type="line" smooth="yes"/>
      <point x="297" y="136" type="line" smooth="yes"/>
    </contour>
    <contour>
      <point x="70" y="673" type="line" smooth="yes"/>
      <point x="109" y="668" type="line" smooth="yes"/>
      <point x="145" y="662" type="line" smooth="yes"/>
      <point x="179" y="653" type="line" smooth="yes"/>
      <point x="89" y="607" type="line" smooth="yes"/>
      <point x="78" y="518" type="line" smooth="yes"/>
      <point x="267" y="616" type="line" smooth="yes"/>
      <point x="297" y="594" type="line" smooth="yes"/>
      <point x="323" y="565" type="line" smooth="yes"/>
      <point x="343" y="533" type="line" smooth="yes"/>
      <point x="324" y="539" type="line" smooth="yes"/>
      <point x="304" y="542" type="line" smooth="yes"/>
      <point x="275" y="543" type="line" smooth="yes"/>
      <point x="145" y="511" type="line" smooth="yes"/>
      <point x="60" y="420" type="line" smooth="yes"/>
      <point x="18" y="284" type="line" smooth="yes"/>
      <point x="13" y="246" type="line" smooth="yes"/>
      <point x="25" y="112" type="line" smooth="yes"/>
      <point x="100" y="21" type="line" smooth="yes"/>
      <point x="242" y="-13" type="line" smooth="yes"/>
      <point x="381" y="19" type="line" smooth="yes"/>
      <point x="468" y="110" type="line" smooth="yes"/>
      <point x="509" y="246" type="line" smooth="yes"/>
      <point x="514" y="284" type="line" smooth="yes"/>
      <point x="522" y="432" type="line" smooth="yes"/>
      <point x="496" y="577" type="line" smooth="yes"/>
      <point x="423" y="697" type="line" smooth="yes"/>
      <point x="476" y="724" type="line" smooth="yes"/>
      <point x="487" y="813" type="line" smooth="yes"/>
      <point x="359" y="746" type="line" smooth="yes"/>
      <point x="278" y="781" type="line" smooth="yes"/>
      <point x="187" y="802" type="line" smooth="yes"/>
      <point x="89" y="813" type="line" smooth="yes"/>
    </contour>
  </outline>
</glyph>
<glyph name="ntilde" format="1">
  <advance width="580"/>
  <unicode hex="00F1"/>
  <outline>
    <contour>
      <point x="483" y="0" type="line" smooth="yes"/>
      <point x="530" y="358" type="line" smooth="yes"/>
      <point x="524" y="453" type="line" smooth="yes"/>
      <point x="475" y="519" type="line" smooth="yes"/>
      <point x="375" y="543" type="line" smooth="yes"/>
      <point x="309" y="532" type="line" smooth="yes"/>
      <point x="252" y="503" type="line" smooth="yes"/>
      <point x="206" y="460" type="line" smooth="yes"/>
      <point x="206" y="530" type="line" smooth="yes"/>
      <point x="65" y="530" type="line" smooth="yes"/>
      <point x="55" y="381" type="line" smooth="yes"/>
      <point x="5" y="0" type="line" smooth="yes"/>
      <point x="163" y="0" type="line" smooth="yes"/>
      <point x="210" y="358" type="line" smooth="yes"/>
      <point x="233" y="380" type="line" smooth="yes"/>
      <point x="268" y="399" type="line" smooth="yes"/>
      <point x="310" y="407" type="line" smooth="yes"/>
      <point x="348" y="399" type="line" smooth="yes"/>
      <point x="367" y="374" type="line" smooth="yes"/>
      <point x="369" y="335" type="line" smooth="yes"/>
      <point x="325" y="0" type="line" smooth="yes"/>
    </contour>
    <contour>
      <point x="441" y="772" type="line" smooth="yes"/>
      <point x="436" y="751" type="line" smooth="yes"/>
      <point x="423" y="739" type="line" smooth="yes"/>
      <point x="407" y="735" type="line" smooth="yes"/>
      <point x="363" y="748" type="line" smooth="yes"/>
      <point x="312" y="774" type="line" smooth="yes"/>
      <point x="251" y="787" type="line" smooth="yes"/>
      <point x="195" y="770" type="line" smooth="yes"/>
      <point x="149" y="719" type="line" smooth="yes"/>
      <point x="125" y="628" type="line" smooth="yes"/>
      <point x="230" y="628" type="line" smooth="yes"/>
      <point x="235" y="649" type="line" smooth="yes"/>
      <point x="248" y="661" type="line" smooth="yes"/>
      <point x="264" y="665" type="line" smooth="yes"/>
      <point x="308" y="652" type="line" smooth="yes"/>
      <point x="359" y="626" type="line" smooth="yes"/>
      <point x="420" y="613" type="line" smooth="yes"/>
      <point x="476" y="630" type="line" smooth="yes"/>
      <point x="522" y="681" type="line" smooth="yes"/>
      <point x="546" y="772" type="line" smooth="yes"/>
    </contour>
  </outline>
</glyph>
<glyph name="otilde" format="1">
  <advance width="556"/>
  <unicode hex="00F5"/>
  <outline>
    <contour>
      <point x="242" y="-13" type="line" smooth="yes"/>
      <point x="381" y="19" type="line" smooth="yes"/>
      <point x="468" y="110" type="line" smooth="yes"/>
      <point x="509" y="246" type="line" smooth="yes"/>
      <point x="514" y="284" type="line" smooth="yes"/>
      <point x="502" y="418" type="line" smooth="yes"/>
      <point x="427" y="509" type="line" smooth="yes"/>
      <point x="285" y="543" type="line" smooth="yes"/>
      <point x="146" y="511" type="line" smooth="yes"/>
      <point x="59" y="420" type="line" smooth="yes"/>
      <point x="18" y="284" type="line" smooth="yes"/>
      <point x="13" y="246" type="line" smooth="yes"/>
      <point x="25" y="112" type="line" smooth="yes"/>
      <point x="100" y="21" type="line" smooth="yes"/>
    </contour>
    <contour>
      <point x="247" y="123" type="line" smooth="yes"/>
      <point x="196" y="137" type="line" smooth="yes"/>
      <point x="171" y="179" type="line" smooth="yes"/>
      <point x="171" y="246" type="line" smooth="yes"/>
      <point x="176" y="284" type="line" smooth="yes"/>
      <point x="195" y="354" type="line" smooth="yes"/>
      <point x="230" y="394" type="line" smooth="yes"/>
      <point x="280" y="407" type="line" smooth="yes"/>
      <point x="331" y="393" type="line" smooth="yes"/>
      <point x="356" y="351" type="line" smooth="yes"/>
      <point x="356" y="284" type="line" smooth="yes"/>
      <point x="351" y="246" type="line" smooth="yes"/>
      <point x="332" y="176" type="line" smooth="yes"/>
      <point x="297" y="136" type="line" smooth="yes"/>
    </contour>
    <contour>
      <point x="426" y="772" type="line" smooth="yes"/>
      <point x="421" y="751" type="line" smooth="yes"/>
      <point x="408" y="739" type="line" smooth="yes"/>
      <point x="392" y="735" type="line" smooth="yes"/>
      <point x="348" y="748" type="line" smooth="yes"/>
      <point x="297" y="774" type="line" smooth="yes"/>
      <point x="236" y="787" type="line" smooth="yes"/>
      <point x="180" y="770" type="line" smooth="yes"/>
      <point x="134" y="719" type="line" smooth="yes"/>
      <point x="110" y="628" type="line" smooth="yes"/>
      <point x="215" y="628" type="line" smooth="yes"/>
      <point x="220" y="649" type="line" smooth="yes"/>
      <point x="233" y="661" type="line" smooth="yes"/>
      <point x="249" y="665" type="line" smooth="yes"/>
      <point x="293" y="652" type="line" smooth="yes"/>
      <point x="344" y="626" type="line" smooth="yes"/>
      <point x="405" y="613" type="line" smooth="yes"/>
      <point x="461" y="630" type="line" smooth="yes"/>
      <point x="507" y="681" type="line" smooth="yes"/>
      <point x="531" y="772" type="line" smooth="yes"/>
    </contour>
  </outline>
</glyph>
<glyph name="oslash" format="1">
  <advance width="556"/>
  <unicode hex="00F8"/>
  <outline>
    <contour>
      <point x="91" y="27" type="line" smooth="yes"/>
      <point x="133" y="5" type="line" smooth="yes"/>
      <point x="184" y="-9" type="line" smooth="yes"/>
      <point x="242" y="-13" type="line" smooth="yes"/>
      <point x="381" y="19" type="line" smooth="yes"/>
      <point x="468" y="110" type="line" smooth="yes"/>
      <point x="509" y="246" type="line" smooth="yes"/>
      <point x="514" y="284" type="line" smooth="yes"/>
      <point x="516" y="350" type="line" smooth="yes"/>
      <point x="505" y="409" type="line" smooth="yes"/>
      <point x="481" y="459" type="line" smooth="yes"/>
      <point x="546" y="530" type="line" smooth="yes"/>
      <point x="460" y="530" type="line" smooth="yes"/>
      <point x="436" y="503" type="line" smooth="yes"/>
      <point x="394" y="525" type="line" smooth="yes"/>
      <point x="343" y="539" type="line" smooth="yes"/>
      <point x="285" y="543" type="line" smooth="yes"/>
      <point x="146" y="511" type="line" smooth="yes"/>
      <point x="59" y="420" type="line" smooth="yes"/>
      <point x="18" y="284" type="line" smooth="yes"/>
      <point x="13" y="246" type="line" smooth="yes"/>
      <point x="11" y="180" type="line" smooth="yes"/>
      <point x="22" y="121" type="line" smooth="yes"/>
      <point x="46" y="71" type="line" smooth="yes"/>
      <point x="-19" y="0" type="line" smooth="yes"/>
      <point x="67" y="0" type="line" smooth="yes"/>
    </contour>
    <contour>
      <point x="247" y="123" type="line" smooth="yes"/>
      <point x="226" y="125" type="line" smooth="yes"/>
      <point x="208" y="130" type="line" smooth="yes"/>
      <point x="193" y="139" type="line" smooth="yes"/>
      <point x="359" y="323" type="line" smooth="yes"/>
      <point x="359" y="311" type="line" smooth="yes"/>
      <point x="358" y="298" type="line" smooth="yes"/>
      <point x="356" y="284" type="line" smooth="yes"/>
      <point x="351" y="246" type="line" smooth="yes"/>
      <point x="332" y="176" type="line" smooth="yes"/>
      <point x="297" y="136" type="line" smooth="yes"/>
    </contour>
    <contour>
      <point x="176" y="284" type="line" smooth="yes"/>
      <point x="195" y="354" type="line" smooth="yes"/>
      <point x="230" y="394" type="line" smooth="yes"/>
      <point x="280" y="407" type="line" smooth="yes"/>
      <point x="301" y="405" type="line" smooth="yes"/>
      <point x="319" y="400" type="line" smooth="yes"/>
      <point x="334" y="391" type="line" smooth="yes"/>
      <point x="168" y="207" type="line" smooth="yes"/>
      <point x="168" y="219" type="line" smooth="yes"/>
      <point x="169" y="232" type="line" smooth="yes"/>
      <point x="171" y="246" type="line" smooth="yes"/>
    </contour>
  </outline>
</glyph>
<glyph name="ugrave" format="1">
  <advance width="580"/>
  <unicode hex="00F9"/>
  <outline>
    <contour>
      <point x="68" y="530" type="line" smooth="yes"/>
      <point x="21" y="172" type="line" smooth="yes"/>
      <point x="27" y="77" type="line" smooth="yes"/>
      <point x="76" y="11" type="line" smooth="yes"/>
      <point x="176" y="-13" type="line" smooth="yes"/>
      <point x="242" y="-2" type="line" smooth="yes"/>
      <point x="299" y="27" type="line" smooth="yes"/>
      <point x="345" y="70" type="line" smooth="yes"/>
      <point x="345" y="0" type="line" smooth="yes"/>
      <point x="486" y="0" type="line" smooth="yes"/>
      <point x="496" y="149" type="line" smooth="yes"/>
      <point x="546" y="530" type="line" smooth="yes"/>
      <point x="388" y="530" type="line" smooth="yes"/>
      <point x="341" y="172" type="line" smooth="yes"/>
      <point x="318" y="150" type="line" smooth="yes"/>
      <point x="283" y="131" type="line" smooth="yes"/>
      <point x="241" y="123" type="line" smooth="yes"/>
      <point x="203" y="131" type="line" smooth="yes"/>
      <point x="184" y="156" type="line" smooth="yes"/>
      <point x="182" y="195" type="line" smooth="yes"/>
      <point x="226" y="530" type="line" smooth="yes"/>
    </contour>
    <contour>
      <point x="154" y="780" type="line" smooth="yes"/>
      <point x="237" y="596" type="line" smooth="yes"/>
      <point x="393" y="596" type="line" smooth="yes"/>
      <point x="326" y="780" type="line" smooth="yes"/>
    </contour>
  </outline>
</glyph>
<glyph name="ucircumflex" format="1">
  <advance width="580"/>
  <unicode hex="00FB"/>
  <outline>
    <contour>
      <point x="68" y="530" type="line" smooth="yes"/>
      <point x="21" y="172" type="line" smooth="yes"/>
      <point x="27" y="77" type="line" smooth="yes"/>
      <point x="76" y="11" type="line" smooth="yes"/>
      <point x="176" y="-13" type="line" smooth="yes"/>
      <point x="242" y="-2" type="line" smooth="yes"/>
      <point x="299" y="27" type="line" smooth="yes"/>
      <point x="345" y="70" type="line" smooth="yes"/>
      <point x="345" y="0" type="line" smooth="yes"/>
      <point x="486" y="0" type="line" smooth="yes"/>
      <point x="496" y="149" type="line" smooth="yes"/>
      <point x="546" y="530" type="line" smooth="yes"/>
      <point x="388" y="530" type="line" smooth="yes"/>
      <point x="341" y="172" type="line" smooth="yes"/>
      <point x="318" y="150" type="line" smooth="yes"/>
      <point x="283" y="131" type="line" smooth="yes"/>
      <point x="241" y="123" type="line" smooth="yes"/>
      <point x="203" y="131" type="line" smooth="yes"/>
      <point x="184" y="156" type="line" smooth="yes"/>
      <point x="182" y="195" type="line" smooth="yes"/>
      <point x="226" y="530" type="line" smooth="yes"/>
    </contour>
    <contour>
      <point x="525" y="596" type="line" smooth="yes"/>
      <point x="415" y="780" type="line" smooth="yes"/>
      <point x="263" y="780" type="line" smooth="yes"/>
      <point x="105" y="596" type="line" smooth="yes"/>
      <point x="246" y="596" type="line" smooth="yes"/>
      <point x="329" y="679" type="line" smooth="yes"/>
      <point x="390" y="596" type="line" smooth="yes"/>
    </contour>
  </outline>
</glyph>
<glyph name="udieresis" format="1">
  <advance width="580"/>
  <unicode hex="00FC"/>
  <outline>
    <contour>
      <point x="68" y="530" type="line" smooth="yes"/>
      <point x="21" y="172" type="line" smooth="yes"/>
      <point x="27" y="77" type="line" smooth="yes"/>
      <point x="76" y="11" type="line" smooth="yes"/>
      <point x="176" y="-13" type="line" smooth="yes"/>
      <point x="242" y="-2" type="line" smooth="yes"/>
      <point x="299" y="27" type="line" smooth="yes"/>
      <point x="345" y="70" type="line" smooth="yes"/>
      <point x="345" y="0" type="line" smooth="yes"/>
      <point x="486" y="0" type="line" smooth="yes"/>
      <point x="496" y="149" type="line" smooth="yes"/>
      <point x="546" y="530" type="line" smooth="yes"/>
      <point x="388" y="530" type="line" smooth="yes"/>
      <point x="341" y="172" type="line" smooth="yes"/>
      <point x="318" y="150" type="line" smooth="yes"/>
      <point x="283" y="131" type="line" smooth="yes"/>
      <point x="241" y="123" type="line" smooth="yes"/>
      <point x="203" y="131" type="line" smooth="yes"/>
      <point x="184" y="156" type="line" smooth="yes"/>
      <point x="182" y="195" type="line" smooth="yes"/>
      <point x="226" y="530" type="line" smooth="yes"/>
    </contour>
    <contour>
      <point x="529" y="772" type="line" smooth="yes"/>
      <point x="362" y="772" type="line" smooth="yes"/>
      <point x="340" y="605" type="line" smooth="yes"/>
      <point x="507" y="605" type="line" smooth="yes"/>
    </contour>
    <contour>
      <point x="314" y="772" type="line" smooth="yes"/>
      <point x="147" y="772" type="line" smooth="yes"/>
      <point x="125" y="605" type="line" smooth="yes"/>
      <point x="292" y="605" type="line" smooth="yes"/>
    </contour>
  </outline>
</glyph>
<glyph name="Aogonek" format="1">
  <advance width="641"/>
  <unicode hex="0104"/>
  <outline>
    <contour>
      <point x="351" y="601" type="line" smooth="yes"/>
      <point x="376" y="308" type="line" smooth="yes"/>
      <point x="248" y="308" type="line" smooth="yes"/>
    </contour>
    <contour>
      <point x="262" y="782" type="line" smooth="yes"/>
      <point x="-35" y="0" type="line" smooth="yes"/>
      <point x="139" y="0" type="line" smooth="yes"/>
      <point x="199" y="168" type="line" smooth="yes"/>
      <point x="389" y="168" type="line" smooth="yes"/>
      <point x="404" y="0" type="line" smooth="yes"/>
      <point x="440" y="0" type="line" smooth="yes"/>
      <point x="410" y="-34" type="line" smooth="yes"/>
      <point x="390" y="-74" type="line" smooth="yes"/>
      <point x="383" y="-120" type="line" smooth="yes"/>
      <point x="398" y="-174" type="line" smooth="yes"/>
      <point x="442" y="-205" type="line" smooth="yes"/>
      <point x="510" y="-215" type="line" smooth="yes"/>
      <point x="548" y="-211" type="line" smooth="yes"/>
      <point x="583" y="-202" type="line" smooth="yes"/>
      <point x="611" y="-190" type="line" smooth="yes"/>
      <point x="588" y="-94" type="line" smooth="yes"/>
      <point x="577" y="-99" type="line" smooth="yes"/>
      <point x="563" y="-103" type="line" smooth="yes"/>
      <point x="545" y="-105" type="line" smooth="yes"/>
      <point x="524" y="-101" type="line" smooth="yes"/>
      <point x="511" y="-91" type="line" smooth="yes"/>
      <point x="506" y="-75" type="line" smooth="yes"/>
      <point x="517" y="-40" type="line" smooth="yes"/>
      <point x="545" y="-15" type="line" smooth="yes"/>
      <point x="578" y="0" type="line" smooth="yes"/>
      <point x="485" y="782" type="line" smooth="yes"/>
    </contour>
  </outline>
</glyph>
<glyph name="aogonek" format="1">
  <advance width="546"/>
  <unicode hex="0105"/>
  <outline>
    <contour>
      <point x="208" y="115" type="line" smooth="yes"/>
      <point x="177" y="122" type="line" smooth="yes"/>
      <point x="162" y="140" type="line" smooth="yes"/>
      <point x="160" y="166" type="line" smooth="yes"/>
      <point x="162" y="179" type="line" smooth="yes"/>
      <point x="171" y="203" type="line" smooth="yes"/>
      <point x="192" y="224" type="line" smooth="yes"/>
      <point x="229" y="237" type="line" smooth="yes"/>
      <point x="327" y="252" type="line" smooth="yes"/>
      <point x="315" y="163" type="line" smooth="yes"/>
      <point x="292" y="141" type="line" smooth="yes"/>
      <point x="258" y="123" type="line" smooth="yes"/>
    </contour>
    <contour>
      <point x="461" y="0" type="line" smooth="yes"/>
      <point x="471" y="149" type="line" smooth="yes"/>
      <point x="496" y="341" type="line" smooth="yes"/>
      <point x="485" y="448" type="line" smooth="yes"/>
      <point x="415" y="518" type="line" smooth="yes"/>
      <point x="280" y="543" type="line" smooth="yes"/>
      <point x="148" y="521" type="line" smooth="yes"/>
      <point x="78" y="460" type="line" smooth="yes"/>
      <point x="49" y="370" type="line" smooth="yes"/>
      <point x="47" y="355" type="line" smooth="yes"/>
      <point x="196" y="355" type="line" smooth="yes"/>
      <point x="205" y="389" type="line" smooth="yes"/>
      <point x="230" y="413" type="line" smooth="yes"/>
      <point x="274" y="423" type="line" smooth="yes"/>
      <point x="316" y="416" type="line" smooth="yes"/>
      <point x="337" y="393" type="line" smooth="yes"/>
      <point x="340" y="354" type="line" smooth="yes"/>
      <point x="339" y="346" type="line" smooth="yes"/>
      <point x="209" y="326" type="line" smooth="yes"/>
      <point x="106" y="302" type="line" smooth="yes"/>
      <point x="36" y="253" type="line" smooth="yes"/>
      <point x="1" y="163" type="line" smooth="yes"/>
      <point x="-1" y="148" type="line" smooth="yes"/>
      <point x="8" y="69" type="line" smooth="yes"/>
      <point x="59" y="10" type="line" smooth="yes"/>
      <point x="155" y="-13" type="line" smooth="yes"/>
      <point x="220" y="-4" type="line" smooth="yes"/>
      <point x="273" y="21" type="line" smooth="yes"/>
      <point x="320" y="59" type="line" smooth="yes"/>
      <point x="320" y="-3" type="line" smooth="yes"/>
      <point x="292" y="-37" type="line" smooth="yes"/>
      <point x="273" y="-76" type="line" smooth="yes"/>
      <point x="266" y="-120" type="line" smooth="yes"/>
      <point x="281" y="-174" type="line" smooth="yes"/>
      <point x="325" y="-205" type="line" smooth="yes"/>
      <point x="393" y="-215" type="line" smooth="yes"/>
      <point x="431" y="-211" type="line" smooth="yes"/>
      <point x="466" y="-202" type="line" smooth="yes"/>
      <point x="494" y="-190" type="line" smooth="yes"/>
      <point x="471" y="-94" type="line" smooth="yes"/>
      <point x="460" y="-99" type="line" smooth="yes"/>
      <point x="446" y="-103" type="line" smooth="yes"/>
      <point x="428" y="-105" type="line" smooth="yes"/>
      <point x="407" y="-101" type="line" smooth="yes"/>
      <point x="394" y="-91" type="line" smooth="yes"/>
      <point x="389" y="-75" type="line" smooth="yes"/>
      <point x="400" y="-40" type="line" smooth="yes"/>
      <point x="428" y="-15" type="line" smooth="yes"/>
    </contour>
  </outline>
</glyph>
<glyph name="Ccircumflex" format="1">
  <advance width="646"/>
  <unicode hex="0108"/>
  <outline>
    <contour>
      <point x="207" y="407" type="line" smooth="yes"/>
      <point x="236" y="540" type="line" smooth="yes"/>
      <point x="286" y="624" type="line" smooth="yes"/>
      <point x="362" y="653" type="line" smooth="yes"/>
      <point x="372" y="653" type="line" smooth="yes"/>
      <point x="437" y="634" type="line" smooth="yes"/>
      <point x="465" y="578" type="line" smooth="yes"/>
      <point x="463" y="484" type="line" smooth="yes"/>
      <point x="626" y="484" type="line" smooth="yes"/>
      <point x="630" y="516" type="line" smooth="yes"/>
      <point x="618" y="670" type="line" smooth="yes"/>
      <point x="533" y="762" type="line" smooth="yes"/>
      <point x="371" y="793" type="line" smooth="yes"/>
      <point x="207" y="753" type="line" smooth="yes"/>
      <point x="100" y="627" type="line" smooth="yes"/>
      <point x="42" y="406" type="line" smooth="yes"/>
      <point x="38" y="374" type="line" smooth="yes"/>
      <point x="47" y="153" type="line" smooth="yes"/>
      <point x="135" y="27" type="line" smooth="yes"/>
      <point x="295" y="-13" type="line" smooth="yes"/>
      <point x="443" y="13" type="line" smooth="yes"/>
      <point x="544" y="98" type="line" smooth="yes"/>
      <point x="595" y="251" type="line" smooth="yes"/>
      <point x="597" y="266" type="line" smooth="yes"/>
      <point x="434" y="266" type="line" smooth="yes"/>
      <point x="417" y="191" type="line" smooth="yes"/>
      <point x="379" y="143" type="line" smooth="yes"/>
      <point x="304" y="127" type="line" smooth="yes"/>
      <point x="294" y="127" type="line" smooth="yes"/>
      <point x="226" y="156" type="line" smooth="yes"/>
      <point x="198" y="240" type="line" smooth="yes"/>
      <point x="203" y="374" type="line" smooth="yes"/>
    </contour>
    <contour>
      <point x="597" y="840" type="line" smooth="yes"/>
      <point x="488" y="950" type="line" smooth="yes"/>
      <point x="328" y="950" type="line" smooth="yes"/>
      <point x="189" y="840" type="line" smooth="yes"/>
      <point x="334" y="840" type="line" smooth="yes"/>
      <point x="401" y="890" type="line" smooth="yes"/>
      <point x="458" y="840" type="line" smooth="yes"/>
    </contour>
  </outline>
</glyph>
<glyph name="ebreve" format="1">
  <advance width="556"/>
  <unicode hex="0115"/>
  <outline>
    <contour>
      <point x="287" y="423" type="line" smooth="yes"/>
      <point x="332" y="411" type="line" smooth="yes"/>
      <point x="356" y="378" type="line" smooth="yes"/>
      <point x="361" y="322" type="line" smooth="yes"/>
      <point x="178" y="322" type="line" smooth="yes"/>
      <point x="199" y="378" type="line" smooth="yes"/>
      <point x="236" y="412" type="line" smooth="yes"/>
    </contour>
    <contour>
      <point x="504" y="208" type="line" smooth="yes"/>
      <point x="510" y="255" type="line" smooth="yes"/>
      <point x="503" y="404" type="line" smooth="yes"/>
      <point x="432" y="506" type="line" smooth="yes"/>
      <point x="287" y="543" type="line" smooth="yes"/>
      <point x="147" y="509" type="line" smooth="yes"/>
      <point x="59" y="417" type="line" smooth="yes"/>
      <point x="18" y="284" type="line" smooth="yes"/>
      <point x="13" y="246" type="line" smooth="yes"/>
      <point x="24" y="113" type="line" smooth="yes"/>
      <point x="102" y="21" type="line" smooth="yes"/>
      <point x="252" y="-13" type="line" smooth="yes"/>
      <point x="380" y="9" type="line" smooth="yes"/>
      <point x="461" y="69" type="line" smooth="yes"/>
      <point x="497" y="155" type="line" smooth="yes"/>
      <point x="499" y="170" type="line" smooth="yes"/>
      <point x="350" y="170" type="line" smooth="yes"/>
      <point x="336" y="136" type="line" smooth="yes"/>
      <point x="305" y="115" type="line" smooth="yes"/>
      <point x="252" y="107" type="line" smooth="yes"/>
      <point x="200" y="117" type="line" smooth="yes"/>
      <point x="169" y="149" type="line" smooth="yes"/>
      <point x="163" y="208" type="line" smooth="yes"/>
    </contour>
    <contour>
      <point x="308" y="582" type="line" smooth="yes"/>
      <point x="423" y="608" type="line" smooth="yes"/>
      <point x="491" y="678" type="line" smooth="yes"/>
      <point x="521" y="780" type="line" smooth="yes"/>
      <point x="406" y="780" type="line" smooth="yes"/>
      <point x="390" y="734" type="line" smooth="yes"/>
      <point x="361" y="709" type="line" smooth="yes"/>
      <point x="322" y="702" type="line" smooth="yes"/>
      <point x="285" y="709" type="line" smooth="yes"/>
      <point x="261" y="734" type="line" smooth="yes"/>
      <point x="258" y="780" type="line" smooth="yes"/>
      <point x="147" y="780" type="line" smooth="yes"/>
      <point x="150" y="678" type="line" smooth="yes"/>
      <point x="200" y="608" type="line" smooth="yes"/>
    </contour>
  </outline>
</glyph>
<glyph name="Edotaccent" format="1">
  <advance width="573"/>
  <unicode hex="0116"/>
  <outline>
    <contour>
      <point x="109" y="780" type="line" smooth="yes"/>
      <point x="7" y="0" type="line" smooth="yes"/>
      <point x="484" y="0" type="line" smooth="yes"/>
      <point x="502" y="140" type="line" smooth="yes"/>
      <point x="187" y="140" type="line" smooth="yes"/>
      <point x="212" y="328" type="line" smooth="yes"/>
      <point x="477" y="328" type="line" smooth="yes"/>
      <point x="495" y="468" type="line" smooth="yes"/>
      <point x="230" y="468" type="line" smooth="yes"/>
      <point x="253" y="640" type="line" smooth="yes"/>
      <point x="568" y="640" type="line" smooth="yes"/>
      <point x="586" y="780" type="line" smooth="yes"/>
    </contour>
    <contour>
      <point x="437" y="945" type="line" smooth="yes"/>
      <point x="304" y="945" type="line" smooth="yes"/>
      <point x="291" y="845" type="line" smooth="yes"/>
      <point x="424" y="845" type="line" smooth="yes"/>
    </contour>
  </outline>
</glyph>
<glyph name="Eogonek" format="1">
  <advance width="573"/>
  <unicode hex="0118"/>
  <outline>
    <contour>
      <point x="109" y="780" type="line" smooth="yes"/>
      <point x="7" y="0" type="line" smooth="yes"/>
      <point x="346" y="0" type="line" smooth="yes"/>
      <point x="316" y="-34" type="line" smooth="yes"/>
      <point x="296" y="-74" type="line" smooth="yes"/>
      <point x="289" y="-120" type="line" smooth="yes"/>
      <point x="304" y="-174" type="line" smooth="yes"/>
      <point x="348" y="-205" type="line" smooth="yes"/>
      <point x="416" y="-215" type="line" smooth="yes"/>
      <point x="454" y="-211" type="line" smooth="yes"/>
      <point x="489" y="-202" type="line" smooth="yes"/>
      <point x="517" y="-190" type="line" smooth="yes"/>
      <point x="494" y="-94" type="line" smooth="yes"/>
      <point x="483" y="-99" type="line" smooth="yes"/>
      <point x="469" y="-103" type="line" smooth="yes"/>
      <point x="451" y="-105" type="line" smooth="yes"/>
      <point x="430" y="-101" type="line" smooth="yes"/>
      <point x="417" y="-91" type="line" smooth="yes"/>
      <point x="412" y="-75" type="line" smooth="yes"/>
      <point x="423" y="-40" type="line" smooth="yes"/>
      <point x="451" y="-15" type="line" smooth="yes"/>
      <point x="484" y="0" type="line" smooth="yes"/>
      <point x="502" y="140" type="line" smooth="yes"/>
      <point x="187" y="140" type="line" smooth="yes"/>
      <point x="212" y="328" type="line" smooth="yes"/>
      <point x="477" y="328" type="line" smooth="yes"/>
      <point x="495" y="468" type="line" smooth="yes"/>
      <point x="230" y="468" type="line" smooth="yes"/>
      <point x="253" y="640" type="line" smooth="yes"/>
      <point x="568" y="640" type="line" smooth="yes"/>
      <point x="586" y="780" type="line" smooth="yes"/>
    </contour>
  </outline>
</glyph>
<glyph name="eogonek" format="1">
  <advance width="551"/>
  <unicode hex="0119"/>
  <outline>
    <contour>
      <point x="287" y="423" type="line" smooth="yes"/>
      <point x="332" y="411" type="line" smooth="yes"/>
      <point x="356" y="378" type="line" smooth="yes"/>
      <point x="361" y="322" type="line" smooth="yes"/>
      <point x="178" y="322" type="line" smooth="yes"/>
      <point x="199" y="378" type="line" smooth="yes"/>
      <point x="236" y="412" type="line" smooth="yes"/>
    </contour>
    <contour>
      <point x="504" y="208" type="line" smooth="yes"/>
      <point x="510" y="255" type="line" smooth="yes"/>
      <point x="503" y="404" type="line" smooth="yes"/>
      <point x="432" y="506" type="line" smooth="yes"/>
      <point x="287" y="543" type="line" smooth="yes"/>
      <point x="147" y="509" type="line" smooth="yes"/>
      <point x="59" y="417" type="line" smooth="yes"/>
      <point x="18" y="284" type="line" smooth="yes"/>
      <point x="13" y="246" type="line" smooth="yes"/>
      <point x="21" y="123" type="line" smooth="yes"/>
      <point x="83" y="33" type="line" smooth="yes"/>
      <point x="205" y="-10" type="line" smooth="yes"/>
      <point x="180" y="-42" type="line" smooth="yes"/>
      <point x="164" y="-79" type="line" smooth="yes"/>
      <point x="158" y="-120" type="line" smooth="yes"/>
      <point x="173" y="-174" type="line" smooth="yes"/>
      <point x="217" y="-205" type="line" smooth="yes"/>
      <point x="285" y="-215" type="line" smooth="yes"/>
      <point x="323" y="-211" type="line" smooth="yes"/>
      <point x="358" y="-202" type="line" smooth="yes"/>
      <point x="386" y="-190" type="line" smooth="yes"/>
      <point x="363" y="-94" type="line" smooth="yes"/>
      <point x="352" y="-99" type="line" smooth="yes"/>
      <point x="338" y="-103" type="line" smooth="yes"/>
      <point x="320" y="-105" type="line" smooth="yes"/>
      <point x="299" y="-101" type="line" smooth="yes"/>
      <point x="286" y="-91" type="line" smooth="yes"/>
      <point x="281" y="-75" type="line" smooth="yes"/>
      <point x="292" y="-40" type="line" smooth="yes"/>
      <point x="320" y="-15" type="line" smooth="yes"/>
      <point x="353" y="0" type="line" smooth="yes"/>
      <point x="427" y="36" type="line" smooth="yes"/>
      <point x="475" y="89" type="line" smooth="yes"/>
      <point x="497" y="155" type="line" smooth="yes"/>
      <point x="499" y="170" type="line" smooth="yes"/>
      <point x="350" y="170" type="line" smooth="yes"/>
      <point x="336" y="136" type="line" smooth="yes"/>
      <point x="305" y="115" type="line" smooth="yes"/>
      <point x="252" y="107" type="line" smooth="yes"/>
      <point x="200" y="117" type="line" smooth="yes"/>
      <point x="169" y="149" type="line" smooth="yes"/>
      <point x="163" y="208" type="line" smooth="yes"/>
    </contour>
  </outline>
</glyph>
<glyph name="gcircumflex" format="1">
  <advance width="574"/>
  <unicode hex="011D"/>
  <outline>
    <contour>
      <point x="341" y="204" type="line" smooth="yes"/>
      <point x="322" y="183" type="line" smooth="yes"/>
      <point x="292" y="163" type="line" smooth="yes"/>
      <point x="248" y="155" type="line" smooth="yes"/>
      <point x="201" y="168" type="line" smooth="yes"/>
      <point x="176" y="205" type="line" smooth="yes"/>
      <point x="173" y="262" type="line" smooth="yes"/>
      <point x="178" y="300" type="line" smooth="yes"/>
      <point x="194" y="356" type="line" smooth="yes"/>
      <point x="228" y="393" type="line" smooth="yes"/>
      <point x="280" y="407" type="line" smooth="yes"/>
      <point x="320" y="398" type="line" smooth="yes"/>
      <point x="346" y="377" type="line" smooth="yes"/>
      <point x="361" y="355" type="line" smooth="yes"/>
    </contour>
    <contour>
      <point x="315" y="7" type="line" smooth="yes"/>
      <point x="298" y="-46" type="line" smooth="yes"/>
      <point x="265" y="-76" type="line" smooth="yes"/>
      <point x="216" y="-85" type="line" smooth="yes"/>
      <point x="163" y="-75" type="line" smooth="yes"/>
      <point x="141" y="-46" type="line" smooth="yes"/>
      <point x="140" y="0" type="line" smooth="yes"/>
      <point x="-9" y="0" type="line" smooth="yes"/>
      <point x="-11" y="-15" type="line" smooth="yes"/>
      <point x="-1" y="-115" type="line" smooth="yes"/>
      <point x="70" y="-186" type="line" smooth="yes"/>
      <point x="218" y="-213" type="line" smooth="yes"/>
      <point x="341" y="-190" type="line" smooth="yes"/>
      <point x="429" y="-119" type="line" smooth="yes"/>
      <point x="472" y="0" type="line" smooth="yes"/>
      <point x="522" y="380" type="line" smooth="yes"/>
      <point x="550" y="530" type="line" smooth="yes"/>
      <point x="408" y="530" type="line" smooth="yes"/>
      <point x="390" y="465" type="line" smooth="yes"/>
      <point x="358" y="506" type="line" smooth="yes"/>
      <point x="309" y="533" type="line" smooth="yes"/>
      <point x="243" y="543" type="line" smooth="yes"/>
      <point x="128" y="510" type="line" smooth="yes"/>
      <point x="55" y="424" type="line" smooth="yes"/>
      <point x="20" y="300" type="line" smooth="yes"/>
      <point x="15" y="262" type="line" smooth="yes"/>
      <point x="21" y="136" type="line" smooth="yes"/>
      <point x="78" y="50" type="line" smooth="yes"/>
      <point x="187" y="19" type="line" smooth="yes"/>
      <point x="244" y="26" type="line" smooth="yes"/>
      <point x="289" y="45" type="line" smooth="yes"/>
      <point x="324" y="74" type="line" smooth="yes"/>
    </contour>
    <contour>
      <point x="519" y="596" type="line" smooth="yes"/>
      <point x="409" y="780" type="line" smooth="yes"/>
      <point x="257" y="780" type="line" smooth="yes"/>
      <point x="99" y="596" type="line" smooth="yes"/>
      <point x="240" y="596" type="line" smooth="yes"/>
      <point x="323" y="679" type="line" smooth="yes"/>
      <point x="384" y="596" type="line" smooth="yes"/>
    </contour>
  </outline>
</glyph>
<glyph name="hcircumflex" format="1">
  <advance width="576"/>
  <unicode hex="0125"/>
  <outline>
    <contour>
      <point x="397" y="840" type="line" smooth="yes"/>
      <point x="288" y="950" type="line" smooth="yes"/>
      <point x="128" y="950" type="line" smooth="yes"/>
      <point x="-11" y="840" type="line" smooth="yes"/>
      <point x="134" y="840" type="line" smooth="yes"/>
      <point x="201" y="890" type="line" smooth="yes"/>
      <point x="258" y="840" type="line" smooth="yes"/>
    </contour>
    <contour>
      <point x="5" y="0" type="line" smooth="yes"/>
      <point x="163" y="0" type="line" smooth="yes"/>
      <point x="210" y="358" type="line" smooth="yes"/>
      <point x="233" y="380" type="line" smooth="yes"/>
      <point x="268" y="399" type="line" smooth="yes"/>
      <point x="310" y="407" type="line" smooth="yes"/>
      <point x="348" y="399" type="line" smooth="yes"/>
      <point x="367" y="374" type="line" smooth="yes"/>
      <point x="369" y="335" type="line" smooth="yes"/>
      <point x="325" y="0" type="line" smooth="yes"/>
      <point x="483" y="0" type="line" smooth="yes"/>
      <point x="530" y="358" type="line" smooth="yes"/>
      <point x="524" y="453" type="line" smooth="yes"/>
      <point x="475" y="519" type="line" smooth="yes"/>
      <point x="375" y="543" type="line" smooth="yes"/>
      <point x="319" y="535" type="line" smooth="yes"/>
      <point x="269" y="514" type="line" smooth="yes"/>
      <point x="226" y="482" type="line" smooth="yes"/>
      <point x="268" y="800" type="line" smooth="yes"/>
      <point x="110" y="800" type="line" smooth="yes"/>
    </contour>
  </outline>
</glyph>
<glyph name="Hbar" format="1">
  <advance width="663"/>
  <unicode hex="0126"/>
  <outline>
    <contour>
      <point x="242" y="564" type="line" smooth="yes"/>
      <point x="469" y="564" type="line" smooth="yes"/>
      <point x="457" y="468" type="line" smooth="yes"/>
      <point x="230" y="468" type="line" smooth="yes"/>
    </contour>
    <contour>
      <point x="498" y="780" type="line" smooth="yes"/>
      <point x="485" y="685" type="line" smooth="yes"/>
      <point x="258" y="685" type="line" smooth="yes"/>
      <point x="271" y="780" type="line" smooth="yes"/>
      <point x="109" y="780" type="line" smooth="yes"/>
      <point x="7" y="0" type="line" smooth="yes"/>
      <point x="169" y="0" type="line" smooth="yes"/>
      <point x="212" y="328" type="line" smooth="yes"/>
      <point x="439" y="328" type="line" smooth="yes"/>
      <point x="396" y="0" type="line" smooth="yes"/>
      <point x="558" y="0" type="line" smooth="yes"/>
      <point x="660" y="780" type="line" smooth="yes"/>
    </contour>
  </outline>
</glyph>
